<svg width="200" height="125" viewBox="0 0 200 125" fill="none" xmlns="http://www.w3.org/2000/svg">
<rect width="200" height="125" fill="white"/>
<rect x="23.25" y="24.25" width="14.5" height="14.5" rx="1.75" fill="#F2F2F2"/>
<path d="M31.5742 35V31.6309C31.5742 31.3021 31.4928 31.0498 31.3301 30.874C31.1673 30.695 30.9395 30.6055 30.6465 30.6055C29.8327 30.6055 29.4258 31.1003 29.4258 32.0898L29.123 30.7617H29.5234C29.5527 30.4134 29.6797 30.1546 29.9043 29.9854C30.1289 29.8128 30.4577 29.7266 30.8906 29.7266C31.4375 29.7266 31.8607 29.8926 32.1602 30.2246C32.4596 30.5566 32.6094 31.0254 32.6094 31.6309V35H31.5742ZM28.3906 35V27.6758H29.4258V35H28.3906Z" fill="black"/>
<rect x="23.25" y="24.25" width="14.5" height="14.5" rx="1.75" stroke="black" stroke-width="0.5"/>
<rect x="15.25" y="42.25" width="14.5" height="14.5" rx="1.75" fill="white"/>
<path d="M22.5 53.0977C20.9245 53.0977 20.1367 51.9258 20.1367 49.582C20.1367 47.1732 20.9245 45.9688 22.5 45.9688C24.0755 45.9688 24.8633 47.1732 24.8633 49.582C24.8633 51.9258 24.0755 53.0977 22.5 53.0977ZM22.5 50.3145C22.2819 50.3145 22.1045 50.2477 21.9678 50.1143C21.8343 49.9775 21.7676 49.8001 21.7676 49.582C21.7676 49.3607 21.8343 49.1833 21.9678 49.0498C22.1045 48.9163 22.2819 48.8496 22.5 48.8496C22.7214 48.8496 22.8988 48.9163 23.0322 49.0498C23.1657 49.1833 23.2324 49.3607 23.2324 49.582C23.2324 49.8001 23.1657 49.9775 23.0322 50.1143C22.8988 50.2477 22.7214 50.3145 22.5 50.3145ZM22.5 52.1992C23.3789 52.1992 23.8184 51.3268 23.8184 49.582C23.8184 47.7721 23.3789 46.8672 22.5 46.8672C21.6211 46.8672 21.1816 47.7721 21.1816 49.582C21.1816 51.3268 21.6211 52.1992 22.5 52.1992Z" fill="black"/>
<rect x="15.25" y="42.25" width="14.5" height="14.5" rx="1.75" stroke="black" stroke-width="0.5"/>
<rect x="32.25" y="42.25" width="14.5" height="14.5" rx="1.75" fill="white"/>
<path d="M39.5 53.0977C37.9245 53.0977 37.1367 51.9258 37.1367 49.582C37.1367 47.1732 37.9245 45.9688 39.5 45.9688C41.0755 45.9688 41.8633 47.1732 41.8633 49.582C41.8633 51.9258 41.0755 53.0977 39.5 53.0977ZM39.5 50.3145C39.2819 50.3145 39.1045 50.2477 38.9678 50.1143C38.8343 49.9775 38.7676 49.8001 38.7676 49.582C38.7676 49.3607 38.8343 49.1833 38.9678 49.0498C39.1045 48.9163 39.2819 48.8496 39.5 48.8496C39.7214 48.8496 39.8988 48.9163 40.0322 49.0498C40.1657 49.1833 40.2324 49.3607 40.2324 49.582C40.2324 49.8001 40.1657 49.9775 40.0322 50.1143C39.8988 50.2477 39.7214 50.3145 39.5 50.3145ZM39.5 52.1992C40.3789 52.1992 40.8184 51.3268 40.8184 49.582C40.8184 47.7721 40.3789 46.8672 39.5 46.8672C38.6211 46.8672 38.1816 47.7721 38.1816 49.582C38.1816 51.3268 38.6211 52.1992 39.5 52.1992Z" fill="black"/>
<rect x="32.25" y="42.25" width="14.5" height="14.5" rx="1.75" stroke="black" stroke-width="0.5"/>
<rect x="49.25" y="42.25" width="14.5" height="14.5" rx="1.75" fill="#89D5FF"/>
<path d="M56.0801 53.0977C55.722 53.0977 55.3932 53.0765 55.0938 53.0342C54.7975 52.9919 54.5339 52.9349 54.3027 52.8633L54.4248 51.9307C54.6234 51.986 54.8464 52.0446 55.0938 52.1064C55.3444 52.1683 55.6602 52.1992 56.041 52.1992C56.5488 52.1992 56.9427 52.0983 57.2227 51.8965C57.5026 51.6947 57.6426 51.4115 57.6426 51.0469C57.6426 50.7865 57.5612 50.5651 57.3984 50.3828C57.2389 50.2005 57.0062 50.0622 56.7002 49.9678C56.3942 49.8734 56.0215 49.8262 55.582 49.8262H55.4258L55.3086 49.1914L56.8027 49.3086C57.3561 49.3509 57.8053 49.5316 58.1504 49.8506C58.4954 50.1663 58.668 50.5977 58.668 51.1445C58.668 51.763 58.4417 52.2432 57.9893 52.585C57.54 52.9268 56.9036 53.0977 56.0801 53.0977ZM55.4258 49.8262L55.3086 49.1914C55.8229 49.123 56.2396 49.0221 56.5586 48.8887C56.8809 48.7552 57.1169 48.5941 57.2666 48.4053C57.4196 48.2132 57.4961 48 57.4961 47.7656C57.4961 47.4824 57.4033 47.2627 57.2178 47.1064C57.0355 46.9469 56.7734 46.8672 56.4316 46.8672C56.1842 46.8672 55.9206 46.929 55.6406 47.0527C55.3639 47.1764 55.1019 47.362 54.8545 47.6094L54.1807 46.9404C54.4801 46.6019 54.8268 46.3561 55.2207 46.2031C55.6146 46.0469 56.054 45.9688 56.5391 45.9688C57.1706 45.9688 57.6589 46.1038 58.0039 46.374C58.349 46.641 58.5215 47.0234 58.5215 47.5215C58.5215 47.9382 58.388 48.3011 58.1211 48.6104C57.8542 48.9163 57.5059 49.1263 57.0762 49.2402V49.8262H55.4258Z" fill="black"/>
<rect x="49.25" y="42.25" width="14.5" height="14.5" rx="1.75" stroke="black" stroke-width="0.5"/>
<rect x="66.25" y="42.25" width="14.5" height="14.5" rx="1.75" fill="white"/>
<path d="M73.5 53.0977C71.9245 53.0977 71.1367 51.9258 71.1367 49.582C71.1367 47.1732 71.9245 45.9688 73.5 45.9688C75.0755 45.9688 75.8633 47.1732 75.8633 49.582C75.8633 51.9258 75.0755 53.0977 73.5 53.0977ZM73.5 50.3145C73.2819 50.3145 73.1045 50.2477 72.9678 50.1143C72.8343 49.9775 72.7676 49.8001 72.7676 49.582C72.7676 49.3607 72.8343 49.1833 72.9678 49.0498C73.1045 48.9163 73.2819 48.8496 73.5 48.8496C73.7214 48.8496 73.8988 48.9163 74.0322 49.0498C74.1657 49.1833 74.2324 49.3607 74.2324 49.582C74.2324 49.8001 74.1657 49.9775 74.0322 50.1143C73.8988 50.2477 73.7214 50.3145 73.5 50.3145ZM73.5 52.1992C74.3789 52.1992 74.8184 51.3268 74.8184 49.582C74.8184 47.7721 74.3789 46.8672 73.5 46.8672C72.6211 46.8672 72.1816 47.7721 72.1816 49.582C72.1816 51.3268 72.6211 52.1992 73.5 52.1992Z" fill="black"/>
<rect x="66.25" y="42.25" width="14.5" height="14.5" rx="1.75" stroke="black" stroke-width="0.5"/>
<rect x="83.25" y="42.25" width="14.5" height="14.5" rx="1.75" fill="white"/>
<path d="M90.5 53.0977C88.9245 53.0977 88.1367 51.9258 88.1367 49.582C88.1367 47.1732 88.9245 45.9688 90.5 45.9688C92.0755 45.9688 92.8633 47.1732 92.8633 49.582C92.8633 51.9258 92.0755 53.0977 90.5 53.0977ZM90.5 50.3145C90.2819 50.3145 90.1045 50.2477 89.9678 50.1143C89.8343 49.9775 89.7676 49.8001 89.7676 49.582C89.7676 49.3607 89.8343 49.1833 89.9678 49.0498C90.1045 48.9163 90.2819 48.8496 90.5 48.8496C90.7214 48.8496 90.8988 48.9163 91.0322 49.0498C91.1657 49.1833 91.2324 49.3607 91.2324 49.582C91.2324 49.8001 91.1657 49.9775 91.0322 50.1143C90.8988 50.2477 90.7214 50.3145 90.5 50.3145ZM90.5 52.1992C91.3789 52.1992 91.8184 51.3268 91.8184 49.582C91.8184 47.7721 91.3789 46.8672 90.5 46.8672C89.6211 46.8672 89.1816 47.7721 89.1816 49.582C89.1816 51.3268 89.6211 52.1992 90.5 52.1992Z" fill="black"/>
<rect x="83.25" y="42.25" width="14.5" height="14.5" rx="1.75" stroke="black" stroke-width="0.5"/>
<rect x="100.25" y="42.25" width="14.5" height="14.5" rx="1.75" fill="white"/>
<path d="M105.312 53V51.8867C106.383 51.2943 107.183 50.679 107.71 50.041C108.241 49.3997 108.506 48.7389 108.506 48.0586C108.506 47.6615 108.408 47.3636 108.213 47.165C108.018 46.9665 107.721 46.8672 107.324 46.8672C107.061 46.8672 106.785 46.9437 106.499 47.0967C106.213 47.2497 105.967 47.4531 105.762 47.707L105.088 47.0381C105.312 46.7158 105.632 46.457 106.045 46.2617C106.458 46.0664 106.891 45.9688 107.344 45.9688C108.076 45.9688 108.623 46.1429 108.984 46.4912C109.349 46.8363 109.531 47.3587 109.531 48.0586C109.531 48.7585 109.308 49.4307 108.862 50.0752C108.42 50.7165 107.744 51.3333 106.836 51.9258V53H105.312ZM105.605 53V52.0723H109.824V53H105.605Z" fill="black"/>
<rect x="100.25" y="42.25" width="14.5" height="14.5" rx="1.75" stroke="black" stroke-width="0.5"/>
<rect x="117.25" y="42.25" width="14.5" height="14.5" rx="1.75" fill="#89D5FF"/>
<path d="M124.568 53.0977C123.82 53.0977 123.24 52.9202 122.83 52.5654C122.42 52.2074 122.215 51.7044 122.215 51.0566H123.26C123.26 51.418 123.374 51.6995 123.602 51.9014C123.829 52.0999 124.155 52.1992 124.578 52.1992C124.995 52.1992 125.317 52.0739 125.545 51.8232C125.773 51.5726 125.887 51.2194 125.887 50.7637C125.887 50.3177 125.763 49.9727 125.516 49.7285C125.268 49.4811 124.917 49.3574 124.461 49.3574C124.005 49.3574 123.579 49.4648 123.182 49.6797L123.27 48.8496C123.527 48.7031 123.782 48.6055 124.036 48.5566C124.29 48.5046 124.546 48.4785 124.803 48.4785C125.473 48.4785 125.993 48.6771 126.36 49.0742C126.728 49.4714 126.912 50.0345 126.912 50.7637C126.912 51.2585 126.819 51.68 126.634 52.0283C126.451 52.3766 126.186 52.6419 125.838 52.8242C125.49 53.0065 125.066 53.0977 124.568 53.0977ZM122.635 49.6797L122.732 46.0664H123.777L123.68 49.0742L123.182 49.6797H122.635ZM123.201 46.9746L123.113 46.0664H126.473V46.9746H123.201Z" fill="black"/>
<rect x="117.25" y="42.25" width="14.5" height="14.5" rx="1.75" stroke="black" stroke-width="0.5"/>
<rect x="134.25" y="42.25" width="14.5" height="14.5" rx="1.75" fill="white"/>
<path d="M138.932 51.4473L139.908 46.457H140.963L139.977 51.4473H138.932ZM138.932 51.4473L139.615 50.5391H142.467V51.4473H138.932ZM143.287 51.4473V50.5391H144.039V51.4473H143.287ZM142.369 53V46.0664H143.385V53H142.369Z" fill="black"/>
<rect x="134.25" y="42.25" width="14.5" height="14.5" rx="1.75" stroke="black" stroke-width="0.5"/>
<rect x="151.25" y="42.25" width="14.5" height="14.5" rx="1.75" fill="white"/>
<path d="M158.5 53.0977C156.924 53.0977 156.137 51.9258 156.137 49.582C156.137 47.1732 156.924 45.9688 158.5 45.9688C160.076 45.9688 160.863 47.1732 160.863 49.582C160.863 51.9258 160.076 53.0977 158.5 53.0977ZM158.5 50.3145C158.282 50.3145 158.104 50.2477 157.968 50.1143C157.834 49.9775 157.768 49.8001 157.768 49.582C157.768 49.3607 157.834 49.1833 157.968 49.0498C158.104 48.9163 158.282 48.8496 158.5 48.8496C158.721 48.8496 158.899 48.9163 159.032 49.0498C159.166 49.1833 159.232 49.3607 159.232 49.582C159.232 49.8001 159.166 49.9775 159.032 50.1143C158.899 50.2477 158.721 50.3145 158.5 50.3145ZM158.5 52.1992C159.379 52.1992 159.818 51.3268 159.818 49.582C159.818 47.7721 159.379 46.8672 158.5 46.8672C157.621 46.8672 157.182 47.7721 157.182 49.582C157.182 51.3268 157.621 52.1992 158.5 52.1992Z" fill="black"/>
<rect x="151.25" y="42.25" width="14.5" height="14.5" rx="1.75" stroke="black" stroke-width="0.5"/>
<rect x="168.25" y="42.25" width="14.5" height="14.5" rx="1.75" fill="white"/>
<path d="M175.5 53.0977C173.924 53.0977 173.137 51.9258 173.137 49.582C173.137 47.1732 173.924 45.9688 175.5 45.9688C177.076 45.9688 177.863 47.1732 177.863 49.582C177.863 51.9258 177.076 53.0977 175.5 53.0977ZM175.5 50.3145C175.282 50.3145 175.104 50.2477 174.968 50.1143C174.834 49.9775 174.768 49.8001 174.768 49.582C174.768 49.3607 174.834 49.1833 174.968 49.0498C175.104 48.9163 175.282 48.8496 175.5 48.8496C175.721 48.8496 175.899 48.9163 176.032 49.0498C176.166 49.1833 176.232 49.3607 176.232 49.582C176.232 49.8001 176.166 49.9775 176.032 50.1143C175.899 50.2477 175.721 50.3145 175.5 50.3145ZM175.5 52.1992C176.379 52.1992 176.818 51.3268 176.818 49.582C176.818 47.7721 176.379 46.8672 175.5 46.8672C174.621 46.8672 174.182 47.7721 174.182 49.582C174.182 51.3268 174.621 52.1992 175.5 52.1992Z" fill="black"/>
<rect x="168.25" y="42.25" width="14.5" height="14.5" rx="1.75" stroke="black" stroke-width="0.5"/>
<rect x="6.25" y="24.25" width="14.5" height="14.5" rx="1.75" fill="#F2F2F2"/>
<path d="M13.5 35.0977C13.3014 35.0977 13.1305 35.0277 12.9873 34.8877C12.8473 34.7445 12.7773 34.5736 12.7773 34.375C12.7773 34.1732 12.8473 34.0023 12.9873 33.8623C13.1305 33.7223 13.3014 33.6523 13.5 33.6523C13.7018 33.6523 13.8727 33.7223 14.0127 33.8623C14.1527 34.0023 14.2227 34.1732 14.2227 34.375C14.2227 34.5736 14.1527 34.7445 14.0127 34.8877C13.8727 35.0277 13.7018 35.0977 13.5 35.0977Z" fill="black"/>
<rect x="6.25" y="24.25" width="14.5" height="14.5" rx="1.75" stroke="black" stroke-width="0.5"/>
<rect x="176.25" y="24.25" width="14.5" height="14.5" rx="1.75" fill="#F2F2F2"/>
<path d="M183.5 35.0977C183.301 35.0977 183.131 35.0277 182.987 34.8877C182.847 34.7445 182.777 34.5736 182.777 34.375C182.777 34.1732 182.847 34.0023 182.987 33.8623C183.131 33.7223 183.301 33.6523 183.5 33.6523C183.702 33.6523 183.873 33.7223 184.013 33.8623C184.153 34.0023 184.223 34.1732 184.223 34.375C184.223 34.5736 184.153 34.7445 184.013 34.8877C183.873 35.0277 183.702 35.0977 183.5 35.0977Z" fill="black"/>
<rect x="176.25" y="24.25" width="14.5" height="14.5" rx="1.75" stroke="black" stroke-width="0.5"/>
<rect x="40.25" y="24.25" width="14.5" height="14.5" rx="1.75" fill="#F2F2F2"/>
<path d="M44.9365 37.3438L44.8877 36.416L45.6982 36.3184C46.04 36.276 46.3314 36.1833 46.5723 36.04C46.8164 35.8968 47.0247 35.6836 47.1973 35.4004C47.3698 35.1204 47.5212 34.7526 47.6514 34.2969L48.9404 29.8242H50.0146L48.5205 34.541C48.3252 35.1595 48.1055 35.6576 47.8613 36.0352C47.6204 36.4128 47.334 36.696 47.002 36.8848C46.6732 37.0736 46.2777 37.194 45.8154 37.2461L44.9365 37.3438ZM46.8994 35L44.8389 29.8242H45.9131L47.6025 34.2188H47.7588V35H46.8994Z" fill="black"/>
<rect x="40.25" y="24.25" width="14.5" height="14.5" rx="1.75" stroke="black" stroke-width="0.5"/>
<rect x="57.25" y="24.25" width="14.5" height="14.5" rx="1.75" fill="#F2F2F2"/>
<path d="M62.3906 37.2461V29.8242H63.3281L63.4258 30.918V37.2461H62.3906ZM64.8955 35.0977C64.4984 35.0977 64.1777 35.0065 63.9336 34.8242C63.6927 34.6419 63.556 34.388 63.5234 34.0625H63.0742L63.4258 32.5879C63.4258 33.1217 63.5299 33.527 63.7383 33.8037C63.9499 34.0804 64.2591 34.2188 64.666 34.2188C65.0827 34.2188 65.3984 34.0706 65.6133 33.7744C65.8281 33.4782 65.9355 33.0404 65.9355 32.4609C65.9355 31.849 65.8281 31.3867 65.6133 31.0742C65.3984 30.7617 65.0827 30.6055 64.666 30.6055C64.2591 30.6055 63.9499 30.7438 63.7383 31.0205C63.5299 31.2972 63.4258 31.7025 63.4258 32.2363L63.0742 30.7617H63.4746C63.5202 30.4362 63.6667 30.1823 63.9141 30C64.1647 29.8177 64.4919 29.7266 64.8955 29.7266C65.5758 29.7266 66.0902 29.9577 66.4385 30.4199C66.7868 30.8822 66.9609 31.5625 66.9609 32.4609C66.9609 33.3268 66.7868 33.9827 66.4385 34.4287C66.0902 34.8747 65.5758 35.0977 64.8955 35.0977Z" fill="black"/>
<rect x="57.25" y="24.25" width="14.5" height="14.5" rx="1.75" stroke="black" stroke-width="0.5"/>
<rect x="74.25" y="24.25" width="14.5" height="14.5" rx="1.75" fill="#F2F2F2"/>
<path d="M82.5742 35V31.6309C82.5742 31.3021 82.4928 31.0498 82.3301 30.874C82.1673 30.695 81.9395 30.6055 81.6465 30.6055C80.8327 30.6055 80.4258 31.1003 80.4258 32.0898L80.123 30.7617H80.5234C80.5527 30.4134 80.6797 30.1546 80.9043 29.9854C81.1289 29.8128 81.4577 29.7266 81.8906 29.7266C82.4375 29.7266 82.8607 29.8926 83.1602 30.2246C83.4596 30.5566 83.6094 31.0254 83.6094 31.6309V35H82.5742ZM79.3906 35V27.6758H80.4258V35H79.3906Z" fill="black"/>
<rect x="74.25" y="24.25" width="14.5" height="14.5" rx="1.75" stroke="black" stroke-width="0.5"/>
<rect x="91.25" y="24.25" width="14.5" height="14.5" rx="1.75" fill="#F2F2F2"/>
<path d="M98.9492 35.0977C98.0671 35.0977 97.3851 34.8665 96.9033 34.4043C96.4248 33.9388 96.1855 33.2715 96.1855 32.4023C96.1855 31.556 96.389 30.8984 96.7959 30.4297C97.2028 29.9609 97.7773 29.7266 98.5195 29.7266C99.2194 29.7266 99.7598 29.9382 100.141 30.3613C100.525 30.7845 100.717 31.3997 100.717 32.207C100.717 32.4447 100.707 32.666 100.688 32.8711H97.0547V32.0801H99.7793C99.7793 31.6146 99.6686 31.2581 99.4473 31.0107C99.2259 30.7601 98.9199 30.6348 98.5293 30.6348C98.0898 30.6348 97.748 30.7845 97.5039 31.084C97.263 31.3835 97.1426 31.8066 97.1426 32.3535C97.1426 32.9525 97.3086 33.4082 97.6406 33.7207C97.9759 34.0332 98.4512 34.1895 99.0664 34.1895C99.2812 34.1895 99.4928 34.1781 99.7012 34.1553C99.9095 34.1292 100.121 34.0951 100.336 34.0527L100.463 34.9609C100.157 35.0195 99.877 35.057 99.623 35.0732C99.3691 35.0895 99.1445 35.0977 98.9492 35.0977Z" fill="black"/>
<rect x="91.25" y="24.25" width="14.5" height="14.5" rx="1.75" stroke="black" stroke-width="0.5"/>
<rect x="108.25" y="24.25" width="14.5" height="14.5" rx="1.75" fill="#F2F2F2"/>
<path d="M116.574 35V31.6309C116.574 31.3184 116.493 31.0775 116.33 30.9082C116.167 30.7389 115.939 30.6543 115.646 30.6543C114.833 30.6543 114.426 31.1328 114.426 32.0898L114.123 30.7617H114.523C114.553 30.4134 114.68 30.1546 114.904 29.9854C115.129 29.8128 115.458 29.7266 115.891 29.7266C116.438 29.7266 116.861 29.8926 117.16 30.2246C117.46 30.5566 117.609 31.0254 117.609 31.6309V35H116.574ZM113.391 35V29.8242H114.328L114.426 30.918V35H113.391Z" fill="black"/>
<rect x="108.25" y="24.25" width="14.5" height="14.5" rx="1.75" stroke="black" stroke-width="0.5"/>
<rect x="125.25" y="24.25" width="14.5" height="14.5" rx="1.75" fill="#F2F2F2"/>
<path d="M133.564 35.0488L133.496 33.5156L133.359 33.0859V31.748C133.359 31.403 133.237 31.1507 132.993 30.9912C132.752 30.8285 132.393 30.7406 131.914 30.7275L130.674 30.6934L130.771 29.7754L131.816 29.79C132.673 29.8031 133.307 29.9886 133.721 30.3467C134.137 30.7015 134.346 31.2207 134.346 31.9043V34.0625L135.225 34.1699V35L133.564 35.0488ZM131.738 35.0977C131.198 35.0977 130.78 34.9674 130.483 34.707C130.187 34.4466 130.039 34.0788 130.039 33.6035C130.039 33.0566 130.243 32.6367 130.649 32.3438C131.06 32.0508 131.637 31.9043 132.383 31.9043C132.692 31.9043 132.967 31.9238 133.208 31.9629C133.452 31.9987 133.669 32.054 133.857 32.1289L133.643 32.832C133.424 32.7832 133.211 32.7555 133.003 32.749C132.795 32.7393 132.581 32.7344 132.363 32.7344C131.465 32.7344 131.016 33.0078 131.016 33.5547C131.016 33.7826 131.092 33.9583 131.245 34.082C131.401 34.2057 131.621 34.2676 131.904 34.2676C132.227 34.2676 132.495 34.2122 132.71 34.1016C132.928 33.9909 133.091 33.8493 133.198 33.6768C133.306 33.5042 133.359 33.3268 133.359 33.1445V32.5781L133.662 33.9062H133.252L133.418 33.75C133.418 34.0495 133.348 34.3001 133.208 34.502C133.071 34.7005 132.878 34.8503 132.627 34.9512C132.376 35.0488 132.08 35.0977 131.738 35.0977Z" fill="black"/>
<rect x="125.25" y="24.25" width="14.5" height="14.5" rx="1.75" stroke="black" stroke-width="0.5"/>
<rect x="142.25" y="24.25" width="14.5" height="14.5" rx="1.75" fill="#F2F2F2"/>
<path d="M150.438 35.0977C149.653 35.0977 149.085 34.9349 148.733 34.6094C148.385 34.2839 148.211 33.763 148.211 33.0469V32.168H149.246V32.998C149.246 33.4082 149.345 33.7061 149.544 33.8916C149.746 34.0771 150.076 34.1699 150.535 34.1699C150.698 34.1699 150.87 34.1618 151.053 34.1455C151.235 34.126 151.443 34.1016 151.678 34.0723L151.795 34.9805C151.567 35.0195 151.344 35.0488 151.126 35.0684C150.911 35.0879 150.682 35.0977 150.438 35.0977ZM148.211 32.5586V28.2617H149.246V32.5586H148.211ZM146.912 30.7324V29.8242H151.6V30.7324H146.912Z" fill="black"/>
<rect x="142.25" y="24.25" width="14.5" height="14.5" rx="1.75" stroke="black" stroke-width="0.5"/>
<rect x="159.25" y="24.25" width="14.5" height="14.5" rx="1.75" fill="#F2F2F2"/>
<path d="M166.949 35.0977C166.067 35.0977 165.385 34.8665 164.903 34.4043C164.425 33.9388 164.186 33.2715 164.186 32.4023C164.186 31.556 164.389 30.8984 164.796 30.4297C165.203 29.9609 165.777 29.7266 166.52 29.7266C167.219 29.7266 167.76 29.9382 168.141 30.3613C168.525 30.7845 168.717 31.3997 168.717 32.207C168.717 32.4447 168.707 32.666 168.688 32.8711H165.055V32.0801H167.779C167.779 31.6146 167.669 31.2581 167.447 31.0107C167.226 30.7601 166.92 30.6348 166.529 30.6348C166.09 30.6348 165.748 30.7845 165.504 31.084C165.263 31.3835 165.143 31.8066 165.143 32.3535C165.143 32.9525 165.309 33.4082 165.641 33.7207C165.976 34.0332 166.451 34.1895 167.066 34.1895C167.281 34.1895 167.493 34.1781 167.701 34.1553C167.91 34.1292 168.121 34.0951 168.336 34.0527L168.463 34.9609C168.157 35.0195 167.877 35.057 167.623 35.0732C167.369 35.0895 167.145 35.0977 166.949 35.0977Z" fill="black"/>
<rect x="159.25" y="24.25" width="14.5" height="14.5" rx="1.75" stroke="black" stroke-width="0.5"/>
<path d="M70.2773 15V11.6309C70.2773 11.3021 70.196 11.0498 70.0332 10.874C69.8704 10.695 69.6426 10.6055 69.3496 10.6055C68.5358 10.6055 68.1289 11.1003 68.1289 12.0898L67.8262 10.7617H68.2266C68.2559 10.4134 68.3828 10.1546 68.6074 9.98535C68.832 9.81283 69.1608 9.72656 69.5938 9.72656C70.1406 9.72656 70.5638 9.89258 70.8633 10.2246C71.1628 10.5566 71.3125 11.0254 71.3125 11.6309V15H70.2773ZM67.0938 15V7.67578H68.1289V15H67.0938ZM72.499 17.3438L72.4502 16.416L73.2607 16.3184C73.6025 16.276 73.8939 16.1833 74.1348 16.04C74.3789 15.8968 74.5872 15.6836 74.7598 15.4004C74.9323 15.1204 75.0837 14.7526 75.2139 14.2969L76.5029 9.82422H77.5771L76.083 14.541C75.8877 15.1595 75.668 15.6576 75.4238 16.0352C75.1829 16.4128 74.8965 16.696 74.5645 16.8848C74.2357 17.0736 73.8402 17.194 73.3779 17.2461L72.499 17.3438ZM74.4619 15L72.4014 9.82422H73.4756L75.165 14.2188H75.3213V15H74.4619ZM78.4805 11.9922V11.084H83.3633V11.9922H78.4805ZM84.6719 17.2461V9.82422H85.6094L85.707 10.918V17.2461H84.6719ZM87.1768 15.0977C86.7796 15.0977 86.459 15.0065 86.2148 14.8242C85.974 14.6419 85.8372 14.388 85.8047 14.0625H85.3555L85.707 12.5879C85.707 13.1217 85.8112 13.527 86.0195 13.8037C86.2311 14.0804 86.5404 14.2188 86.9473 14.2188C87.3639 14.2188 87.6797 14.0706 87.8945 13.7744C88.1094 13.4782 88.2168 13.0404 88.2168 12.4609C88.2168 11.849 88.1094 11.3867 87.8945 11.0742C87.6797 10.7617 87.3639 10.6055 86.9473 10.6055C86.5404 10.6055 86.2311 10.7438 86.0195 11.0205C85.8112 11.2972 85.707 11.7025 85.707 12.2363L85.3555 10.7617H85.7559C85.8014 10.4362 85.9479 10.1823 86.1953 10C86.446 9.81771 86.7731 9.72656 87.1768 9.72656C87.8571 9.72656 88.3714 9.95768 88.7197 10.4199C89.068 10.8822 89.2422 11.5625 89.2422 12.4609C89.2422 13.3268 89.068 13.9827 88.7197 14.4287C88.3714 14.8747 87.8571 15.0977 87.1768 15.0977ZM93.7148 15V11.6309C93.7148 11.3021 93.6335 11.0498 93.4707 10.874C93.3079 10.695 93.0801 10.6055 92.7871 10.6055C91.9733 10.6055 91.5664 11.1003 91.5664 12.0898L91.2637 10.7617H91.6641C91.6934 10.4134 91.8203 10.1546 92.0449 9.98535C92.2695 9.81283 92.5983 9.72656 93.0312 9.72656C93.5781 9.72656 94.0013 9.89258 94.3008 10.2246C94.6003 10.5566 94.75 11.0254 94.75 11.6309V15H93.7148ZM90.5312 15V7.67578H91.5664V15H90.5312ZM98.9492 15.0977C98.0671 15.0977 97.3851 14.8665 96.9033 14.4043C96.4248 13.9388 96.1855 13.2715 96.1855 12.4023C96.1855 11.556 96.389 10.8984 96.7959 10.4297C97.2028 9.96094 97.7773 9.72656 98.5195 9.72656C99.2194 9.72656 99.7598 9.93815 100.141 10.3613C100.525 10.7845 100.717 11.3997 100.717 12.207C100.717 12.4447 100.707 12.666 100.688 12.8711H97.0547V12.0801H99.7793C99.7793 11.6146 99.6686 11.2581 99.4473 11.0107C99.2259 10.7601 98.9199 10.6348 98.5293 10.6348C98.0898 10.6348 97.748 10.7845 97.5039 11.084C97.263 11.3835 97.1426 11.8066 97.1426 12.3535C97.1426 12.9525 97.3086 13.4082 97.6406 13.7207C97.9759 14.0332 98.4512 14.1895 99.0664 14.1895C99.2812 14.1895 99.4928 14.1781 99.7012 14.1553C99.9095 14.1292 100.121 14.0951 100.336 14.0527L100.463 14.9609C100.157 15.0195 99.877 15.057 99.623 15.0732C99.3691 15.0895 99.1445 15.0977 98.9492 15.0977ZM105.434 15V11.6309C105.434 11.3184 105.352 11.0775 105.189 10.9082C105.027 10.7389 104.799 10.6543 104.506 10.6543C103.692 10.6543 103.285 11.1328 103.285 12.0898L102.982 10.7617H103.383C103.412 10.4134 103.539 10.1546 103.764 9.98535C103.988 9.81283 104.317 9.72656 104.75 9.72656C105.297 9.72656 105.72 9.89258 106.02 10.2246C106.319 10.5566 106.469 11.0254 106.469 11.6309V15H105.434ZM102.25 15V9.82422H103.188L103.285 10.918V15H102.25ZM107.777 11.9922V11.084H112.66V11.9922H107.777ZM117.143 15.0488L117.074 13.5156L116.938 13.0859V11.748C116.938 11.403 116.815 11.1507 116.571 10.9912C116.33 10.8285 115.971 10.7406 115.492 10.7275L114.252 10.6934L114.35 9.77539L115.395 9.79004C116.251 9.80306 116.885 9.98861 117.299 10.3467C117.715 10.7015 117.924 11.2207 117.924 11.9043V14.0625L118.803 14.1699V15L117.143 15.0488ZM115.316 15.0977C114.776 15.0977 114.358 14.9674 114.062 14.707C113.765 14.4466 113.617 14.0788 113.617 13.6035C113.617 13.0566 113.821 12.6367 114.228 12.3438C114.638 12.0508 115.215 11.9043 115.961 11.9043C116.27 11.9043 116.545 11.9238 116.786 11.9629C117.03 11.9987 117.247 12.054 117.436 12.1289L117.221 12.832C117.003 12.7832 116.789 12.7555 116.581 12.749C116.373 12.7393 116.16 12.7344 115.941 12.7344C115.043 12.7344 114.594 13.0078 114.594 13.5547C114.594 13.7826 114.67 13.9583 114.823 14.082C114.979 14.2057 115.199 14.2676 115.482 14.2676C115.805 14.2676 116.073 14.2122 116.288 14.1016C116.506 13.9909 116.669 13.8493 116.776 13.6768C116.884 13.5042 116.938 13.3268 116.938 13.1445V12.5781L117.24 13.9062H116.83L116.996 13.75C116.996 14.0495 116.926 14.3001 116.786 14.502C116.649 14.7005 116.456 14.8503 116.205 14.9512C115.954 15.0488 115.658 15.0977 115.316 15.0977ZM122.875 15.0977C122.09 15.0977 121.522 14.9349 121.171 14.6094C120.823 14.2839 120.648 13.763 120.648 13.0469V12.168H121.684V12.998C121.684 13.4082 121.783 13.7061 121.981 13.8916C122.183 14.0771 122.514 14.1699 122.973 14.1699C123.135 14.1699 123.308 14.1618 123.49 14.1455C123.673 14.126 123.881 14.1016 124.115 14.0723L124.232 14.9805C124.005 15.0195 123.782 15.0488 123.563 15.0684C123.349 15.0879 123.119 15.0977 122.875 15.0977ZM120.648 12.5586V8.26172H121.684V12.5586H120.648ZM119.35 10.7324V9.82422H124.037V10.7324H119.35ZM128.246 15.0977C127.364 15.0977 126.682 14.8665 126.2 14.4043C125.722 13.9388 125.482 13.2715 125.482 12.4023C125.482 11.556 125.686 10.8984 126.093 10.4297C126.5 9.96094 127.074 9.72656 127.816 9.72656C128.516 9.72656 129.057 9.93815 129.438 10.3613C129.822 10.7845 130.014 11.3997 130.014 12.207C130.014 12.4447 130.004 12.666 129.984 12.8711H126.352V12.0801H129.076C129.076 11.6146 128.965 11.2581 128.744 11.0107C128.523 10.7601 128.217 10.6348 127.826 10.6348C127.387 10.6348 127.045 10.7845 126.801 11.084C126.56 11.3835 126.439 11.8066 126.439 12.3535C126.439 12.9525 126.605 13.4082 126.938 13.7207C127.273 14.0332 127.748 14.1895 128.363 14.1895C128.578 14.1895 128.79 14.1781 128.998 14.1553C129.206 14.1292 129.418 14.0951 129.633 14.0527L129.76 14.9609C129.454 15.0195 129.174 15.057 128.92 15.0732C128.666 15.0895 128.441 15.0977 128.246 15.0977Z" fill="black"/>
<path d="M105 60.6V60.85H105.25V60.6H105ZM105.177 56.8232C105.079 56.7256 104.921 56.7256 104.823 56.8232L103.232 58.4142C103.135 58.5118 103.135 58.6701 103.232 58.7678C103.33 58.8654 103.488 58.8654 103.586 58.7678L105 57.3536L106.414 58.7678C106.512 58.8654 106.67 58.8654 106.768 58.7678C106.865 58.6701 106.865 58.5118 106.768 58.4142L105.177 56.8232ZM95 60.6V60.35H94.75V60.6H95ZM105.25 60.6V57H104.75V60.6H105.25ZM95.25 69V60.6H94.75V69H95.25ZM95 60.85H105V60.35H95V60.85Z" fill="black"/>
<path d="M145 60V60.25H144.75V60H145ZM144.823 56.8232C144.921 56.7256 145.079 56.7256 145.177 56.8232L146.768 58.4142C146.865 58.5118 146.865 58.6701 146.768 58.7678C146.67 58.8654 146.512 58.8654 146.414 58.7678L145 57.3536L143.586 58.7678C143.488 58.8654 143.33 58.8654 143.232 58.7678C143.135 58.6701 143.135 58.5118 143.232 58.4142L144.823 56.8232ZM171 60V59.75H171.25V60H171ZM144.75 60V57H145.25V60H144.75ZM170.75 67V60H171.25V67H170.75ZM171 60.25H145V59.75H171V60.25Z" fill="black"/>
<path d="M140 79V79.25H139.75V79H140ZM139.823 56.8232C139.921 56.7256 140.079 56.7256 140.177 56.8232L141.768 58.4142C141.865 58.5118 141.865 58.6701 141.768 58.7678C141.67 58.8654 141.512 58.8654 141.414 58.7678L140 57.3536L138.586 58.7678C138.488 58.8654 138.33 58.8654 138.232 58.7678C138.135 58.6701 138.135 58.5118 138.232 58.4142L139.823 56.8232ZM170 79V78.75H170.25V79H170ZM139.75 79V57H140.25V79H139.75ZM169.75 83V79H170.25V83H169.75ZM170 79.25H140V78.75H170V79.25Z" fill="black"/>
<path d="M127 68.7V68.95H126.75V68.7H127ZM126.823 56.8232C126.921 56.7256 127.079 56.7256 127.177 56.8232L128.768 58.4142C128.865 58.5118 128.865 58.6701 128.768 58.7678C128.67 58.8654 128.512 58.8654 128.414 58.7678L127 57.3536L125.586 58.7678C125.488 58.8654 125.33 58.8654 125.232 58.7678C125.135 58.6701 125.135 58.5118 125.232 58.4142L126.823 56.8232ZM135 68.7V68.45H135.25V68.7H135ZM126.75 68.7V57H127.25V68.7H126.75ZM134.75 96V68.7H135.25V96H134.75ZM135 68.95H127V68.45H135V68.95Z" fill="black"/>
<path d="M110 83.5V83.75H110.25V83.5H110ZM110.177 56.8232C110.079 56.7256 109.921 56.7256 109.823 56.8232L108.232 58.4142C108.135 58.5118 108.135 58.6701 108.232 58.7678C108.33 58.8654 108.488 58.8654 108.586 58.7678L110 57.3536L111.414 58.7678C111.512 58.8654 111.67 58.8654 111.768 58.7678C111.865 58.6701 111.865 58.5118 111.768 58.4142L110.177 56.8232ZM97 83.5V83.25H96.75V83.5H97ZM110.25 83.5V57H109.75V83.5H110.25ZM97.25 89V83.5H96.75V89H97.25ZM97 83.75H110V83.25H97V83.75Z" fill="black"/>
<path d="M57.1768 56.8232C57.0791 56.7256 56.9209 56.7256 56.8232 56.8232L55.2322 58.4142C55.1346 58.5118 55.1346 58.6701 55.2322 58.7678C55.3299 58.8654 55.4882 58.8654 55.5858 58.7678L57 57.3536L58.4142 58.7678C58.5118 58.8654 58.6701 58.8654 58.7678 58.7678C58.8654 58.6701 58.8654 58.5118 58.7678 58.4142L57.1768 56.8232ZM57.25 72V57H56.75V72H57.25Z" fill="black"/>
<path d="M122.177 56.8232C122.079 56.7256 121.921 56.7256 121.823 56.8232L120.232 58.4142C120.135 58.5118 120.135 58.6701 120.232 58.7678C120.33 58.8654 120.488 58.8654 120.586 58.7678L122 57.3536L123.414 58.7678C123.512 58.8654 123.67 58.8654 123.768 58.7678C123.865 58.6701 123.865 58.5118 123.768 58.4142L122.177 56.8232ZM122.25 107L122.25 57L121.75 57L121.75 107L122.25 107Z" fill="black"/>
<path d="M168.361 73.4473L169.338 68.457H170.393L169.406 73.4473H168.361ZM168.361 73.4473L169.045 72.5391H171.896V73.4473H168.361ZM172.717 73.4473V72.5391H173.469V73.4473H172.717ZM171.799 75V68.0664H172.814V75H171.799ZM177.727 75.0977C176.942 75.0977 176.374 74.9349 176.022 74.6094C175.674 74.2839 175.5 73.763 175.5 73.0469V72.168H176.535V72.998C176.535 73.4082 176.634 73.7061 176.833 73.8916C177.035 74.0771 177.365 74.1699 177.824 74.1699C177.987 74.1699 178.16 74.1618 178.342 74.1455C178.524 74.126 178.732 74.1016 178.967 74.0723L179.084 74.9805C178.856 75.0195 178.633 75.0488 178.415 75.0684C178.2 75.0879 177.971 75.0977 177.727 75.0977ZM175.5 72.5586V68.2617H176.535V72.5586H175.5ZM174.201 70.7324V69.8242H178.889V70.7324H174.201ZM183.098 75.0977C182.215 75.0977 181.534 74.8665 181.052 74.4043C180.573 73.9388 180.334 73.2715 180.334 72.4023C180.334 71.556 180.537 70.8984 180.944 70.4297C181.351 69.9609 181.926 69.7266 182.668 69.7266C183.368 69.7266 183.908 69.9382 184.289 70.3613C184.673 70.7845 184.865 71.3997 184.865 72.207C184.865 72.4447 184.855 72.666 184.836 72.8711H181.203V72.0801H183.928C183.928 71.6146 183.817 71.2581 183.596 71.0107C183.374 70.7601 183.068 70.6348 182.678 70.6348C182.238 70.6348 181.896 70.7845 181.652 71.084C181.411 71.3835 181.291 71.8066 181.291 72.3535C181.291 72.9525 181.457 73.4082 181.789 73.7207C182.124 74.0332 182.6 74.1895 183.215 74.1895C183.43 74.1895 183.641 74.1781 183.85 74.1553C184.058 74.1292 184.27 74.0951 184.484 74.0527L184.611 74.9609C184.305 75.0195 184.025 75.057 183.771 75.0732C183.518 75.0895 183.293 75.0977 183.098 75.0977ZM188.508 75.0977C188.309 75.0977 188.138 75.0277 187.995 74.8877C187.855 74.7445 187.785 74.5736 187.785 74.375C187.785 74.1732 187.855 74.0023 187.995 73.8623C188.138 73.7223 188.309 73.6523 188.508 73.6523C188.71 73.6523 188.881 73.7223 189.021 73.8623C189.16 74.0023 189.23 74.1732 189.23 74.375C189.23 74.5736 189.16 74.7445 189.021 74.8877C188.881 75.0277 188.71 75.0977 188.508 75.0977Z" fill="black"/>
<path d="M168 75.7324H173.859V76.2207H168V75.7324Z" fill="black"/>
<path d="M130.004 105V101.631C130.004 101.318 129.923 101.077 129.76 100.908C129.597 100.739 129.369 100.654 129.076 100.654C128.262 100.654 127.855 101.133 127.855 102.09L127.553 100.762H127.953C127.982 100.413 128.109 100.155 128.334 99.9854C128.559 99.8128 128.887 99.7266 129.32 99.7266C129.867 99.7266 130.29 99.8926 130.59 100.225C130.889 100.557 131.039 101.025 131.039 101.631V105H130.004ZM126.82 105V99.8242H127.758L127.855 100.918V105H126.82ZM132.602 105V103.887C133.673 103.294 134.472 102.679 134.999 102.041C135.53 101.4 135.795 100.739 135.795 100.059C135.795 99.6615 135.697 99.3636 135.502 99.165C135.307 98.9665 135.01 98.8672 134.613 98.8672C134.35 98.8672 134.075 98.9437 133.788 99.0967C133.502 99.2497 133.256 99.4531 133.051 99.707L132.377 99.0381C132.602 98.7158 132.921 98.457 133.334 98.2617C133.747 98.0664 134.18 97.9688 134.633 97.9688C135.365 97.9688 135.912 98.1429 136.273 98.4912C136.638 98.8363 136.82 99.3587 136.82 100.059C136.82 100.758 136.597 101.431 136.151 102.075C135.709 102.716 135.033 103.333 134.125 103.926V105H132.602ZM132.895 105V104.072H137.113V105H132.895ZM141.713 105.049L141.645 103.516L141.508 103.086V101.748C141.508 101.403 141.386 101.151 141.142 100.991C140.901 100.828 140.541 100.741 140.062 100.728L138.822 100.693L138.92 99.7754L139.965 99.79C140.821 99.8031 141.456 99.9886 141.869 100.347C142.286 100.701 142.494 101.221 142.494 101.904V104.062L143.373 104.17V105L141.713 105.049ZM139.887 105.098C139.346 105.098 138.928 104.967 138.632 104.707C138.336 104.447 138.188 104.079 138.188 103.604C138.188 103.057 138.391 102.637 138.798 102.344C139.208 102.051 139.786 101.904 140.531 101.904C140.84 101.904 141.116 101.924 141.356 101.963C141.601 101.999 141.817 102.054 142.006 102.129L141.791 102.832C141.573 102.783 141.36 102.756 141.151 102.749C140.943 102.739 140.73 102.734 140.512 102.734C139.613 102.734 139.164 103.008 139.164 103.555C139.164 103.783 139.241 103.958 139.394 104.082C139.55 104.206 139.77 104.268 140.053 104.268C140.375 104.268 140.644 104.212 140.858 104.102C141.076 103.991 141.239 103.849 141.347 103.677C141.454 103.504 141.508 103.327 141.508 103.145V102.578L141.811 103.906H141.4L141.566 103.75C141.566 104.049 141.496 104.3 141.356 104.502C141.22 104.701 141.026 104.85 140.775 104.951C140.525 105.049 140.229 105.098 139.887 105.098ZM147.445 105.098C146.661 105.098 146.093 104.935 145.741 104.609C145.393 104.284 145.219 103.763 145.219 103.047V102.168H146.254V102.998C146.254 103.408 146.353 103.706 146.552 103.892C146.754 104.077 147.084 104.17 147.543 104.17C147.706 104.17 147.878 104.162 148.061 104.146C148.243 104.126 148.451 104.102 148.686 104.072L148.803 104.98C148.575 105.02 148.352 105.049 148.134 105.068C147.919 105.088 147.689 105.098 147.445 105.098ZM145.219 102.559V98.2617H146.254V102.559H145.219ZM143.92 100.732V99.8242H148.607V100.732H143.92Z" fill="black"/>
<path d="M96.5684 98V91.0664H97.584V98H96.5684ZM94.8301 98V97.0723H96.666V98H94.8301ZM97.4863 98V97.0723H99.1367V98H97.4863ZM94.9277 92.6387V91.6523L96.5684 91.0664V92.0723L94.9277 92.6387ZM103.863 98V94.6309C103.863 94.3184 103.782 94.0775 103.619 93.9082C103.456 93.7389 103.229 93.6543 102.936 93.6543C102.122 93.6543 101.715 94.1328 101.715 95.0898L101.412 93.7617H101.812C101.842 93.4134 101.969 93.1546 102.193 92.9854C102.418 92.8128 102.747 92.7266 103.18 92.7266C103.727 92.7266 104.15 92.8926 104.449 93.2246C104.749 93.5566 104.898 94.0254 104.898 94.6309V98H103.863ZM100.68 98V92.8242H101.617L101.715 93.918V98H100.68ZM109.713 98.0488L109.645 96.5156L109.508 96.0859V94.748C109.508 94.403 109.386 94.1507 109.142 93.9912C108.901 93.8285 108.541 93.7406 108.062 93.7275L106.822 93.6934L106.92 92.7754L107.965 92.79C108.821 92.8031 109.456 92.9886 109.869 93.3467C110.286 93.7015 110.494 94.2207 110.494 94.9043V97.0625L111.373 97.1699V98L109.713 98.0488ZM107.887 98.0977C107.346 98.0977 106.928 97.9674 106.632 97.707C106.336 97.4466 106.188 97.0788 106.188 96.6035C106.188 96.0566 106.391 95.6367 106.798 95.3438C107.208 95.0508 107.786 94.9043 108.531 94.9043C108.84 94.9043 109.116 94.9238 109.356 94.9629C109.601 94.9987 109.817 95.054 110.006 95.1289L109.791 95.832C109.573 95.7832 109.36 95.7555 109.151 95.749C108.943 95.7393 108.73 95.7344 108.512 95.7344C107.613 95.7344 107.164 96.0078 107.164 96.5547C107.164 96.7826 107.241 96.9583 107.394 97.082C107.55 97.2057 107.77 97.2676 108.053 97.2676C108.375 97.2676 108.644 97.2122 108.858 97.1016C109.076 96.9909 109.239 96.8493 109.347 96.6768C109.454 96.5042 109.508 96.3268 109.508 96.1445V95.5781L109.811 96.9062H109.4L109.566 96.75C109.566 97.0495 109.496 97.3001 109.356 97.502C109.22 97.7005 109.026 97.8503 108.775 97.9512C108.525 98.0488 108.229 98.0977 107.887 98.0977Z" fill="black"/>
<path d="M46.0039 81V77.6309C46.0039 77.3021 45.9225 77.0498 45.7598 76.874C45.597 76.695 45.3691 76.6055 45.0762 76.6055C44.2624 76.6055 43.8555 77.1003 43.8555 78.0898L43.5527 76.7617H43.9531C43.9824 76.4134 44.1094 76.1546 44.334 75.9854C44.5586 75.8128 44.8874 75.7266 45.3203 75.7266C45.8672 75.7266 46.2904 75.8926 46.5898 76.2246C46.8893 76.5566 47.0391 77.0254 47.0391 77.6309V81H46.0039ZM42.8203 81V73.6758H43.8555V81H42.8203ZM48.2256 83.3438L48.1768 82.416L48.9873 82.3184C49.3291 82.276 49.6204 82.1833 49.8613 82.04C50.1055 81.8968 50.3138 81.6836 50.4863 81.4004C50.6589 81.1204 50.8102 80.7526 50.9404 80.2969L52.2295 75.8242H53.3037L51.8096 80.541C51.6143 81.1595 51.3945 81.6576 51.1504 82.0352C50.9095 82.4128 50.623 82.696 50.291 82.8848C49.9622 83.0736 49.5667 83.194 49.1045 83.2461L48.2256 83.3438ZM50.1885 81L48.1279 75.8242H49.2021L50.8916 80.2188H51.0479V81H50.1885ZM56.2285 81.0977C55.8704 81.0977 55.5417 81.0765 55.2422 81.0342C54.946 80.9919 54.6823 80.9349 54.4512 80.8633L54.5732 79.9307C54.7718 79.986 54.9948 80.0446 55.2422 80.1064C55.4928 80.1683 55.8086 80.1992 56.1895 80.1992C56.6973 80.1992 57.0911 80.0983 57.3711 79.8965C57.651 79.6947 57.791 79.4115 57.791 79.0469C57.791 78.7865 57.7096 78.5651 57.5469 78.3828C57.3874 78.2005 57.1546 78.0622 56.8486 77.9678C56.5426 77.8734 56.1699 77.8262 55.7305 77.8262H55.5742L55.457 77.1914L56.9512 77.3086C57.5046 77.3509 57.9538 77.5316 58.2988 77.8506C58.6439 78.1663 58.8164 78.5977 58.8164 79.1445C58.8164 79.763 58.5902 80.2432 58.1377 80.585C57.6885 80.9268 57.0521 81.0977 56.2285 81.0977ZM55.5742 77.8262L55.457 77.1914C55.9714 77.123 56.388 77.0221 56.707 76.8887C57.0293 76.7552 57.2653 76.5941 57.415 76.4053C57.568 76.2132 57.6445 76 57.6445 75.7656C57.6445 75.4824 57.5518 75.2627 57.3662 75.1064C57.1839 74.9469 56.9219 74.8672 56.5801 74.8672C56.3327 74.8672 56.069 74.929 55.7891 75.0527C55.5124 75.1764 55.2503 75.362 55.0029 75.6094L54.3291 74.9404C54.6286 74.6019 54.9753 74.3561 55.3691 74.2031C55.763 74.0469 56.2025 73.9688 56.6875 73.9688C57.319 73.9688 57.8073 74.1038 58.1523 74.374C58.4974 74.641 58.6699 75.0234 58.6699 75.5215C58.6699 75.9382 58.5365 76.3011 58.2695 76.6104C58.0026 76.9163 57.6543 77.1263 57.2246 77.2402V77.8262H55.5742ZM60.3984 83.2461V75.8242H61.3359L61.4336 76.918V83.2461H60.3984ZM62.9033 81.0977C62.5062 81.0977 62.1855 81.0065 61.9414 80.8242C61.7005 80.6419 61.5638 80.388 61.5312 80.0625H61.082L61.4336 78.5879C61.4336 79.1217 61.5378 79.527 61.7461 79.8037C61.9577 80.0804 62.2669 80.2188 62.6738 80.2188C63.0905 80.2188 63.4062 80.0706 63.6211 79.7744C63.8359 79.4782 63.9434 79.0404 63.9434 78.4609C63.9434 77.849 63.8359 77.3867 63.6211 77.0742C63.4062 76.7617 63.0905 76.6055 62.6738 76.6055C62.2669 76.6055 61.9577 76.7438 61.7461 77.0205C61.5378 77.2972 61.4336 77.7025 61.4336 78.2363L61.082 76.7617H61.4824C61.528 76.4362 61.6745 76.1823 61.9219 76C62.1725 75.8177 62.4997 75.7266 62.9033 75.7266C63.5837 75.7266 64.098 75.9577 64.4463 76.4199C64.7946 76.8822 64.9688 77.5625 64.9688 78.4609C64.9688 79.3268 64.7946 79.9827 64.4463 80.4287C64.098 80.8747 63.5837 81.0977 62.9033 81.0977ZM69.4414 81V77.6309C69.4414 77.3021 69.36 77.0498 69.1973 76.874C69.0345 76.695 68.8066 76.6055 68.5137 76.6055C67.6999 76.6055 67.293 77.1003 67.293 78.0898L66.9902 76.7617H67.3906C67.4199 76.4134 67.5469 76.1546 67.7715 75.9854C67.9961 75.8128 68.3249 75.7266 68.7578 75.7266C69.3047 75.7266 69.7279 75.8926 70.0273 76.2246C70.3268 76.5566 70.4766 77.0254 70.4766 77.6309V81H69.4414ZM66.2578 81V73.6758H67.293V81H66.2578Z" fill="black"/>
<path d="M53.7188 81.7324H59.5781V82.2207H53.7188V81.7324Z" fill="black"/>
<path d="M105.004 117V113.631C105.004 113.302 104.923 113.05 104.76 112.874C104.597 112.695 104.369 112.605 104.076 112.605C103.262 112.605 102.855 113.1 102.855 114.09L102.553 112.762H102.953C102.982 112.413 103.109 112.155 103.334 111.985C103.559 111.813 103.887 111.727 104.32 111.727C104.867 111.727 105.29 111.893 105.59 112.225C105.889 112.557 106.039 113.025 106.039 113.631V117H105.004ZM101.82 117V109.676H102.855V117H101.82ZM110.238 117.098C109.356 117.098 108.674 116.867 108.192 116.404C107.714 115.939 107.475 115.271 107.475 114.402C107.475 113.556 107.678 112.898 108.085 112.43C108.492 111.961 109.066 111.727 109.809 111.727C110.508 111.727 111.049 111.938 111.43 112.361C111.814 112.785 112.006 113.4 112.006 114.207C112.006 114.445 111.996 114.666 111.977 114.871H108.344V114.08H111.068C111.068 113.615 110.958 113.258 110.736 113.011C110.515 112.76 110.209 112.635 109.818 112.635C109.379 112.635 109.037 112.785 108.793 113.084C108.552 113.383 108.432 113.807 108.432 114.354C108.432 114.952 108.598 115.408 108.93 115.721C109.265 116.033 109.74 116.189 110.355 116.189C110.57 116.189 110.782 116.178 110.99 116.155C111.199 116.129 111.41 116.095 111.625 116.053L111.752 116.961C111.446 117.02 111.166 117.057 110.912 117.073C110.658 117.09 110.434 117.098 110.238 117.098ZM116.723 117V113.631C116.723 113.318 116.641 113.077 116.479 112.908C116.316 112.739 116.088 112.654 115.795 112.654C114.981 112.654 114.574 113.133 114.574 114.09L114.271 112.762H114.672C114.701 112.413 114.828 112.155 115.053 111.985C115.277 111.813 115.606 111.727 116.039 111.727C116.586 111.727 117.009 111.893 117.309 112.225C117.608 112.557 117.758 113.025 117.758 113.631V117H116.723ZM113.539 117V111.824H114.477L114.574 112.918V117H113.539ZM121.576 117.098C120.827 117.098 120.248 116.92 119.838 116.565C119.428 116.207 119.223 115.704 119.223 115.057H120.268C120.268 115.418 120.382 115.7 120.609 115.901C120.837 116.1 121.163 116.199 121.586 116.199C122.003 116.199 122.325 116.074 122.553 115.823C122.781 115.573 122.895 115.219 122.895 114.764C122.895 114.318 122.771 113.973 122.523 113.729C122.276 113.481 121.924 113.357 121.469 113.357C121.013 113.357 120.587 113.465 120.189 113.68L120.277 112.85C120.535 112.703 120.79 112.605 121.044 112.557C121.298 112.505 121.553 112.479 121.811 112.479C122.481 112.479 123 112.677 123.368 113.074C123.736 113.471 123.92 114.035 123.92 114.764C123.92 115.258 123.827 115.68 123.642 116.028C123.459 116.377 123.194 116.642 122.846 116.824C122.497 117.007 122.074 117.098 121.576 117.098ZM119.643 113.68L119.74 110.066H120.785L120.688 113.074L120.189 113.68H119.643ZM120.209 110.975L120.121 110.066H123.48V110.975H120.209ZM128.432 117.049L128.363 115.516L128.227 115.086V113.748C128.227 113.403 128.104 113.151 127.86 112.991C127.619 112.828 127.26 112.741 126.781 112.728L125.541 112.693L125.639 111.775L126.684 111.79C127.54 111.803 128.174 111.989 128.588 112.347C129.005 112.701 129.213 113.221 129.213 113.904V116.062L130.092 116.17V117L128.432 117.049ZM126.605 117.098C126.065 117.098 125.647 116.967 125.351 116.707C125.054 116.447 124.906 116.079 124.906 115.604C124.906 115.057 125.11 114.637 125.517 114.344C125.927 114.051 126.505 113.904 127.25 113.904C127.559 113.904 127.834 113.924 128.075 113.963C128.319 113.999 128.536 114.054 128.725 114.129L128.51 114.832C128.292 114.783 128.078 114.756 127.87 114.749C127.662 114.739 127.449 114.734 127.23 114.734C126.332 114.734 125.883 115.008 125.883 115.555C125.883 115.783 125.959 115.958 126.112 116.082C126.269 116.206 126.488 116.268 126.771 116.268C127.094 116.268 127.362 116.212 127.577 116.102C127.795 115.991 127.958 115.849 128.065 115.677C128.173 115.504 128.227 115.327 128.227 115.145V114.578L128.529 115.906H128.119L128.285 115.75C128.285 116.049 128.215 116.3 128.075 116.502C127.938 116.701 127.745 116.85 127.494 116.951C127.243 117.049 126.947 117.098 126.605 117.098ZM134.164 117.098C133.38 117.098 132.812 116.935 132.46 116.609C132.112 116.284 131.938 115.763 131.938 115.047V114.168H132.973V114.998C132.973 115.408 133.072 115.706 133.271 115.892C133.472 116.077 133.803 116.17 134.262 116.17C134.424 116.17 134.597 116.162 134.779 116.146C134.962 116.126 135.17 116.102 135.404 116.072L135.521 116.98C135.294 117.02 135.071 117.049 134.853 117.068C134.638 117.088 134.408 117.098 134.164 117.098ZM131.938 114.559V110.262H132.973V114.559H131.938ZM130.639 112.732V111.824H135.326V112.732H130.639Z" fill="black"/>
<path d="M118.578 117.732H124.438V118.221H118.578V117.732Z" fill="black"/>
<path d="M147.004 91V87.6309C147.004 87.3021 146.923 87.0498 146.76 86.874C146.597 86.695 146.369 86.6055 146.076 86.6055C145.262 86.6055 144.855 87.1003 144.855 88.0898L144.553 86.7617H144.953C144.982 86.4134 145.109 86.1546 145.334 85.9854C145.559 85.8128 145.887 85.7266 146.32 85.7266C146.867 85.7266 147.29 85.8926 147.59 86.2246C147.889 86.5566 148.039 87.0254 148.039 87.6309V91H147.004ZM143.82 91V83.6758H144.855V91H143.82ZM152.238 91.0977C151.356 91.0977 150.674 90.8665 150.192 90.4043C149.714 89.9388 149.475 89.2715 149.475 88.4023C149.475 87.556 149.678 86.8984 150.085 86.4297C150.492 85.9609 151.066 85.7266 151.809 85.7266C152.508 85.7266 153.049 85.9382 153.43 86.3613C153.814 86.7845 154.006 87.3997 154.006 88.207C154.006 88.4447 153.996 88.666 153.977 88.8711H150.344V88.0801H153.068C153.068 87.6146 152.958 87.2581 152.736 87.0107C152.515 86.7601 152.209 86.6348 151.818 86.6348C151.379 86.6348 151.037 86.7845 150.793 87.084C150.552 87.3835 150.432 87.8066 150.432 88.3535C150.432 88.9525 150.598 89.4082 150.93 89.7207C151.265 90.0332 151.74 90.1895 152.355 90.1895C152.57 90.1895 152.782 90.1781 152.99 90.1553C153.199 90.1292 153.41 90.0951 153.625 90.0527L153.752 90.9609C153.446 91.0195 153.166 91.057 152.912 91.0732C152.658 91.0895 152.434 91.0977 152.238 91.0977ZM158.723 91V87.6309C158.723 87.3184 158.641 87.0775 158.479 86.9082C158.316 86.7389 158.088 86.6543 157.795 86.6543C156.981 86.6543 156.574 87.1328 156.574 88.0898L156.271 86.7617H156.672C156.701 86.4134 156.828 86.1546 157.053 85.9854C157.277 85.8128 157.606 85.7266 158.039 85.7266C158.586 85.7266 159.009 85.8926 159.309 86.2246C159.608 86.5566 159.758 87.0254 159.758 87.6309V91H158.723ZM155.539 91V85.8242H156.477L156.574 86.918V91H155.539ZM164.572 91.0488L164.504 89.5156L164.367 89.0859V87.748C164.367 87.403 164.245 87.1507 164.001 86.9912C163.76 86.8285 163.4 86.7406 162.922 86.7275L161.682 86.6934L161.779 85.7754L162.824 85.79C163.68 85.8031 164.315 85.9886 164.729 86.3467C165.145 86.7015 165.354 87.2207 165.354 87.9043V90.0625L166.232 90.1699V91L164.572 91.0488ZM162.746 91.0977C162.206 91.0977 161.787 90.9674 161.491 90.707C161.195 90.4466 161.047 90.0788 161.047 89.6035C161.047 89.0566 161.25 88.6367 161.657 88.3438C162.067 88.0508 162.645 87.9043 163.391 87.9043C163.7 87.9043 163.975 87.9238 164.216 87.9629C164.46 87.9987 164.676 88.054 164.865 88.1289L164.65 88.832C164.432 88.7832 164.219 88.7555 164.011 88.749C163.802 88.7393 163.589 88.7344 163.371 88.7344C162.473 88.7344 162.023 89.0078 162.023 89.5547C162.023 89.7826 162.1 89.9583 162.253 90.082C162.409 90.2057 162.629 90.2676 162.912 90.2676C163.234 90.2676 163.503 90.2122 163.718 90.1016C163.936 89.9909 164.099 89.8493 164.206 89.6768C164.313 89.5042 164.367 89.3268 164.367 89.1445V88.5781L164.67 89.9062H164.26L164.426 89.75C164.426 90.0495 164.356 90.3001 164.216 90.502C164.079 90.7005 163.885 90.8503 163.635 90.9512C163.384 91.0488 163.088 91.0977 162.746 91.0977ZM166.799 89.4473L167.775 84.457H168.83L167.844 89.4473H166.799ZM166.799 89.4473L167.482 88.5391H170.334V89.4473H166.799ZM171.154 89.4473V88.5391H171.906V89.4473H171.154ZM170.236 91V84.0664H171.252V91H170.236Z" fill="black"/>
<path d="M166.438 91.7324H172.297V92.2207H166.438V91.7324Z" fill="black"/>
<path d="M84.0039 78V74.6309C84.0039 74.3021 83.9225 74.0498 83.7598 73.874C83.597 73.695 83.3691 73.6055 83.0762 73.6055C82.2624 73.6055 81.8555 74.1003 81.8555 75.0898L81.5527 73.7617H81.9531C81.9824 73.4134 82.1094 73.1546 82.334 72.9854C82.5586 72.8128 82.8874 72.7266 83.3203 72.7266C83.8672 72.7266 84.2904 72.8926 84.5898 73.2246C84.8893 73.5566 85.0391 74.0254 85.0391 74.6309V78H84.0039ZM80.8203 78V70.6758H81.8555V78H80.8203ZM89.2383 78.0977C88.3561 78.0977 87.6742 77.8665 87.1924 77.4043C86.7139 76.9388 86.4746 76.2715 86.4746 75.4023C86.4746 74.556 86.6781 73.8984 87.085 73.4297C87.4919 72.9609 88.0664 72.7266 88.8086 72.7266C89.5085 72.7266 90.0488 72.9382 90.4297 73.3613C90.8138 73.7845 91.0059 74.3997 91.0059 75.207C91.0059 75.4447 90.9961 75.666 90.9766 75.8711H87.3438V75.0801H90.0684C90.0684 74.6146 89.9577 74.2581 89.7363 74.0107C89.515 73.7601 89.209 73.6348 88.8184 73.6348C88.3789 73.6348 88.0371 73.7845 87.793 74.084C87.5521 74.3835 87.4316 74.8066 87.4316 75.3535C87.4316 75.9525 87.5977 76.4082 87.9297 76.7207C88.265 77.0332 88.7402 77.1895 89.3555 77.1895C89.5703 77.1895 89.7819 77.1781 89.9902 77.1553C90.1986 77.1292 90.4102 77.0951 90.625 77.0527L90.752 77.9609C90.446 78.0195 90.166 78.057 89.9121 78.0732C89.6582 78.0895 89.4336 78.0977 89.2383 78.0977ZM92.4609 78V76.8867C93.5319 76.2943 94.3311 75.679 94.8584 75.041C95.389 74.3997 95.6543 73.7389 95.6543 73.0586C95.6543 72.6615 95.5566 72.3636 95.3613 72.165C95.166 71.9665 94.8698 71.8672 94.4727 71.8672C94.209 71.8672 93.9339 71.9437 93.6475 72.0967C93.361 72.2497 93.1152 72.4531 92.9102 72.707L92.2363 72.0381C92.4609 71.7158 92.7799 71.457 93.1934 71.2617C93.6068 71.0664 94.0397 70.9688 94.4922 70.9688C95.2246 70.9688 95.7715 71.1429 96.1328 71.4912C96.4974 71.8363 96.6797 72.3587 96.6797 73.0586C96.6797 73.7585 96.4567 74.4307 96.0107 75.0752C95.568 75.7165 94.8926 76.3333 93.9844 76.9258V78H92.4609ZM92.7539 78V77.0723H96.9727V78H92.7539ZM101.582 78V74.6309C101.582 74.3184 101.501 74.0775 101.338 73.9082C101.175 73.7389 100.947 73.6543 100.654 73.6543C99.8405 73.6543 99.4336 74.1328 99.4336 75.0898L99.1309 73.7617H99.5312C99.5605 73.4134 99.6875 73.1546 99.9121 72.9854C100.137 72.8128 100.465 72.7266 100.898 72.7266C101.445 72.7266 101.868 72.8926 102.168 73.2246C102.467 73.5566 102.617 74.0254 102.617 74.6309V78H101.582ZM98.3984 78V72.8242H99.3359L99.4336 73.918V78H98.3984Z" fill="black"/>
<path d="M91.7188 78.7324H97.5781V79.2207H91.7188V78.7324Z" fill="black"/>
</svg>
