<svg width="400" height="250" viewBox="0 0 400 250" fill="none" xmlns="http://www.w3.org/2000/svg">
<rect width="400" height="250" fill="white"/>
<rect x="46.5" y="48.5" width="29" height="29" rx="3.5" fill="#F2F2F2"/>
<path d="M63.1484 71V64.2617C63.1484 63.6042 62.9857 63.0996 62.6602 62.748C62.3346 62.39 61.8789 62.2109 61.293 62.2109C59.6654 62.2109 58.8516 63.2005 58.8516 65.1797L58.2461 62.5234H59.0469C59.1055 61.8268 59.3594 61.3092 59.8086 60.9707C60.2578 60.6257 60.9154 60.4531 61.7812 60.4531C62.875 60.4531 63.7214 60.7852 64.3203 61.4492C64.9193 62.1133 65.2188 63.0508 65.2188 64.2617V71H63.1484ZM56.7812 71V56.3516H58.8516V71H56.7812Z" fill="black"/>
<rect x="46.5" y="48.5" width="29" height="29" rx="3.5" stroke="black"/>
<rect x="30.5" y="84.5" width="29" height="29" rx="3.5" fill="white"/>
<path d="M45 107.195C41.849 107.195 40.2734 104.852 40.2734 100.164C40.2734 95.3464 41.849 92.9375 45 92.9375C48.151 92.9375 49.7266 95.3464 49.7266 100.164C49.7266 104.852 48.151 107.195 45 107.195ZM45 101.629C44.5638 101.629 44.209 101.495 43.9355 101.229C43.6686 100.955 43.5352 100.6 43.5352 100.164C43.5352 99.7214 43.6686 99.3665 43.9355 99.0996C44.209 98.8327 44.5638 98.6992 45 98.6992C45.4427 98.6992 45.7975 98.8327 46.0645 99.0996C46.3314 99.3665 46.4648 99.7214 46.4648 100.164C46.4648 100.6 46.3314 100.955 46.0645 101.229C45.7975 101.495 45.4427 101.629 45 101.629ZM45 105.398C46.7578 105.398 47.6367 103.654 47.6367 100.164C47.6367 96.5443 46.7578 94.7344 45 94.7344C43.2422 94.7344 42.3633 96.5443 42.3633 100.164C42.3633 103.654 43.2422 105.398 45 105.398Z" fill="black"/>
<rect x="30.5" y="84.5" width="29" height="29" rx="3.5" stroke="black"/>
<rect x="64.5" y="84.5" width="29" height="29" rx="3.5" fill="white"/>
<path d="M79 107.195C75.849 107.195 74.2734 104.852 74.2734 100.164C74.2734 95.3464 75.849 92.9375 79 92.9375C82.151 92.9375 83.7266 95.3464 83.7266 100.164C83.7266 104.852 82.151 107.195 79 107.195ZM79 101.629C78.5638 101.629 78.209 101.495 77.9355 101.229C77.6686 100.955 77.5352 100.6 77.5352 100.164C77.5352 99.7214 77.6686 99.3665 77.9355 99.0996C78.209 98.8327 78.5638 98.6992 79 98.6992C79.4427 98.6992 79.7975 98.8327 80.0645 99.0996C80.3314 99.3665 80.4648 99.7214 80.4648 100.164C80.4648 100.6 80.3314 100.955 80.0645 101.229C79.7975 101.495 79.4427 101.629 79 101.629ZM79 105.398C80.7578 105.398 81.6367 103.654 81.6367 100.164C81.6367 96.5443 80.7578 94.7344 79 94.7344C77.2422 94.7344 76.3633 96.5443 76.3633 100.164C76.3633 103.654 77.2422 105.398 79 105.398Z" fill="black"/>
<rect x="64.5" y="84.5" width="29" height="29" rx="3.5" stroke="black"/>
<rect x="98.5" y="84.5" width="29" height="29" rx="3.5" fill="#89D5FF"/>
<path d="M112.16 107.195C111.444 107.195 110.786 107.153 110.188 107.068C109.595 106.984 109.068 106.87 108.605 106.727L108.85 104.861C109.247 104.972 109.693 105.089 110.188 105.213C110.689 105.337 111.32 105.398 112.082 105.398C113.098 105.398 113.885 105.197 114.445 104.793C115.005 104.389 115.285 103.823 115.285 103.094C115.285 102.573 115.122 102.13 114.797 101.766C114.478 101.401 114.012 101.124 113.4 100.936C112.788 100.747 112.043 100.652 111.164 100.652H110.852L110.617 99.3828L113.605 99.6172C114.712 99.7018 115.611 100.063 116.301 100.701C116.991 101.333 117.336 102.195 117.336 103.289C117.336 104.526 116.883 105.486 115.979 106.17C115.08 106.854 113.807 107.195 112.16 107.195ZM110.852 100.652L110.617 99.3828C111.646 99.2461 112.479 99.0443 113.117 98.7773C113.762 98.5104 114.234 98.1882 114.533 97.8105C114.839 97.4264 114.992 97 114.992 96.5312C114.992 95.9648 114.807 95.5254 114.436 95.2129C114.071 94.8939 113.547 94.7344 112.863 94.7344C112.368 94.7344 111.841 94.8581 111.281 95.1055C110.728 95.3529 110.204 95.724 109.709 96.2188L108.361 94.8809C108.96 94.2038 109.654 93.7122 110.441 93.4062C111.229 93.0938 112.108 92.9375 113.078 92.9375C114.341 92.9375 115.318 93.2077 116.008 93.748C116.698 94.2819 117.043 95.0469 117.043 96.043C117.043 96.8763 116.776 97.6022 116.242 98.2207C115.708 98.8327 115.012 99.2526 114.152 99.4805V100.652H110.852Z" fill="black"/>
<rect x="98.5" y="84.5" width="29" height="29" rx="3.5" stroke="black"/>
<rect x="132.5" y="84.5" width="29" height="29" rx="3.5" fill="white"/>
<path d="M147 107.195C143.849 107.195 142.273 104.852 142.273 100.164C142.273 95.3464 143.849 92.9375 147 92.9375C150.151 92.9375 151.727 95.3464 151.727 100.164C151.727 104.852 150.151 107.195 147 107.195ZM147 101.629C146.564 101.629 146.209 101.495 145.936 101.229C145.669 100.955 145.535 100.6 145.535 100.164C145.535 99.7214 145.669 99.3665 145.936 99.0996C146.209 98.8327 146.564 98.6992 147 98.6992C147.443 98.6992 147.798 98.8327 148.064 99.0996C148.331 99.3665 148.465 99.7214 148.465 100.164C148.465 100.6 148.331 100.955 148.064 101.229C147.798 101.495 147.443 101.629 147 101.629ZM147 105.398C148.758 105.398 149.637 103.654 149.637 100.164C149.637 96.5443 148.758 94.7344 147 94.7344C145.242 94.7344 144.363 96.5443 144.363 100.164C144.363 103.654 145.242 105.398 147 105.398Z" fill="black"/>
<rect x="132.5" y="84.5" width="29" height="29" rx="3.5" stroke="black"/>
<rect x="166.5" y="84.5" width="29" height="29" rx="3.5" fill="white"/>
<path d="M181 107.195C177.849 107.195 176.273 104.852 176.273 100.164C176.273 95.3464 177.849 92.9375 181 92.9375C184.151 92.9375 185.727 95.3464 185.727 100.164C185.727 104.852 184.151 107.195 181 107.195ZM181 101.629C180.564 101.629 180.209 101.495 179.936 101.229C179.669 100.955 179.535 100.6 179.535 100.164C179.535 99.7214 179.669 99.3665 179.936 99.0996C180.209 98.8327 180.564 98.6992 181 98.6992C181.443 98.6992 181.798 98.8327 182.064 99.0996C182.331 99.3665 182.465 99.7214 182.465 100.164C182.465 100.6 182.331 100.955 182.064 101.229C181.798 101.495 181.443 101.629 181 101.629ZM181 105.398C182.758 105.398 183.637 103.654 183.637 100.164C183.637 96.5443 182.758 94.7344 181 94.7344C179.242 94.7344 178.363 96.5443 178.363 100.164C178.363 103.654 179.242 105.398 181 105.398Z" fill="black"/>
<rect x="166.5" y="84.5" width="29" height="29" rx="3.5" stroke="black"/>
<rect x="200.5" y="84.5" width="29" height="29" rx="3.5" fill="white"/>
<path d="M210.625 107V104.773C212.767 103.589 214.365 102.358 215.42 101.082C216.481 99.7995 217.012 98.4779 217.012 97.1172C217.012 96.3229 216.816 95.7272 216.426 95.3301C216.035 94.9329 215.443 94.7344 214.648 94.7344C214.121 94.7344 213.571 94.8874 212.998 95.1934C212.425 95.4993 211.934 95.9062 211.523 96.4141L210.176 95.0762C210.625 94.4316 211.263 93.9141 212.09 93.5234C212.917 93.1328 213.783 92.9375 214.688 92.9375C216.152 92.9375 217.246 93.2858 217.969 93.9824C218.698 94.6725 219.062 95.7174 219.062 97.1172C219.062 98.5169 218.617 99.8613 217.725 101.15C216.839 102.433 215.488 103.667 213.672 104.852V107H210.625ZM211.211 107V105.145H219.648V107H211.211Z" fill="black"/>
<rect x="200.5" y="84.5" width="29" height="29" rx="3.5" stroke="black"/>
<rect x="234.5" y="84.5" width="29" height="29" rx="3.5" fill="#89D5FF"/>
<path d="M249.137 107.195C247.639 107.195 246.48 106.84 245.66 106.131C244.84 105.415 244.43 104.409 244.43 103.113H246.52C246.52 103.836 246.747 104.399 247.203 104.803C247.659 105.2 248.31 105.398 249.156 105.398C249.99 105.398 250.634 105.148 251.09 104.646C251.546 104.145 251.773 103.439 251.773 102.527C251.773 101.635 251.526 100.945 251.031 100.457C250.536 99.9622 249.833 99.7148 248.922 99.7148C248.01 99.7148 247.158 99.9297 246.363 100.359L246.539 98.6992C247.053 98.4062 247.564 98.2109 248.072 98.1133C248.58 98.0091 249.091 97.957 249.605 97.957C250.947 97.957 251.985 98.3542 252.721 99.1484C253.456 99.9427 253.824 101.069 253.824 102.527C253.824 103.517 253.639 104.36 253.268 105.057C252.903 105.753 252.372 106.284 251.676 106.648C250.979 107.013 250.133 107.195 249.137 107.195ZM245.27 100.359L245.465 93.1328H247.555L247.359 99.1484L246.363 100.359H245.27ZM246.402 94.9492L246.227 93.1328H252.945V94.9492H246.402Z" fill="black"/>
<rect x="234.5" y="84.5" width="29" height="29" rx="3.5" stroke="black"/>
<rect x="268.5" y="84.5" width="29" height="29" rx="3.5" fill="white"/>
<path d="M277.863 103.895L279.816 93.9141H281.926L279.953 103.895H277.863ZM277.863 103.895L279.23 102.078H284.934V103.895H277.863ZM286.574 103.895V102.078H288.078V103.895H286.574ZM284.738 107V93.1328H286.77V107H284.738Z" fill="black"/>
<rect x="268.5" y="84.5" width="29" height="29" rx="3.5" stroke="black"/>
<rect x="302.5" y="84.5" width="29" height="29" rx="3.5" fill="white"/>
<path d="M317 107.195C313.849 107.195 312.273 104.852 312.273 100.164C312.273 95.3464 313.849 92.9375 317 92.9375C320.151 92.9375 321.727 95.3464 321.727 100.164C321.727 104.852 320.151 107.195 317 107.195ZM317 101.629C316.564 101.629 316.209 101.495 315.936 101.229C315.669 100.955 315.535 100.6 315.535 100.164C315.535 99.7214 315.669 99.3665 315.936 99.0996C316.209 98.8327 316.564 98.6992 317 98.6992C317.443 98.6992 317.798 98.8327 318.064 99.0996C318.331 99.3665 318.465 99.7214 318.465 100.164C318.465 100.6 318.331 100.955 318.064 101.229C317.798 101.495 317.443 101.629 317 101.629ZM317 105.398C318.758 105.398 319.637 103.654 319.637 100.164C319.637 96.5443 318.758 94.7344 317 94.7344C315.242 94.7344 314.363 96.5443 314.363 100.164C314.363 103.654 315.242 105.398 317 105.398Z" fill="black"/>
<rect x="302.5" y="84.5" width="29" height="29" rx="3.5" stroke="black"/>
<rect x="336.5" y="84.5" width="29" height="29" rx="3.5" fill="white"/>
<path d="M351 107.195C347.849 107.195 346.273 104.852 346.273 100.164C346.273 95.3464 347.849 92.9375 351 92.9375C354.151 92.9375 355.727 95.3464 355.727 100.164C355.727 104.852 354.151 107.195 351 107.195ZM351 101.629C350.564 101.629 350.209 101.495 349.936 101.229C349.669 100.955 349.535 100.6 349.535 100.164C349.535 99.7214 349.669 99.3665 349.936 99.0996C350.209 98.8327 350.564 98.6992 351 98.6992C351.443 98.6992 351.798 98.8327 352.064 99.0996C352.331 99.3665 352.465 99.7214 352.465 100.164C352.465 100.6 352.331 100.955 352.064 101.229C351.798 101.495 351.443 101.629 351 101.629ZM351 105.398C352.758 105.398 353.637 103.654 353.637 100.164C353.637 96.5443 352.758 94.7344 351 94.7344C349.242 94.7344 348.363 96.5443 348.363 100.164C348.363 103.654 349.242 105.398 351 105.398Z" fill="black"/>
<rect x="336.5" y="84.5" width="29" height="29" rx="3.5" stroke="black"/>
<rect x="12.5" y="48.5" width="29" height="29" rx="3.5" fill="#F2F2F2"/>
<path d="M27 71.1953C26.6029 71.1953 26.2611 71.0553 25.9746 70.7754C25.6947 70.4889 25.5547 70.1471 25.5547 69.75C25.5547 69.3464 25.6947 69.0046 25.9746 68.7246C26.2611 68.4447 26.6029 68.3047 27 68.3047C27.4036 68.3047 27.7454 68.4447 28.0254 68.7246C28.3053 69.0046 28.4453 69.3464 28.4453 69.75C28.4453 70.1471 28.3053 70.4889 28.0254 70.7754C27.7454 71.0553 27.4036 71.1953 27 71.1953Z" fill="black"/>
<rect x="12.5" y="48.5" width="29" height="29" rx="3.5" stroke="black"/>
<rect x="352.5" y="48.5" width="29" height="29" rx="3.5" fill="#F2F2F2"/>
<path d="M367 71.1953C366.603 71.1953 366.261 71.0553 365.975 70.7754C365.695 70.4889 365.555 70.1471 365.555 69.75C365.555 69.3464 365.695 69.0046 365.975 68.7246C366.261 68.4447 366.603 68.3047 367 68.3047C367.404 68.3047 367.745 68.4447 368.025 68.7246C368.305 69.0046 368.445 69.3464 368.445 69.75C368.445 70.1471 368.305 70.4889 368.025 70.7754C367.745 71.0553 367.404 71.1953 367 71.1953Z" fill="black"/>
<rect x="352.5" y="48.5" width="29" height="29" rx="3.5" stroke="black"/>
<rect x="80.5" y="48.5" width="29" height="29" rx="3.5" fill="#F2F2F2"/>
<path d="M89.873 75.6875L89.7754 73.832L91.3965 73.6367C92.0801 73.5521 92.6628 73.3665 93.1445 73.0801C93.6328 72.7936 94.0495 72.3672 94.3945 71.8008C94.7396 71.2409 95.0423 70.5052 95.3027 69.5938L97.8809 60.6484H100.029L97.041 70.082C96.6504 71.319 96.2109 72.3151 95.7227 73.0703C95.2409 73.8255 94.668 74.3919 94.0039 74.7695C93.3464 75.1471 92.5553 75.388 91.6309 75.4922L89.873 75.6875ZM93.7988 71L89.6777 60.6484H91.8262L95.2051 69.4375H95.5176V71H93.7988Z" fill="black"/>
<rect x="80.5" y="48.5" width="29" height="29" rx="3.5" stroke="black"/>
<rect x="114.5" y="48.5" width="29" height="29" rx="3.5" fill="#F2F2F2"/>
<path d="M124.781 75.4922V60.6484H126.656L126.852 62.8359V75.4922H124.781ZM129.791 71.1953C128.997 71.1953 128.355 71.013 127.867 70.6484C127.385 70.2839 127.112 69.776 127.047 69.125H126.148L126.852 66.1758C126.852 67.2435 127.06 68.054 127.477 68.6074C127.9 69.1608 128.518 69.4375 129.332 69.4375C130.165 69.4375 130.797 69.1413 131.227 68.5488C131.656 67.9564 131.871 67.0807 131.871 65.9219C131.871 64.6979 131.656 63.7734 131.227 63.1484C130.797 62.5234 130.165 62.2109 129.332 62.2109C128.518 62.2109 127.9 62.4876 127.477 63.041C127.06 63.5944 126.852 64.4049 126.852 65.4727L126.148 62.5234H126.949C127.04 61.8724 127.333 61.3646 127.828 61C128.329 60.6354 128.984 60.4531 129.791 60.4531C131.152 60.4531 132.18 60.9154 132.877 61.8398C133.574 62.7643 133.922 64.125 133.922 65.9219C133.922 67.6536 133.574 68.9655 132.877 69.8574C132.18 70.7493 131.152 71.1953 129.791 71.1953Z" fill="black"/>
<rect x="114.5" y="48.5" width="29" height="29" rx="3.5" stroke="black"/>
<rect x="148.5" y="48.5" width="29" height="29" rx="3.5" fill="#F2F2F2"/>
<path d="M165.148 71V64.2617C165.148 63.6042 164.986 63.0996 164.66 62.748C164.335 62.39 163.879 62.2109 163.293 62.2109C161.665 62.2109 160.852 63.2005 160.852 65.1797L160.246 62.5234H161.047C161.105 61.8268 161.359 61.3092 161.809 60.9707C162.258 60.6257 162.915 60.4531 163.781 60.4531C164.875 60.4531 165.721 60.7852 166.32 61.4492C166.919 62.1133 167.219 63.0508 167.219 64.2617V71H165.148ZM158.781 71V56.3516H160.852V71H158.781Z" fill="black"/>
<rect x="148.5" y="48.5" width="29" height="29" rx="3.5" stroke="black"/>
<rect x="182.5" y="48.5" width="29" height="29" rx="3.5" fill="#F2F2F2"/>
<path d="M197.898 71.1953C196.134 71.1953 194.77 70.7331 193.807 69.8086C192.85 68.8776 192.371 67.543 192.371 65.8047C192.371 64.112 192.778 62.7969 193.592 61.8594C194.406 60.9219 195.555 60.4531 197.039 60.4531C198.439 60.4531 199.52 60.8763 200.281 61.7227C201.049 62.569 201.434 63.7995 201.434 65.4141C201.434 65.8893 201.414 66.332 201.375 66.7422H194.109V65.1602H199.559C199.559 64.2292 199.337 63.5163 198.895 63.0215C198.452 62.5202 197.84 62.2695 197.059 62.2695C196.18 62.2695 195.496 62.569 195.008 63.168C194.526 63.7669 194.285 64.6133 194.285 65.707C194.285 66.9049 194.617 67.8164 195.281 68.4414C195.952 69.0664 196.902 69.3789 198.133 69.3789C198.562 69.3789 198.986 69.3561 199.402 69.3105C199.819 69.2585 200.242 69.1901 200.672 69.1055L200.926 70.9219C200.314 71.0391 199.754 71.1139 199.246 71.1465C198.738 71.179 198.289 71.1953 197.898 71.1953Z" fill="black"/>
<rect x="182.5" y="48.5" width="29" height="29" rx="3.5" stroke="black"/>
<rect x="216.5" y="48.5" width="29" height="29" rx="3.5" fill="#F2F2F2"/>
<path d="M233.148 71V64.2617C233.148 63.6367 232.986 63.1549 232.66 62.8164C232.335 62.4779 231.879 62.3086 231.293 62.3086C229.665 62.3086 228.852 63.2656 228.852 65.1797L228.246 62.5234H229.047C229.105 61.8268 229.359 61.3092 229.809 60.9707C230.258 60.6257 230.915 60.4531 231.781 60.4531C232.875 60.4531 233.721 60.7852 234.32 61.4492C234.919 62.1133 235.219 63.0508 235.219 64.2617V71H233.148ZM226.781 71V60.6484H228.656L228.852 62.8359V71H226.781Z" fill="black"/>
<rect x="216.5" y="48.5" width="29" height="29" rx="3.5" stroke="black"/>
<rect x="250.5" y="48.5" width="29" height="29" rx="3.5" fill="#F2F2F2"/>
<path d="M267.129 71.0977L266.992 68.0312L266.719 67.1719V64.4961C266.719 63.806 266.475 63.3014 265.986 62.9824C265.505 62.6569 264.785 62.4811 263.828 62.4551L261.348 62.3867L261.543 60.5508L263.633 60.5801C265.345 60.6061 266.615 60.9772 267.441 61.6934C268.275 62.403 268.691 63.4414 268.691 64.8086V69.125L270.449 69.3398V71L267.129 71.0977ZM263.477 71.1953C262.396 71.1953 261.559 70.9349 260.967 70.4141C260.374 69.8932 260.078 69.1576 260.078 68.207C260.078 67.1133 260.485 66.2734 261.299 65.6875C262.119 65.1016 263.275 64.8086 264.766 64.8086C265.384 64.8086 265.934 64.8477 266.416 64.9258C266.904 64.9974 267.337 65.1081 267.715 65.2578L267.285 66.6641C266.849 66.5664 266.423 66.5111 266.006 66.498C265.589 66.4785 265.163 66.4688 264.727 66.4688C262.93 66.4688 262.031 67.0156 262.031 68.1094C262.031 68.5651 262.184 68.9167 262.49 69.1641C262.803 69.4115 263.242 69.5352 263.809 69.5352C264.453 69.5352 264.99 69.4245 265.42 69.2031C265.856 68.9818 266.182 68.6986 266.396 68.3535C266.611 68.0085 266.719 67.6536 266.719 67.2891V66.1562L267.324 68.8125H266.504L266.836 68.5C266.836 69.099 266.696 69.6003 266.416 70.0039C266.143 70.401 265.755 70.7005 265.254 70.9023C264.753 71.0977 264.16 71.1953 263.477 71.1953Z" fill="black"/>
<rect x="250.5" y="48.5" width="29" height="29" rx="3.5" stroke="black"/>
<rect x="284.5" y="48.5" width="29" height="29" rx="3.5" fill="#F2F2F2"/>
<path d="M300.875 71.1953C299.306 71.1953 298.17 70.8698 297.467 70.2188C296.77 69.5677 296.422 68.526 296.422 67.0938V65.3359H298.492V66.9961C298.492 67.8164 298.691 68.4121 299.088 68.7832C299.492 69.1543 300.152 69.3398 301.07 69.3398C301.396 69.3398 301.741 69.3236 302.105 69.291C302.47 69.252 302.887 69.2031 303.355 69.1445L303.59 70.9609C303.134 71.0391 302.688 71.0977 302.252 71.1367C301.822 71.1758 301.363 71.1953 300.875 71.1953ZM296.422 66.1172V57.5234H298.492V66.1172H296.422ZM293.824 62.4648V60.6484H303.199V62.4648H293.824Z" fill="black"/>
<rect x="284.5" y="48.5" width="29" height="29" rx="3.5" stroke="black"/>
<rect x="318.5" y="48.5" width="29" height="29" rx="3.5" fill="#F2F2F2"/>
<path d="M333.898 71.1953C332.134 71.1953 330.77 70.7331 329.807 69.8086C328.85 68.8776 328.371 67.543 328.371 65.8047C328.371 64.112 328.778 62.7969 329.592 61.8594C330.406 60.9219 331.555 60.4531 333.039 60.4531C334.439 60.4531 335.52 60.8763 336.281 61.7227C337.049 62.569 337.434 63.7995 337.434 65.4141C337.434 65.8893 337.414 66.332 337.375 66.7422H330.109V65.1602H335.559C335.559 64.2292 335.337 63.5163 334.895 63.0215C334.452 62.5202 333.84 62.2695 333.059 62.2695C332.18 62.2695 331.496 62.569 331.008 63.168C330.526 63.7669 330.285 64.6133 330.285 65.707C330.285 66.9049 330.617 67.8164 331.281 68.4414C331.952 69.0664 332.902 69.3789 334.133 69.3789C334.562 69.3789 334.986 69.3561 335.402 69.3105C335.819 69.2585 336.242 69.1901 336.672 69.1055L336.926 70.9219C336.314 71.0391 335.754 71.1139 335.246 71.1465C334.738 71.179 334.289 71.1953 333.898 71.1953Z" fill="black"/>
<rect x="318.5" y="48.5" width="29" height="29" rx="3.5" stroke="black"/>
<path d="M141.055 31V24.2617C141.055 23.6042 140.892 23.0996 140.566 22.748C140.241 22.39 139.785 22.2109 139.199 22.2109C137.572 22.2109 136.758 23.2005 136.758 25.1797L136.152 22.5234H136.953C137.012 21.8268 137.266 21.3092 137.715 20.9707C138.164 20.6257 138.822 20.4531 139.688 20.4531C140.781 20.4531 141.628 20.7852 142.227 21.4492C142.826 22.1133 143.125 23.0508 143.125 24.2617V31H141.055ZM134.688 31V16.3516H136.758V31H134.688ZM145.498 35.6875L145.4 33.832L147.021 33.6367C147.705 33.5521 148.288 33.3665 148.77 33.0801C149.258 32.7936 149.674 32.3672 150.02 31.8008C150.365 31.2409 150.667 30.5052 150.928 29.5938L153.506 20.6484H155.654L152.666 30.082C152.275 31.319 151.836 32.3151 151.348 33.0703C150.866 33.8255 150.293 34.3919 149.629 34.7695C148.971 35.1471 148.18 35.388 147.256 35.4922L145.498 35.6875ZM149.424 31L145.303 20.6484H147.451L150.83 29.4375H151.143V31H149.424ZM157.461 24.9844V23.168H167.227V24.9844H157.461ZM169.844 35.4922V20.6484H171.719L171.914 22.8359V35.4922H169.844ZM174.854 31.1953C174.059 31.1953 173.418 31.013 172.93 30.6484C172.448 30.2839 172.174 29.776 172.109 29.125H171.211L171.914 26.1758C171.914 27.2435 172.122 28.054 172.539 28.6074C172.962 29.1608 173.581 29.4375 174.395 29.4375C175.228 29.4375 175.859 29.1413 176.289 28.5488C176.719 27.9564 176.934 27.0807 176.934 25.9219C176.934 24.6979 176.719 23.7734 176.289 23.1484C175.859 22.5234 175.228 22.2109 174.395 22.2109C173.581 22.2109 172.962 22.4876 172.539 23.041C172.122 23.5944 171.914 24.4049 171.914 25.4727L171.211 22.5234H172.012C172.103 21.8724 172.396 21.3646 172.891 21C173.392 20.6354 174.046 20.4531 174.854 20.4531C176.214 20.4531 177.243 20.9154 177.939 21.8398C178.636 22.7643 178.984 24.125 178.984 25.9219C178.984 27.6536 178.636 28.9655 177.939 29.8574C177.243 30.7493 176.214 31.1953 174.854 31.1953ZM187.93 31V24.2617C187.93 23.6042 187.767 23.0996 187.441 22.748C187.116 22.39 186.66 22.2109 186.074 22.2109C184.447 22.2109 183.633 23.2005 183.633 25.1797L183.027 22.5234H183.828C183.887 21.8268 184.141 21.3092 184.59 20.9707C185.039 20.6257 185.697 20.4531 186.562 20.4531C187.656 20.4531 188.503 20.7852 189.102 21.4492C189.701 22.1133 190 23.0508 190 24.2617V31H187.93ZM181.562 31V16.3516H183.633V31H181.562ZM198.398 31.1953C196.634 31.1953 195.27 30.7331 194.307 29.8086C193.35 28.8776 192.871 27.543 192.871 25.8047C192.871 24.112 193.278 22.7969 194.092 21.8594C194.906 20.9219 196.055 20.4531 197.539 20.4531C198.939 20.4531 200.02 20.8763 200.781 21.7227C201.549 22.569 201.934 23.7995 201.934 25.4141C201.934 25.8893 201.914 26.332 201.875 26.7422H194.609V25.1602H200.059C200.059 24.2292 199.837 23.5163 199.395 23.0215C198.952 22.5202 198.34 22.2695 197.559 22.2695C196.68 22.2695 195.996 22.569 195.508 23.168C195.026 23.7669 194.785 24.6133 194.785 25.707C194.785 26.9049 195.117 27.8164 195.781 28.4414C196.452 29.0664 197.402 29.3789 198.633 29.3789C199.062 29.3789 199.486 29.3561 199.902 29.3105C200.319 29.2585 200.742 29.1901 201.172 29.1055L201.426 30.9219C200.814 31.0391 200.254 31.1139 199.746 31.1465C199.238 31.179 198.789 31.1953 198.398 31.1953ZM211.367 31V24.2617C211.367 23.6367 211.204 23.1549 210.879 22.8164C210.553 22.4779 210.098 22.3086 209.512 22.3086C207.884 22.3086 207.07 23.2656 207.07 25.1797L206.465 22.5234H207.266C207.324 21.8268 207.578 21.3092 208.027 20.9707C208.477 20.6257 209.134 20.4531 210 20.4531C211.094 20.4531 211.94 20.7852 212.539 21.4492C213.138 22.1133 213.438 23.0508 213.438 24.2617V31H211.367ZM205 31V20.6484H206.875L207.07 22.8359V31H205ZM216.055 24.9844V23.168H225.82V24.9844H216.055ZM234.785 31.0977L234.648 28.0312L234.375 27.1719V24.4961C234.375 23.806 234.131 23.3014 233.643 22.9824C233.161 22.6569 232.441 22.4811 231.484 22.4551L229.004 22.3867L229.199 20.5508L231.289 20.5801C233.001 20.6061 234.271 20.9772 235.098 21.6934C235.931 22.403 236.348 23.4414 236.348 24.8086V29.125L238.105 29.3398V31L234.785 31.0977ZM231.133 31.1953C230.052 31.1953 229.215 30.9349 228.623 30.4141C228.031 29.8932 227.734 29.1576 227.734 28.207C227.734 27.1133 228.141 26.2734 228.955 25.6875C229.775 25.1016 230.931 24.8086 232.422 24.8086C233.04 24.8086 233.59 24.8477 234.072 24.9258C234.561 24.9974 234.993 25.1081 235.371 25.2578L234.941 26.6641C234.505 26.5664 234.079 26.5111 233.662 26.498C233.245 26.4785 232.819 26.4688 232.383 26.4688C230.586 26.4688 229.688 27.0156 229.688 28.1094C229.688 28.5651 229.84 28.9167 230.146 29.1641C230.459 29.4115 230.898 29.5352 231.465 29.5352C232.109 29.5352 232.646 29.4245 233.076 29.2031C233.512 28.9818 233.838 28.6986 234.053 28.3535C234.268 28.0085 234.375 27.6536 234.375 27.2891V26.1562L234.98 28.8125H234.16L234.492 28.5C234.492 29.099 234.352 29.6003 234.072 30.0039C233.799 30.401 233.411 30.7005 232.91 30.9023C232.409 31.0977 231.816 31.1953 231.133 31.1953ZM246.25 31.1953C244.681 31.1953 243.545 30.8698 242.842 30.2188C242.145 29.5677 241.797 28.526 241.797 27.0938V25.3359H243.867V26.9961C243.867 27.8164 244.066 28.4121 244.463 28.7832C244.867 29.1543 245.527 29.3398 246.445 29.3398C246.771 29.3398 247.116 29.3236 247.48 29.291C247.845 29.252 248.262 29.2031 248.73 29.1445L248.965 30.9609C248.509 31.0391 248.063 31.0977 247.627 31.1367C247.197 31.1758 246.738 31.1953 246.25 31.1953ZM241.797 26.1172V17.5234H243.867V26.1172H241.797ZM239.199 22.4648V20.6484H248.574V22.4648H239.199ZM256.992 31.1953C255.228 31.1953 253.864 30.7331 252.9 29.8086C251.943 28.8776 251.465 27.543 251.465 25.8047C251.465 24.112 251.872 22.7969 252.686 21.8594C253.499 20.9219 254.648 20.4531 256.133 20.4531C257.533 20.4531 258.613 20.8763 259.375 21.7227C260.143 22.569 260.527 23.7995 260.527 25.4141C260.527 25.8893 260.508 26.332 260.469 26.7422H253.203V25.1602H258.652C258.652 24.2292 258.431 23.5163 257.988 23.0215C257.546 22.5202 256.934 22.2695 256.152 22.2695C255.273 22.2695 254.59 22.569 254.102 23.168C253.62 23.7669 253.379 24.6133 253.379 25.707C253.379 26.9049 253.711 27.8164 254.375 28.4414C255.046 29.0664 255.996 29.3789 257.227 29.3789C257.656 29.3789 258.079 29.3561 258.496 29.3105C258.913 29.2585 259.336 29.1901 259.766 29.1055L260.02 30.9219C259.408 31.0391 258.848 31.1139 258.34 31.1465C257.832 31.179 257.383 31.1953 256.992 31.1953Z" fill="black"/>
<path d="M210 121.2V121.7H210.5V121.2H210ZM210.354 113.646C210.158 113.451 209.842 113.451 209.646 113.646L206.464 116.828C206.269 117.024 206.269 117.34 206.464 117.536C206.66 117.731 206.976 117.731 207.172 117.536L210 114.707L212.828 117.536C213.024 117.731 213.34 117.731 213.536 117.536C213.731 117.34 213.731 117.024 213.536 116.828L210.354 113.646ZM190 121.2V120.7H189.5V121.2H190ZM210.5 121.2V114H209.5V121.2H210.5ZM190.5 138V121.2H189.5V138H190.5ZM190 121.7H210V120.7H190V121.7Z" fill="black"/>
<path d="M290 120V120.5H289.5V120H290ZM289.646 113.646C289.842 113.451 290.158 113.451 290.354 113.646L293.536 116.828C293.731 117.024 293.731 117.34 293.536 117.536C293.34 117.731 293.024 117.731 292.828 117.536L290 114.707L287.172 117.536C286.976 117.731 286.66 117.731 286.464 117.536C286.269 117.34 286.269 117.024 286.464 116.828L289.646 113.646ZM342 120V119.5H342.5V120H342ZM289.5 120V114H290.5V120H289.5ZM341.5 134V120H342.5V134H341.5ZM342 120.5H290V119.5H342V120.5Z" fill="black"/>
<path d="M280 158V158.5H279.5V158H280ZM279.646 113.646C279.842 113.451 280.158 113.451 280.354 113.646L283.536 116.828C283.731 117.024 283.731 117.34 283.536 117.536C283.34 117.731 283.024 117.731 282.828 117.536L280 114.707L277.172 117.536C276.976 117.731 276.66 117.731 276.464 117.536C276.269 117.34 276.269 117.024 276.464 116.828L279.646 113.646ZM340 158V157.5H340.5V158H340ZM279.5 158V114H280.5V158H279.5ZM339.5 166V158H340.5V166H339.5ZM340 158.5H280V157.5H340V158.5Z" fill="black"/>
<path d="M254 137.4V137.9H253.5V137.4H254ZM253.646 113.646C253.842 113.451 254.158 113.451 254.354 113.646L257.536 116.828C257.731 117.024 257.731 117.34 257.536 117.536C257.34 117.731 257.024 117.731 256.828 117.536L254 114.707L251.172 117.536C250.976 117.731 250.66 117.731 250.464 117.536C250.269 117.34 250.269 117.024 250.464 116.828L253.646 113.646ZM270 137.4V136.9H270.5V137.4H270ZM253.5 137.4V114H254.5V137.4H253.5ZM269.5 192V137.4H270.5V192H269.5ZM270 137.9H254V136.9H270V137.9Z" fill="black"/>
<path d="M220 167V167.5H220.5V167H220ZM220.354 113.646C220.158 113.451 219.842 113.451 219.646 113.646L216.464 116.828C216.269 117.024 216.269 117.34 216.464 117.536C216.66 117.731 216.976 117.731 217.172 117.536L220 114.707L222.828 117.536C223.024 117.731 223.34 117.731 223.536 117.536C223.731 117.34 223.731 117.024 223.536 116.828L220.354 113.646ZM194 167V166.5H193.5V167H194ZM220.5 167V114H219.5V167H220.5ZM194.5 178V167H193.5V178H194.5ZM194 167.5H220V166.5H194V167.5Z" fill="black"/>
<path d="M114.354 113.646C114.158 113.451 113.842 113.451 113.646 113.646L110.464 116.828C110.269 117.024 110.269 117.34 110.464 117.536C110.66 117.731 110.976 117.731 111.172 117.536L114 114.707L116.828 117.536C117.024 117.731 117.34 117.731 117.536 117.536C117.731 117.34 117.731 117.024 117.536 116.828L114.354 113.646ZM114.5 144V114H113.5V144H114.5Z" fill="black"/>
<path d="M244.354 113.646C244.158 113.451 243.842 113.451 243.646 113.646L240.464 116.828C240.269 117.024 240.269 117.34 240.464 117.536C240.66 117.731 240.976 117.731 241.172 117.536L244 114.707L246.828 117.536C247.024 117.731 247.34 117.731 247.536 117.536C247.731 117.34 247.731 117.024 247.536 116.828L244.354 113.646ZM244.5 214L244.5 114L243.5 114L243.5 214L244.5 214Z" fill="black"/>
<path d="M336.723 146.895L338.676 136.914H340.785L338.812 146.895H336.723ZM336.723 146.895L338.09 145.078H343.793V146.895H336.723ZM345.434 146.895V145.078H346.938V146.895H345.434ZM343.598 150V136.133H345.629V150H343.598ZM355.453 150.195C353.884 150.195 352.748 149.87 352.045 149.219C351.348 148.568 351 147.526 351 146.094V144.336H353.07V145.996C353.07 146.816 353.269 147.412 353.666 147.783C354.07 148.154 354.73 148.34 355.648 148.34C355.974 148.34 356.319 148.324 356.684 148.291C357.048 148.252 357.465 148.203 357.934 148.145L358.168 149.961C357.712 150.039 357.266 150.098 356.83 150.137C356.4 150.176 355.941 150.195 355.453 150.195ZM351 145.117V136.523H353.07V145.117H351ZM348.402 141.465V139.648H357.777V141.465H348.402ZM366.195 150.195C364.431 150.195 363.067 149.733 362.104 148.809C361.146 147.878 360.668 146.543 360.668 144.805C360.668 143.112 361.075 141.797 361.889 140.859C362.702 139.922 363.852 139.453 365.336 139.453C366.736 139.453 367.816 139.876 368.578 140.723C369.346 141.569 369.73 142.799 369.73 144.414C369.73 144.889 369.711 145.332 369.672 145.742H362.406V144.16H367.855C367.855 143.229 367.634 142.516 367.191 142.021C366.749 141.52 366.137 141.27 365.355 141.27C364.477 141.27 363.793 141.569 363.305 142.168C362.823 142.767 362.582 143.613 362.582 144.707C362.582 145.905 362.914 146.816 363.578 147.441C364.249 148.066 365.199 148.379 366.43 148.379C366.859 148.379 367.283 148.356 367.699 148.311C368.116 148.258 368.539 148.19 368.969 148.105L369.223 149.922C368.611 150.039 368.051 150.114 367.543 150.146C367.035 150.179 366.586 150.195 366.195 150.195ZM377.016 150.195C376.618 150.195 376.277 150.055 375.99 149.775C375.71 149.489 375.57 149.147 375.57 148.75C375.57 148.346 375.71 148.005 375.99 147.725C376.277 147.445 376.618 147.305 377.016 147.305C377.419 147.305 377.761 147.445 378.041 147.725C378.321 148.005 378.461 148.346 378.461 148.75C378.461 149.147 378.321 149.489 378.041 149.775C377.761 150.055 377.419 150.195 377.016 150.195Z" fill="black"/>
<path d="M336 151.465H347.719V152.441H336V151.465Z" fill="black"/>
<path d="M260.008 210V203.262C260.008 202.637 259.845 202.155 259.52 201.816C259.194 201.478 258.738 201.309 258.152 201.309C256.525 201.309 255.711 202.266 255.711 204.18L255.105 201.523H255.906C255.965 200.827 256.219 200.309 256.668 199.971C257.117 199.626 257.775 199.453 258.641 199.453C259.734 199.453 260.581 199.785 261.18 200.449C261.779 201.113 262.078 202.051 262.078 203.262V210H260.008ZM253.641 210V199.648H255.516L255.711 201.836V210H253.641ZM265.203 210V207.773C267.345 206.589 268.943 205.358 269.998 204.082C271.059 202.799 271.59 201.478 271.59 200.117C271.59 199.323 271.395 198.727 271.004 198.33C270.613 197.933 270.021 197.734 269.227 197.734C268.699 197.734 268.149 197.887 267.576 198.193C267.003 198.499 266.512 198.906 266.102 199.414L264.754 198.076C265.203 197.432 265.841 196.914 266.668 196.523C267.495 196.133 268.361 195.938 269.266 195.938C270.73 195.938 271.824 196.286 272.547 196.982C273.276 197.673 273.641 198.717 273.641 200.117C273.641 201.517 273.195 202.861 272.303 204.15C271.417 205.433 270.066 206.667 268.25 207.852V210H265.203ZM265.789 210V208.145H274.227V210H265.789ZM283.426 210.098L283.289 207.031L283.016 206.172V203.496C283.016 202.806 282.771 202.301 282.283 201.982C281.801 201.657 281.082 201.481 280.125 201.455L277.645 201.387L277.84 199.551L279.93 199.58C281.642 199.606 282.911 199.977 283.738 200.693C284.572 201.403 284.988 202.441 284.988 203.809V208.125L286.746 208.34V210L283.426 210.098ZM279.773 210.195C278.693 210.195 277.856 209.935 277.264 209.414C276.671 208.893 276.375 208.158 276.375 207.207C276.375 206.113 276.782 205.273 277.596 204.688C278.416 204.102 279.572 203.809 281.062 203.809C281.681 203.809 282.231 203.848 282.713 203.926C283.201 203.997 283.634 204.108 284.012 204.258L283.582 205.664C283.146 205.566 282.719 205.511 282.303 205.498C281.886 205.479 281.46 205.469 281.023 205.469C279.227 205.469 278.328 206.016 278.328 207.109C278.328 207.565 278.481 207.917 278.787 208.164C279.1 208.411 279.539 208.535 280.105 208.535C280.75 208.535 281.287 208.424 281.717 208.203C282.153 207.982 282.479 207.699 282.693 207.354C282.908 207.008 283.016 206.654 283.016 206.289V205.156L283.621 207.812H282.801L283.133 207.5C283.133 208.099 282.993 208.6 282.713 209.004C282.439 209.401 282.052 209.701 281.551 209.902C281.049 210.098 280.457 210.195 279.773 210.195ZM294.891 210.195C293.322 210.195 292.186 209.87 291.482 209.219C290.786 208.568 290.438 207.526 290.438 206.094V204.336H292.508V205.996C292.508 206.816 292.706 207.412 293.104 207.783C293.507 208.154 294.168 208.34 295.086 208.34C295.411 208.34 295.757 208.324 296.121 208.291C296.486 208.252 296.902 208.203 297.371 208.145L297.605 209.961C297.15 210.039 296.704 210.098 296.268 210.137C295.838 210.176 295.379 210.195 294.891 210.195ZM290.438 205.117V196.523H292.508V205.117H290.438ZM287.84 201.465V199.648H297.215V201.465H287.84Z" fill="black"/>
<path d="M193.137 196V182.133H195.168V196H193.137ZM189.66 196V194.145H193.332V196H189.66ZM194.973 196V194.145H198.273V196H194.973ZM189.855 185.277V183.305L193.137 182.133V184.145L189.855 185.277ZM207.727 196V189.262C207.727 188.637 207.564 188.155 207.238 187.816C206.913 187.478 206.457 187.309 205.871 187.309C204.243 187.309 203.43 188.266 203.43 190.18L202.824 187.523H203.625C203.684 186.827 203.938 186.309 204.387 185.971C204.836 185.626 205.493 185.453 206.359 185.453C207.453 185.453 208.299 185.785 208.898 186.449C209.497 187.113 209.797 188.051 209.797 189.262V196H207.727ZM201.359 196V185.648H203.234L203.43 187.836V196H201.359ZM219.426 196.098L219.289 193.031L219.016 192.172V189.496C219.016 188.806 218.771 188.301 218.283 187.982C217.801 187.657 217.082 187.481 216.125 187.455L213.645 187.387L213.84 185.551L215.93 185.58C217.642 185.606 218.911 185.977 219.738 186.693C220.572 187.403 220.988 188.441 220.988 189.809V194.125L222.746 194.34V196L219.426 196.098ZM215.773 196.195C214.693 196.195 213.856 195.935 213.264 195.414C212.671 194.893 212.375 194.158 212.375 193.207C212.375 192.113 212.782 191.273 213.596 190.688C214.416 190.102 215.572 189.809 217.062 189.809C217.681 189.809 218.231 189.848 218.713 189.926C219.201 189.997 219.634 190.108 220.012 190.258L219.582 191.664C219.146 191.566 218.719 191.511 218.303 191.498C217.886 191.479 217.46 191.469 217.023 191.469C215.227 191.469 214.328 192.016 214.328 193.109C214.328 193.565 214.481 193.917 214.787 194.164C215.1 194.411 215.539 194.535 216.105 194.535C216.75 194.535 217.287 194.424 217.717 194.203C218.153 193.982 218.479 193.699 218.693 193.354C218.908 193.008 219.016 192.654 219.016 192.289V191.156L219.621 193.812H218.801L219.133 193.5C219.133 194.099 218.993 194.6 218.713 195.004C218.439 195.401 218.052 195.701 217.551 195.902C217.049 196.098 216.457 196.195 215.773 196.195Z" fill="black"/>
<path d="M92.0078 162V155.262C92.0078 154.604 91.8451 154.1 91.5195 153.748C91.194 153.39 90.7383 153.211 90.1523 153.211C88.5247 153.211 87.7109 154.201 87.7109 156.18L87.1055 153.523H87.9062C87.9648 152.827 88.2188 152.309 88.668 151.971C89.1172 151.626 89.7747 151.453 90.6406 151.453C91.7344 151.453 92.5807 151.785 93.1797 152.449C93.7786 153.113 94.0781 154.051 94.0781 155.262V162H92.0078ZM85.6406 162V147.352H87.7109V162H85.6406ZM96.4512 166.688L96.3535 164.832L97.9746 164.637C98.6582 164.552 99.2409 164.367 99.7227 164.08C100.211 163.794 100.628 163.367 100.973 162.801C101.318 162.241 101.62 161.505 101.881 160.594L104.459 151.648H106.607L103.619 161.082C103.229 162.319 102.789 163.315 102.301 164.07C101.819 164.826 101.246 165.392 100.582 165.77C99.9245 166.147 99.1335 166.388 98.209 166.492L96.4512 166.688ZM100.377 162L96.2559 151.648H98.4043L101.783 160.438H102.096V162H100.377ZM112.457 162.195C111.741 162.195 111.083 162.153 110.484 162.068C109.892 161.984 109.365 161.87 108.902 161.727L109.146 159.861C109.544 159.972 109.99 160.089 110.484 160.213C110.986 160.337 111.617 160.398 112.379 160.398C113.395 160.398 114.182 160.197 114.742 159.793C115.302 159.389 115.582 158.823 115.582 158.094C115.582 157.573 115.419 157.13 115.094 156.766C114.775 156.401 114.309 156.124 113.697 155.936C113.085 155.747 112.34 155.652 111.461 155.652H111.148L110.914 154.383L113.902 154.617C115.009 154.702 115.908 155.063 116.598 155.701C117.288 156.333 117.633 157.195 117.633 158.289C117.633 159.526 117.18 160.486 116.275 161.17C115.377 161.854 114.104 162.195 112.457 162.195ZM111.148 155.652L110.914 154.383C111.943 154.246 112.776 154.044 113.414 153.777C114.059 153.51 114.531 153.188 114.83 152.811C115.136 152.426 115.289 152 115.289 151.531C115.289 150.965 115.104 150.525 114.732 150.213C114.368 149.894 113.844 149.734 113.16 149.734C112.665 149.734 112.138 149.858 111.578 150.105C111.025 150.353 110.501 150.724 110.006 151.219L108.658 149.881C109.257 149.204 109.951 148.712 110.738 148.406C111.526 148.094 112.405 147.938 113.375 147.938C114.638 147.938 115.615 148.208 116.305 148.748C116.995 149.282 117.34 150.047 117.34 151.043C117.34 151.876 117.073 152.602 116.539 153.221C116.005 153.833 115.309 154.253 114.449 154.48V155.652H111.148ZM120.797 166.492V151.648H122.672L122.867 153.836V166.492H120.797ZM125.807 162.195C125.012 162.195 124.371 162.013 123.883 161.648C123.401 161.284 123.128 160.776 123.062 160.125H122.164L122.867 157.176C122.867 158.243 123.076 159.054 123.492 159.607C123.915 160.161 124.534 160.438 125.348 160.438C126.181 160.438 126.812 160.141 127.242 159.549C127.672 158.956 127.887 158.081 127.887 156.922C127.887 155.698 127.672 154.773 127.242 154.148C126.812 153.523 126.181 153.211 125.348 153.211C124.534 153.211 123.915 153.488 123.492 154.041C123.076 154.594 122.867 155.405 122.867 156.473L122.164 153.523H122.965C123.056 152.872 123.349 152.365 123.844 152C124.345 151.635 124.999 151.453 125.807 151.453C127.167 151.453 128.196 151.915 128.893 152.84C129.589 153.764 129.938 155.125 129.938 156.922C129.938 158.654 129.589 159.965 128.893 160.857C128.196 161.749 127.167 162.195 125.807 162.195ZM138.883 162V155.262C138.883 154.604 138.72 154.1 138.395 153.748C138.069 153.39 137.613 153.211 137.027 153.211C135.4 153.211 134.586 154.201 134.586 156.18L133.98 153.523H134.781C134.84 152.827 135.094 152.309 135.543 151.971C135.992 151.626 136.65 151.453 137.516 151.453C138.609 151.453 139.456 151.785 140.055 152.449C140.654 153.113 140.953 154.051 140.953 155.262V162H138.883ZM132.516 162V147.352H134.586V162H132.516Z" fill="black"/>
<path d="M107.438 163.465H119.156V164.441H107.438V163.465Z" fill="black"/>
<path d="M210.008 234V227.262C210.008 226.604 209.845 226.1 209.52 225.748C209.194 225.39 208.738 225.211 208.152 225.211C206.525 225.211 205.711 226.201 205.711 228.18L205.105 225.523H205.906C205.965 224.827 206.219 224.309 206.668 223.971C207.117 223.626 207.775 223.453 208.641 223.453C209.734 223.453 210.581 223.785 211.18 224.449C211.779 225.113 212.078 226.051 212.078 227.262V234H210.008ZM203.641 234V219.352H205.711V234H203.641ZM220.477 234.195C218.712 234.195 217.348 233.733 216.385 232.809C215.428 231.878 214.949 230.543 214.949 228.805C214.949 227.112 215.356 225.797 216.17 224.859C216.984 223.922 218.133 223.453 219.617 223.453C221.017 223.453 222.098 223.876 222.859 224.723C223.628 225.569 224.012 226.799 224.012 228.414C224.012 228.889 223.992 229.332 223.953 229.742H216.688V228.16H222.137C222.137 227.229 221.915 226.516 221.473 226.021C221.03 225.52 220.418 225.27 219.637 225.27C218.758 225.27 218.074 225.569 217.586 226.168C217.104 226.767 216.863 227.613 216.863 228.707C216.863 229.905 217.195 230.816 217.859 231.441C218.53 232.066 219.48 232.379 220.711 232.379C221.141 232.379 221.564 232.356 221.98 232.311C222.397 232.258 222.82 232.19 223.25 232.105L223.504 233.922C222.892 234.039 222.332 234.114 221.824 234.146C221.316 234.179 220.867 234.195 220.477 234.195ZM233.445 234V227.262C233.445 226.637 233.283 226.155 232.957 225.816C232.632 225.478 232.176 225.309 231.59 225.309C229.962 225.309 229.148 226.266 229.148 228.18L228.543 225.523H229.344C229.402 224.827 229.656 224.309 230.105 223.971C230.555 223.626 231.212 223.453 232.078 223.453C233.172 223.453 234.018 223.785 234.617 224.449C235.216 225.113 235.516 226.051 235.516 227.262V234H233.445ZM227.078 234V223.648H228.953L229.148 225.836V234H227.078ZM243.152 234.195C241.655 234.195 240.496 233.84 239.676 233.131C238.855 232.415 238.445 231.409 238.445 230.113H240.535C240.535 230.836 240.763 231.399 241.219 231.803C241.674 232.2 242.326 232.398 243.172 232.398C244.005 232.398 244.65 232.148 245.105 231.646C245.561 231.145 245.789 230.439 245.789 229.527C245.789 228.635 245.542 227.945 245.047 227.457C244.552 226.962 243.849 226.715 242.938 226.715C242.026 226.715 241.173 226.93 240.379 227.359L240.555 225.699C241.069 225.406 241.58 225.211 242.088 225.113C242.596 225.009 243.107 224.957 243.621 224.957C244.962 224.957 246.001 225.354 246.736 226.148C247.472 226.943 247.84 228.069 247.84 229.527C247.84 230.517 247.654 231.36 247.283 232.057C246.919 232.753 246.388 233.284 245.691 233.648C244.995 234.013 244.148 234.195 243.152 234.195ZM239.285 227.359L239.48 220.133H241.57L241.375 226.148L240.379 227.359H239.285ZM240.418 221.949L240.242 220.133H246.961V221.949H240.418ZM256.863 234.098L256.727 231.031L256.453 230.172V227.496C256.453 226.806 256.209 226.301 255.721 225.982C255.239 225.657 254.52 225.481 253.562 225.455L251.082 225.387L251.277 223.551L253.367 223.58C255.079 223.606 256.349 223.977 257.176 224.693C258.009 225.403 258.426 226.441 258.426 227.809V232.125L260.184 232.34V234L256.863 234.098ZM253.211 234.195C252.13 234.195 251.294 233.935 250.701 233.414C250.109 232.893 249.812 232.158 249.812 231.207C249.812 230.113 250.219 229.273 251.033 228.688C251.854 228.102 253.009 227.809 254.5 227.809C255.118 227.809 255.669 227.848 256.15 227.926C256.639 227.997 257.072 228.108 257.449 228.258L257.02 229.664C256.583 229.566 256.157 229.511 255.74 229.498C255.324 229.479 254.897 229.469 254.461 229.469C252.664 229.469 251.766 230.016 251.766 231.109C251.766 231.565 251.919 231.917 252.225 232.164C252.537 232.411 252.977 232.535 253.543 232.535C254.188 232.535 254.725 232.424 255.154 232.203C255.59 231.982 255.916 231.699 256.131 231.354C256.346 231.008 256.453 230.654 256.453 230.289V229.156L257.059 231.812H256.238L256.57 231.5C256.57 232.099 256.43 232.6 256.15 233.004C255.877 233.401 255.49 233.701 254.988 233.902C254.487 234.098 253.895 234.195 253.211 234.195ZM268.328 234.195C266.759 234.195 265.623 233.87 264.92 233.219C264.223 232.568 263.875 231.526 263.875 230.094V228.336H265.945V229.996C265.945 230.816 266.144 231.412 266.541 231.783C266.945 232.154 267.605 232.34 268.523 232.34C268.849 232.34 269.194 232.324 269.559 232.291C269.923 232.252 270.34 232.203 270.809 232.145L271.043 233.961C270.587 234.039 270.141 234.098 269.705 234.137C269.275 234.176 268.816 234.195 268.328 234.195ZM263.875 229.117V220.523H265.945V229.117H263.875ZM261.277 225.465V223.648H270.652V225.465H261.277Z" fill="black"/>
<path d="M237.156 235.465H248.875V236.441H237.156V235.465Z" fill="black"/>
<path d="M294.008 182V175.262C294.008 174.604 293.845 174.1 293.52 173.748C293.194 173.39 292.738 173.211 292.152 173.211C290.525 173.211 289.711 174.201 289.711 176.18L289.105 173.523H289.906C289.965 172.827 290.219 172.309 290.668 171.971C291.117 171.626 291.775 171.453 292.641 171.453C293.734 171.453 294.581 171.785 295.18 172.449C295.779 173.113 296.078 174.051 296.078 175.262V182H294.008ZM287.641 182V167.352H289.711V182H287.641ZM304.477 182.195C302.712 182.195 301.348 181.733 300.385 180.809C299.428 179.878 298.949 178.543 298.949 176.805C298.949 175.112 299.356 173.797 300.17 172.859C300.984 171.922 302.133 171.453 303.617 171.453C305.017 171.453 306.098 171.876 306.859 172.723C307.628 173.569 308.012 174.799 308.012 176.414C308.012 176.889 307.992 177.332 307.953 177.742H300.688V176.16H306.137C306.137 175.229 305.915 174.516 305.473 174.021C305.03 173.52 304.418 173.27 303.637 173.27C302.758 173.27 302.074 173.569 301.586 174.168C301.104 174.767 300.863 175.613 300.863 176.707C300.863 177.905 301.195 178.816 301.859 179.441C302.53 180.066 303.48 180.379 304.711 180.379C305.141 180.379 305.564 180.356 305.98 180.311C306.397 180.258 306.82 180.19 307.25 180.105L307.504 181.922C306.892 182.039 306.332 182.114 305.824 182.146C305.316 182.179 304.867 182.195 304.477 182.195ZM317.445 182V175.262C317.445 174.637 317.283 174.155 316.957 173.816C316.632 173.478 316.176 173.309 315.59 173.309C313.962 173.309 313.148 174.266 313.148 176.18L312.543 173.523H313.344C313.402 172.827 313.656 172.309 314.105 171.971C314.555 171.626 315.212 171.453 316.078 171.453C317.172 171.453 318.018 171.785 318.617 172.449C319.216 173.113 319.516 174.051 319.516 175.262V182H317.445ZM311.078 182V171.648H312.953L313.148 173.836V182H311.078ZM329.145 182.098L329.008 179.031L328.734 178.172V175.496C328.734 174.806 328.49 174.301 328.002 173.982C327.52 173.657 326.801 173.481 325.844 173.455L323.363 173.387L323.559 171.551L325.648 171.58C327.361 171.606 328.63 171.977 329.457 172.693C330.29 173.403 330.707 174.441 330.707 175.809V180.125L332.465 180.34V182L329.145 182.098ZM325.492 182.195C324.411 182.195 323.575 181.935 322.982 181.414C322.39 180.893 322.094 180.158 322.094 179.207C322.094 178.113 322.501 177.273 323.314 176.688C324.135 176.102 325.29 175.809 326.781 175.809C327.4 175.809 327.95 175.848 328.432 175.926C328.92 175.997 329.353 176.108 329.73 176.258L329.301 177.664C328.865 177.566 328.438 177.511 328.021 177.498C327.605 177.479 327.178 177.469 326.742 177.469C324.945 177.469 324.047 178.016 324.047 179.109C324.047 179.565 324.2 179.917 324.506 180.164C324.818 180.411 325.258 180.535 325.824 180.535C326.469 180.535 327.006 180.424 327.436 180.203C327.872 179.982 328.197 179.699 328.412 179.354C328.627 179.008 328.734 178.654 328.734 178.289V177.156L329.34 179.812H328.52L328.852 179.5C328.852 180.099 328.712 180.6 328.432 181.004C328.158 181.401 327.771 181.701 327.27 181.902C326.768 182.098 326.176 182.195 325.492 182.195ZM333.598 178.895L335.551 168.914H337.66L335.688 178.895H333.598ZM333.598 178.895L334.965 177.078H340.668V178.895H333.598ZM342.309 178.895V177.078H343.812V178.895H342.309ZM340.473 182V168.133H342.504V182H340.473Z" fill="black"/>
<path d="M332.875 183.465H344.594V184.441H332.875V183.465Z" fill="black"/>
<path d="M168.008 156V149.262C168.008 148.604 167.845 148.1 167.52 147.748C167.194 147.39 166.738 147.211 166.152 147.211C164.525 147.211 163.711 148.201 163.711 150.18L163.105 147.523H163.906C163.965 146.827 164.219 146.309 164.668 145.971C165.117 145.626 165.775 145.453 166.641 145.453C167.734 145.453 168.581 145.785 169.18 146.449C169.779 147.113 170.078 148.051 170.078 149.262V156H168.008ZM161.641 156V141.352H163.711V156H161.641ZM178.477 156.195C176.712 156.195 175.348 155.733 174.385 154.809C173.428 153.878 172.949 152.543 172.949 150.805C172.949 149.112 173.356 147.797 174.17 146.859C174.984 145.922 176.133 145.453 177.617 145.453C179.017 145.453 180.098 145.876 180.859 146.723C181.628 147.569 182.012 148.799 182.012 150.414C182.012 150.889 181.992 151.332 181.953 151.742H174.688V150.16H180.137C180.137 149.229 179.915 148.516 179.473 148.021C179.03 147.52 178.418 147.27 177.637 147.27C176.758 147.27 176.074 147.569 175.586 148.168C175.104 148.767 174.863 149.613 174.863 150.707C174.863 151.905 175.195 152.816 175.859 153.441C176.53 154.066 177.48 154.379 178.711 154.379C179.141 154.379 179.564 154.356 179.98 154.311C180.397 154.258 180.82 154.19 181.25 154.105L181.504 155.922C180.892 156.039 180.332 156.114 179.824 156.146C179.316 156.179 178.867 156.195 178.477 156.195ZM184.922 156V153.773C187.064 152.589 188.662 151.358 189.717 150.082C190.778 148.799 191.309 147.478 191.309 146.117C191.309 145.323 191.113 144.727 190.723 144.33C190.332 143.933 189.74 143.734 188.945 143.734C188.418 143.734 187.868 143.887 187.295 144.193C186.722 144.499 186.23 144.906 185.82 145.414L184.473 144.076C184.922 143.432 185.56 142.914 186.387 142.523C187.214 142.133 188.079 141.938 188.984 141.938C190.449 141.938 191.543 142.286 192.266 142.982C192.995 143.673 193.359 144.717 193.359 146.117C193.359 147.517 192.913 148.861 192.021 150.15C191.136 151.433 189.785 152.667 187.969 153.852V156H184.922ZM185.508 156V154.145H193.945V156H185.508ZM203.164 156V149.262C203.164 148.637 203.001 148.155 202.676 147.816C202.35 147.478 201.895 147.309 201.309 147.309C199.681 147.309 198.867 148.266 198.867 150.18L198.262 147.523H199.062C199.121 146.827 199.375 146.309 199.824 145.971C200.273 145.626 200.931 145.453 201.797 145.453C202.891 145.453 203.737 145.785 204.336 146.449C204.935 147.113 205.234 148.051 205.234 149.262V156H203.164ZM196.797 156V145.648H198.672L198.867 147.836V156H196.797Z" fill="black"/>
<path d="M183.438 157.465H195.156V158.441H183.438V157.465Z" fill="black"/>
</svg>
