<svg width="115" height="129" viewBox="0 0 115 129" fill="none" xmlns="http://www.w3.org/2000/svg">
<rect width="115" height="129" fill="white"/>
<rect x="58.2222" y="8.89844" width="41" height="92" fill="#F2F2F2"/>
<rect x="58.2222" y="8.89844" width="41" height="92" stroke="black"/>
<line x1="58.497" y1="67.0518" x2="99.7222" y2="67.0518" stroke="black"/>
<circle cx="58.2082" cy="66.8844" r="2.48598" fill="black"/>
<path d="M64.1799 117.758L63.3928 112.413H63.3167L62.5295 117.758H60.8157L60.054 111.029H61.3235L61.8313 116.742H61.9456L62.739 111.029H63.9705L64.7639 116.742H64.8782L65.4495 111.029H66.7825L65.8303 117.758H64.1799ZM68.2424 117.758V116.577H70.8069V112.21H68.6233V111.029H72.1526V116.577H74.2219V117.758H68.2424ZM71.4353 109.963C71.1772 109.963 70.955 109.872 70.7688 109.69C70.5868 109.504 70.4958 109.281 70.4958 109.023C70.4958 108.761 70.5868 108.539 70.7688 108.357C70.955 108.175 71.1772 108.084 71.4353 108.084C71.6977 108.084 71.9198 108.175 72.1018 108.357C72.2838 108.539 72.3748 108.761 72.3748 109.023C72.3748 109.281 72.2838 109.504 72.1018 109.69C71.9198 109.872 71.6977 109.963 71.4353 109.963ZM78.1384 117.885C77.2582 117.885 76.5896 117.595 76.1326 117.015C75.6798 116.435 75.4534 115.583 75.4534 114.457C75.4534 113.289 75.6798 112.405 76.1326 111.804C76.5896 111.203 77.2582 110.902 78.1384 110.902C78.642 110.902 79.0504 111.021 79.3635 111.258C79.6809 111.495 79.8671 111.825 79.9221 112.248H80.0491V108.236H81.3948V117.758L80.1887 117.821L80.0554 116.539H79.9221C79.8798 116.962 79.7 117.292 79.3826 117.529C79.0694 117.766 78.6547 117.885 78.1384 117.885ZM80.0491 114.622V114.165C80.0491 112.752 79.5116 112.045 78.4368 112.045C77.3365 112.045 76.7864 112.849 76.7864 114.457C76.7864 115.98 77.3365 116.742 78.4368 116.742C79.5116 116.742 80.0491 116.035 80.0491 114.622ZM87.4885 117.885C86.4687 117.885 85.7302 117.673 85.2732 117.25C84.8204 116.827 84.594 116.15 84.594 115.219V112.21H82.9055V111.029H84.594V108.998H85.9397V111.029H88.9993V112.21H85.9397V115.155C85.9397 115.688 86.0688 116.076 86.3269 116.317C86.5893 116.558 87.0188 116.679 87.6155 116.679C87.8271 116.679 88.0514 116.668 88.2883 116.647C88.5253 116.621 88.7961 116.59 89.1008 116.552L89.2532 117.732C88.9569 117.783 88.6671 117.821 88.3835 117.847C88.1042 117.872 87.8059 117.885 87.4885 117.885ZM95.2834 117.758V113.378C95.2834 112.95 95.1777 112.622 94.9661 112.394C94.7545 112.161 94.4583 112.045 94.0774 112.045C93.0194 112.045 92.4905 112.688 92.4905 113.975V117.758H91.1448V108.236H92.4905V112.248H92.6174C92.6936 111.351 93.2861 110.902 94.3948 110.902C95.1057 110.902 95.6558 111.118 96.0452 111.55C96.4345 111.981 96.6292 112.591 96.6292 113.378V117.758H95.2834Z" fill="black"/>
<path d="M18.8022 87.5594C17.922 87.5594 17.2534 87.2695 16.7964 86.6898C16.3436 86.11 16.1172 85.2573 16.1172 84.1317C16.1172 82.9637 16.3436 82.0793 16.7964 81.4784C17.2534 80.8775 17.922 80.577 18.8022 80.577C19.3058 80.577 19.7142 80.6955 20.0273 80.9325C20.3447 81.1694 20.5309 81.4995 20.5859 81.9227H20.7129V77.911H22.0586V87.4325L20.8525 87.4959L20.7192 86.2137H20.5859C20.5436 86.6369 20.3638 86.967 20.0464 87.2039C19.7332 87.4409 19.3185 87.5594 18.8022 87.5594ZM20.7129 84.2967V83.8397C20.7129 82.4263 20.1755 81.7196 19.1006 81.7196C18.0003 81.7196 17.4502 82.5236 17.4502 84.1317C17.4502 85.6551 18.0003 86.4168 19.1006 86.4168C20.1755 86.4168 20.7129 85.7101 20.7129 84.2967ZM27.5176 87.5594C26.3708 87.5594 25.4842 87.259 24.8579 86.6581C24.2358 86.0529 23.9248 85.1854 23.9248 84.0555C23.9248 82.9553 24.1893 82.1004 24.7183 81.4911C25.2472 80.8817 25.9941 80.577 26.959 80.577C27.8688 80.577 28.5713 80.8521 29.0664 81.4022C29.5658 81.9523 29.8154 82.7521 29.8154 83.8016C29.8154 84.1105 29.8027 84.3983 29.7773 84.6649H25.2324C25.3509 85.2277 25.6175 85.6551 26.0322 85.9471C26.4469 86.2349 26.9928 86.3788 27.6699 86.3788C27.9492 86.3788 28.2243 86.3639 28.4951 86.3343C28.766 86.3005 29.041 86.256 29.3203 86.201L29.4854 87.3817C29.0876 87.4579 28.7236 87.5065 28.3936 87.5277C28.0635 87.5488 27.7715 87.5594 27.5176 87.5594ZM25.1816 83.6366H28.5967C28.5967 83.0314 28.4528 82.568 28.165 82.2464C27.8773 81.9206 27.4795 81.7577 26.9717 81.7577C26.4512 81.7577 26.0365 81.9206 25.7275 82.2464C25.4186 82.5723 25.2367 83.0357 25.1816 83.6366ZM31.8086 90.3524V80.7039H33.0273L33.1353 81.9227H33.2178C33.277 81.4995 33.4674 81.1694 33.7891 80.9325C34.1149 80.6955 34.5402 80.577 35.0649 80.577C35.9494 80.577 36.618 80.8775 37.0708 81.4784C37.5236 82.0793 37.75 82.9637 37.75 84.1317C37.75 85.2573 37.5236 86.11 37.0708 86.6898C36.618 87.2695 35.9494 87.5594 35.0649 87.5594C34.5487 87.5594 34.1318 87.4409 33.8145 87.2039C33.5013 86.967 33.3236 86.6369 33.2812 86.2137H33.1543V90.3524H31.8086ZM33.1543 84.2967C33.1543 85.7101 33.6917 86.4168 34.7666 86.4168C35.8669 86.4168 36.417 85.6551 36.417 84.1317C36.417 82.5236 35.8669 81.7196 34.7666 81.7196C33.6917 81.7196 33.1543 82.4263 33.1543 83.8397V84.2967ZM43.3867 87.5594C42.3669 87.5594 41.6284 87.3478 41.1714 86.9247C40.7186 86.5015 40.4922 85.8244 40.4922 84.8934V81.8846H38.8037V80.7039H40.4922V78.6727H41.8379V80.7039H44.8975V81.8846H41.8379V84.8299C41.8379 85.3631 41.967 85.7503 42.2251 85.9915C42.4875 86.2328 42.917 86.3534 43.5137 86.3534C43.7253 86.3534 43.9495 86.3428 44.1865 86.3216C44.4235 86.2962 44.6943 86.2645 44.999 86.2264L45.1514 87.4071C44.8551 87.4579 44.5653 87.4959 44.2817 87.5213C44.0024 87.5467 43.7041 87.5594 43.3867 87.5594ZM51.1816 87.4325V83.0526C51.1816 82.6252 51.0758 82.2972 50.8643 82.0687C50.6527 81.8359 50.3564 81.7196 49.9756 81.7196C48.9176 81.7196 48.3887 82.3628 48.3887 83.6493V87.4325H47.043V77.911H48.3887V81.9227H48.5156C48.5918 81.0256 49.1842 80.577 50.293 80.577C51.0039 80.577 51.554 80.7928 51.9434 81.2245C52.3327 81.6561 52.5273 82.2655 52.5273 83.0526V87.4325H51.1816Z" fill="black"/>
<path d="M13.502 33.9904V29.6105C13.502 29.1831 13.3962 28.8551 13.1846 28.6266C12.973 28.3939 12.6768 28.2775 12.2959 28.2775C11.238 28.2775 10.709 28.9207 10.709 30.2072V33.9904H9.36328V24.4689H10.709V28.4806H10.8359C10.9121 27.5835 11.5046 27.1349 12.6133 27.1349C13.3242 27.1349 13.8743 27.3507 14.2637 27.7824C14.653 28.214 14.8477 28.8234 14.8477 29.6105V33.9904H13.502ZM20.3066 34.1173C19.1598 34.1173 18.2733 33.8169 17.647 33.216C17.0249 32.6108 16.7139 31.7433 16.7139 30.6134C16.7139 29.5132 16.9784 28.6584 17.5073 28.049C18.0363 27.4396 18.7832 27.1349 19.748 27.1349C20.6579 27.1349 21.3604 27.41 21.8555 27.9601C22.3548 28.5102 22.6045 29.31 22.6045 30.3595C22.6045 30.6684 22.5918 30.9562 22.5664 31.2228H18.0215C18.14 31.7856 18.4066 32.213 18.8213 32.505C19.236 32.7928 19.7819 32.9367 20.459 32.9367C20.7383 32.9367 21.0133 32.9219 21.2842 32.8922C21.555 32.8584 21.8301 32.814 22.1094 32.7589L22.2744 33.9396C21.8766 34.0158 21.5127 34.0644 21.1826 34.0856C20.8525 34.1068 20.5605 34.1173 20.3066 34.1173ZM17.9707 30.1945H21.3857C21.3857 29.5893 21.2419 29.126 20.9541 28.8044C20.6663 28.4785 20.2686 28.3156 19.7607 28.3156C19.2402 28.3156 18.8255 28.4785 18.5166 28.8044C18.2077 29.1302 18.0257 29.5936 17.9707 30.1945ZM24.5469 33.9904V32.8097H27.1113V28.4425H24.9277V27.2619H28.457V32.8097H30.5264V33.9904H24.5469ZM27.7397 26.1955C27.4816 26.1955 27.2594 26.1045 27.0732 25.9225C26.8913 25.7363 26.8003 25.5141 26.8003 25.256C26.8003 24.9936 26.8913 24.7715 27.0732 24.5895C27.2594 24.4075 27.4816 24.3166 27.7397 24.3166C28.0021 24.3166 28.2243 24.4075 28.4062 24.5895C28.5882 24.7715 28.6792 24.9936 28.6792 25.256C28.6792 25.5141 28.5882 25.7363 28.4062 25.9225C28.2243 26.1045 28.0021 26.1955 27.7397 26.1955ZM32.3037 37.0246L32.2402 35.7931L34.3984 35.7296C35.0798 35.7085 35.5749 35.5202 35.8838 35.1647C36.1927 34.8092 36.3493 34.2866 36.3535 33.5968V32.7716H36.2266C36.1842 33.1948 36.0044 33.5249 35.687 33.7619C35.3739 33.9989 34.9591 34.1173 34.4429 34.1173C33.5627 34.1173 32.894 33.8275 32.437 33.2477C31.9842 32.668 31.7578 31.8153 31.7578 30.6896C31.7578 29.5216 31.9842 28.6372 32.437 28.0363C32.894 27.4354 33.5627 27.1349 34.4429 27.1349C34.9676 27.1349 35.3929 27.2534 35.7188 27.4904C36.0446 27.7274 36.235 28.0574 36.29 28.4806H36.3726L36.4805 27.2619H37.6992V33.3937C37.6992 34.5913 37.4263 35.4757 36.8804 36.047C36.3345 36.6183 35.4648 36.923 34.2715 36.9611L32.3037 37.0246ZM36.3535 30.3976C36.3535 28.9842 35.8161 28.2775 34.7412 28.2775C33.641 28.2775 33.0908 29.0815 33.0908 30.6896C33.0908 32.213 33.641 32.9748 34.7412 32.9748C35.8161 32.9748 36.3535 32.2681 36.3535 30.8546V30.3976ZM43.9707 33.9904V29.6105C43.9707 29.1831 43.8649 28.8551 43.6533 28.6266C43.4417 28.3939 43.1455 28.2775 42.7646 28.2775C41.7067 28.2775 41.1777 28.9207 41.1777 30.2072V33.9904H39.832V24.4689H41.1777V28.4806H41.3047C41.3809 27.5835 41.9733 27.1349 43.082 27.1349C43.793 27.1349 44.3431 27.3507 44.7324 27.7824C45.1217 28.214 45.3164 28.8234 45.3164 29.6105V33.9904H43.9707ZM51.4102 34.1173C50.3903 34.1173 49.6519 33.9058 49.1948 33.4826C48.742 33.0594 48.5156 32.3823 48.5156 31.4513V28.4425H46.8271V27.2619H48.5156V25.2306H49.8613V27.2619H52.9209V28.4425H49.8613V31.3878C49.8613 31.9211 49.9904 32.3083 50.2485 32.5495C50.5109 32.7907 50.9404 32.9113 51.5371 32.9113C51.7487 32.9113 51.973 32.9007 52.21 32.8795C52.4469 32.8542 52.7178 32.8224 53.0225 32.7843L53.1748 33.965C52.8786 34.0158 52.5887 34.0539 52.3052 34.0793C52.0259 34.1046 51.7275 34.1173 51.4102 34.1173Z" fill="black"/>
<path d="M71.1164 82.7346V40.5245H62.8655V35.4003L71.1164 34.2712V27.4967C71.1164 22.7488 72.3323 19.0431 74.7642 16.3796C77.254 13.6583 81.0754 12.2976 86.2287 12.2976C89.1237 12.2976 91.1792 12.4713 92.3952 12.8187C93.669 13.1661 94.6244 13.4267 95.2613 13.6004L96.2167 13.8609L94.827 20.2011C91.5845 19.7958 89.0948 19.5932 87.3577 19.5932C85.6207 19.5932 84.0284 20.259 82.5809 21.5908C81.1912 22.8646 80.4964 24.8911 80.4964 27.6704V34.2712H90.9187L89.8765 40.5245H80.4964V82.9083C80.4964 87.6563 79.5411 91.3619 77.6303 94.0254C75.7196 96.7468 72.7666 98.1075 68.7714 98.1075C66.5132 98.1075 64.4867 97.789 62.6918 97.1521L63.8208 90.5513C64.5156 90.725 65.4131 90.8119 66.5132 90.8119C69.582 90.8119 71.1164 88.1195 71.1164 82.7346Z" fill="black"/>
</svg>
