<svg width="400" height="220" viewBox="0 0 400 220" fill="none" xmlns="http://www.w3.org/2000/svg">
<rect width="400" height="220" fill="white"/>
<circle cx="39.6467" cy="102.234" r="14.3982" fill="white" stroke="black" stroke-width="1.20359"/>
<circle cx="102.234" cy="32.4251" r="14.3982" fill="white" stroke="black" stroke-width="1.20359"/>
<circle cx="102.234" cy="102.234" r="14.3982" fill="white" stroke="black" stroke-width="1.20359"/>
<circle cx="102.234" cy="174.449" r="14.3982" fill="white" stroke="black" stroke-width="1.20359"/>
<circle cx="170.838" cy="191.299" r="14.3982" fill="white" stroke="black" stroke-width="1.20359"/>
<circle cx="239.443" cy="191.299" r="14.3982" fill="white" stroke="black" stroke-width="1.20359"/>
<circle cx="239.443" cy="191.299" r="11.991" fill="white" stroke="black" stroke-width="1.20359"/>
<path d="M233.666 195.521L230.91 187.12H232.318L233.654 191.272L234.46 194.197H234.508L235.327 191.272L236.663 187.12H238.035L235.243 195.521H233.666ZM238.925 195.521V194.414H240.068V188.227H238.925V187.12H242.584V188.227H241.428V194.414H242.584V195.521H238.925ZM243.932 195.521V194.414H245.075V188.227H243.932V187.12H247.591V188.227H246.435V194.414H247.591V195.521H243.932Z" fill="black"/>
<circle cx="170.838" cy="139.545" r="14.3982" fill="white" stroke="black" stroke-width="1.20359"/>
<circle cx="239.443" cy="139.545" r="14.3982" fill="white" stroke="black" stroke-width="1.20359"/>
<circle cx="170.838" cy="32.4251" r="14.3982" fill="white" stroke="black" stroke-width="1.20359"/>
<circle cx="170.838" cy="32.4251" r="11.991" fill="white" stroke="black" stroke-width="1.20359"/>
<path d="M169.045 36.6467V35.5394H170.188V29.3529H169.045V28.2456H172.704V29.3529H171.548V35.5394H172.704V36.6467H169.045Z" fill="black"/>
<circle cx="239.443" cy="32.4251" r="14.3982" fill="white" stroke="black" stroke-width="1.20359"/>
<circle cx="239.443" cy="32.4251" r="11.991" fill="white" stroke="black" stroke-width="1.20359"/>
<path d="M235.646 36.6467V35.5394H236.789V29.3529H235.646V28.2456H239.305V29.3529H238.149V35.5394H239.305V36.6467H235.646ZM240.653 36.6467V35.5394H241.796V29.3529H240.653V28.2456H244.312V29.3529H243.157V35.5394H244.312V36.6467H240.653Z" fill="black"/>
<circle cx="308.048" cy="139.545" r="14.3982" fill="white" stroke="black" stroke-width="1.20359"/>
<circle cx="308.048" cy="139.545" r="11.991" fill="white" stroke="black" stroke-width="1.20359"/>
<path d="M305.274 143.766L302.518 135.365H303.926L305.262 139.518L306.069 142.443H306.117L306.935 139.518L308.271 135.365H309.643L306.851 143.766H305.274ZM310.533 143.766V142.659H311.677V136.473H310.533V135.365H314.192V136.473H313.037V142.659H314.192V143.766H310.533Z" fill="black"/>
<circle cx="170.838" cy="90.1976" r="14.3982" fill="white" stroke="black" stroke-width="1.20359"/>
<circle cx="239.443" cy="90.1976" r="14.3982" fill="white" stroke="black" stroke-width="1.20359"/>
<circle cx="239.443" cy="90.1976" r="11.991" fill="white" stroke="black" stroke-width="1.20359"/>
<path d="M232.642 94.4192V93.3119H233.786V87.1254H232.642V86.0181H236.301V87.1254H235.146V93.3119H236.301V94.4192H232.642ZM237.649 94.4192V93.3119H238.793V87.1254H237.649V86.0181H241.308V87.1254H240.153V93.3119H241.308V94.4192H237.649ZM242.657 94.4192V93.3119H243.8V87.1254H242.657V86.0181H246.316V87.1254H245.16V93.3119H246.316V94.4192H242.657Z" fill="black"/>
<circle cx="308.048" cy="90.1976" r="14.3982" fill="white" stroke="black" stroke-width="1.20359"/>
<circle cx="308.048" cy="90.1976" r="11.991" fill="white" stroke="black" stroke-width="1.20359"/>
<path d="M302.975 94.4192V93.3119H304.119V87.1254H302.975V86.0181H306.634V87.1254H305.479V93.3119H306.634V94.4192H302.975ZM310.281 94.4192L307.525 86.0181H308.933L310.269 90.1705L311.076 93.0952H311.124L311.942 90.1705L313.278 86.0181H314.65L311.858 94.4192H310.281Z" fill="black"/>
<circle cx="376.653" cy="90.1976" r="14.3982" fill="white" stroke="black" stroke-width="1.20359"/>
<circle cx="376.653" cy="90.1976" r="11.991" fill="white" stroke="black" stroke-width="1.20359"/>
<path d="M375.883 94.4192L373.126 86.0181H374.535L375.871 90.1705L376.677 93.0952H376.725L377.544 90.1705L378.88 86.0181H380.252L377.459 94.4192H375.883Z" fill="black"/>
<path d="M93.7504 45.0745C93.732 44.799 93.4938 44.5905 93.2182 44.6089L88.7282 44.9082C88.4527 44.9266 88.2442 45.1648 88.2626 45.4404C88.2809 45.7159 88.5192 45.9244 88.7947 45.906L92.7858 45.6399L93.0519 49.6311C93.0703 49.9066 93.3085 50.1151 93.5841 50.0967C93.8596 50.0783 94.0681 49.8401 94.0497 49.5646L93.7504 45.0745ZM51.502 93.5807L93.6278 45.437L92.8752 44.7785L50.7494 92.9222L51.502 93.5807Z" fill="black"/>
<path d="M156.192 33.4254C156.387 33.2302 156.387 32.9136 156.192 32.7183L153.01 29.5363C152.815 29.3411 152.498 29.3411 152.303 29.5363C152.108 29.7316 152.108 30.0482 152.303 30.2434L155.131 33.0719L152.303 35.9003C152.108 36.0956 152.108 36.4121 152.303 36.6074C152.498 36.8027 152.815 36.8027 153.01 36.6074L156.192 33.4254ZM117.323 33.5719H155.838V32.5719H117.323V33.5719Z" fill="black"/>
<path d="M156.281 91.0763C156.409 90.8317 156.315 90.5295 156.07 90.4014L152.084 88.3134C151.839 88.1852 151.537 88.2797 151.409 88.5243C151.281 88.7689 151.375 89.0711 151.62 89.1992L155.163 91.0552L153.307 94.5986C153.179 94.8432 153.274 95.1453 153.518 95.2735C153.763 95.4016 154.065 95.3072 154.193 95.0626L156.281 91.0763ZM117.472 103.357L155.987 91.3216L155.689 90.3671L117.174 102.403L117.472 103.357Z" fill="black"/>
<path d="M224.797 91.1979C224.992 91.0026 224.992 90.686 224.797 90.4907L221.615 87.3088C221.419 87.1135 221.103 87.1135 220.908 87.3088C220.712 87.504 220.712 87.8206 220.908 88.0159L223.736 90.8443L220.908 93.6727C220.712 93.868 220.712 94.1846 220.908 94.3798C221.103 94.5751 221.419 94.5751 221.615 94.3798L224.797 91.1979ZM185.928 91.3443H224.443V90.3443H185.928V91.3443Z" fill="black"/>
<path d="M224.797 140.545C224.992 140.35 224.992 140.033 224.797 139.838L221.615 136.656C221.419 136.461 221.103 136.461 220.908 136.656C220.712 136.851 220.712 137.168 220.908 137.363L223.736 140.192L220.908 143.02C220.712 143.215 220.712 143.532 220.908 143.727C221.103 143.922 221.419 143.922 221.615 143.727L224.797 140.545ZM185.928 140.692H224.443V139.692H185.928V140.692Z" fill="black"/>
<path d="M293.401 91.1979C293.597 91.0026 293.597 90.686 293.401 90.4907L290.219 87.3088C290.024 87.1135 289.708 87.1135 289.512 87.3088C289.317 87.504 289.317 87.8206 289.512 88.0159L292.341 90.8443L289.512 93.6727C289.317 93.868 289.317 94.1846 289.512 94.3798C289.708 94.5751 290.024 94.5751 290.219 94.3798L293.401 91.1979ZM254.533 91.3443L293.048 91.3443V90.3443L254.533 90.3443V91.3443Z" fill="black"/>
<path d="M362.006 91.1979C362.202 91.0026 362.202 90.686 362.006 90.4907L358.824 87.3088C358.629 87.1135 358.312 87.1135 358.117 87.3088C357.922 87.504 357.922 87.8206 358.117 88.0159L360.946 90.8443L358.117 93.6727C357.922 93.868 357.922 94.1846 358.117 94.3798C358.312 94.5751 358.629 94.5751 358.824 94.3798L362.006 91.1979ZM323.138 91.3443H361.653V90.3443H323.138V91.3443Z" fill="black"/>
<path d="M224.797 33.4254C224.992 33.2302 224.992 32.9136 224.797 32.7183L221.615 29.5363C221.419 29.3411 221.103 29.3411 220.908 29.5363C220.712 29.7316 220.712 30.0482 220.908 30.2434L223.736 33.0719L220.908 35.9003C220.712 36.0956 220.712 36.4121 220.908 36.6074C221.103 36.8027 221.419 36.8027 221.615 36.6074L224.797 33.4254ZM185.928 33.5719H224.443V32.5719H185.928V33.5719Z" fill="black"/>
<path d="M293.401 140.545C293.597 140.35 293.597 140.033 293.401 139.838L290.219 136.656C290.024 136.461 289.708 136.461 289.512 136.656C289.317 136.851 289.317 137.168 289.512 137.363L292.341 140.192L289.512 143.02C289.317 143.215 289.317 143.532 289.512 143.727C289.708 143.922 290.024 143.922 290.219 143.727L293.401 140.545ZM254.533 140.692H293.048V139.692H254.533V140.692Z" fill="black"/>
<path d="M87.5871 103.234C87.7823 103.039 87.7823 102.722 87.5871 102.527L84.4051 99.3447C84.2098 99.1495 83.8932 99.1495 83.698 99.3447C83.5027 99.54 83.5027 99.8566 83.698 100.052L86.5264 102.88L83.698 105.709C83.5027 105.904 83.5027 106.221 83.698 106.416C83.8932 106.611 84.2098 106.611 84.4051 106.416L87.5871 103.234ZM54.7365 103.38H87.2335V102.38H54.7365V103.38Z" fill="black"/>
<path d="M25.0003 103.234C25.1955 103.039 25.1955 102.722 25.0003 102.527L21.8183 99.3447C21.623 99.1495 21.3064 99.1495 21.1112 99.3447C20.9159 99.54 20.9159 99.8566 21.1112 100.052L23.9396 102.88L21.1112 105.709C20.9159 105.904 20.9159 106.221 21.1112 106.416C21.3064 106.611 21.623 106.611 21.8183 106.416L25.0003 103.234ZM9 103.38L24.6467 103.38L24.6467 102.38L9 102.38L9 103.38Z" fill="black"/>
<path d="M90.799 164.761C91.074 164.786 91.3172 164.584 91.3422 164.309L91.7496 159.827C91.7746 159.552 91.572 159.309 91.297 159.284C91.022 159.259 90.7787 159.462 90.7537 159.737L90.3916 163.72L86.408 163.358C86.133 163.333 85.8898 163.536 85.8648 163.811C85.8398 164.086 86.0425 164.329 86.3175 164.354L90.799 164.761ZM48.3344 114.033L90.4602 164.584L91.2284 163.943L49.1026 113.392L48.3344 114.033Z" fill="black"/>
<path d="M156.111 189.958C156.342 189.808 156.408 189.498 156.258 189.266L153.805 185.493C153.655 185.262 153.345 185.196 153.113 185.347C152.882 185.497 152.816 185.807 152.967 186.038L155.147 189.392L151.793 191.572C151.561 191.723 151.496 192.032 151.646 192.264C151.797 192.495 152.106 192.561 152.338 192.411L156.111 189.958ZM116.016 181.603L155.735 190.028L155.942 189.05L116.224 180.625L116.016 181.603Z" fill="black"/>
<path d="M224.797 192.3C224.992 192.104 224.992 191.788 224.797 191.593L221.615 188.411C221.419 188.215 221.103 188.215 220.908 188.411C220.712 188.606 220.712 188.922 220.908 189.118L223.736 191.946L220.908 194.775C220.712 194.97 220.712 195.286 220.908 195.482C221.103 195.677 221.419 195.677 221.615 195.482L224.797 192.3ZM185.928 192.446H224.443V191.446H185.928V192.446Z" fill="black"/>
<path d="M157.157 133.457C157.426 133.393 157.592 133.124 157.528 132.855L156.493 128.476C156.43 128.207 156.161 128.041 155.892 128.104C155.623 128.168 155.457 128.437 155.52 128.706L156.44 132.598L152.548 133.519C152.279 133.582 152.112 133.851 152.176 134.12C152.24 134.389 152.509 134.555 152.778 134.492L157.157 133.457ZM115.857 108.12L156.779 133.395L157.305 132.545L116.382 107.269L115.857 108.12Z" fill="black"/>
<path d="M64.5831 66.9221V60.8395C64.5831 60.2754 64.4362 59.8405 64.1423 59.5349C63.8485 59.2293 63.4371 59.0765 62.9082 59.0765C61.4389 59.0765 60.7043 59.9404 60.7043 61.6682L60.1578 59.2704H60.8806C60.9335 58.6416 61.1627 58.1744 61.5682 57.8688C61.9737 57.5573 62.5673 57.4015 63.3489 57.4015C64.3363 57.4015 65.1003 57.7013 65.6409 58.3007C66.1816 58.9002 66.452 59.7464 66.452 60.8395V66.9221H64.5831ZM58.8355 66.9221V57.5779H60.528L60.7043 59.5525V66.9221H58.8355Z" fill="black"/>
<path d="M137.985 26.0882L137.861 23.3201L137.614 22.5444V20.129C137.614 19.506 137.394 19.0505 136.953 18.7626C136.518 18.4687 135.869 18.3101 135.005 18.2865L132.766 18.2248L132.942 16.5675L134.829 16.594C136.374 16.6175 137.52 16.9525 138.267 17.5989C139.019 18.2395 139.395 19.1769 139.395 20.4111V24.3074L140.982 24.5014V26L137.985 26.0882ZM134.688 26.1763C133.712 26.1763 132.957 25.9412 132.422 25.4711C131.887 25.0009 131.62 24.3368 131.62 23.4788C131.62 22.4915 131.987 21.7334 132.722 21.2044C133.462 20.6755 134.505 20.4111 135.851 20.4111C136.41 20.4111 136.906 20.4463 137.341 20.5168C137.782 20.5815 138.173 20.6814 138.514 20.8166L138.126 22.086C137.732 21.9978 137.347 21.9479 136.971 21.9361C136.595 21.9185 136.21 21.9097 135.816 21.9097C134.194 21.9097 133.383 22.4033 133.383 23.3906C133.383 23.802 133.521 24.1194 133.797 24.3427C134.079 24.566 134.476 24.6777 134.987 24.6777C135.569 24.6777 136.054 24.5778 136.442 24.378C136.836 24.1782 137.13 23.9225 137.323 23.611C137.517 23.2996 137.614 22.9793 137.614 22.6502V21.6276L138.161 24.0254H137.42L137.72 23.7433C137.72 24.2839 137.594 24.7365 137.341 25.1008C137.094 25.4593 136.745 25.7297 136.292 25.9118C135.84 26.0882 135.305 26.1763 134.688 26.1763Z" fill="black"/>
<path d="M136.874 92.3739C135.281 92.3739 134.05 91.9566 133.18 91.1221C132.316 90.2817 131.884 89.077 131.884 87.5078C131.884 85.9798 132.252 84.7927 132.986 83.9464C133.721 83.1001 134.758 82.677 136.098 82.677C137.362 82.677 138.337 83.059 139.025 83.823C139.718 84.587 140.065 85.6977 140.065 87.1552C140.065 87.5842 140.047 87.9839 140.012 88.3541H133.454V86.926H138.372C138.372 86.0856 138.173 85.4421 137.773 84.9954C137.373 84.5429 136.821 84.3167 136.116 84.3167C135.322 84.3167 134.705 84.587 134.265 85.1277C133.83 85.6683 133.612 86.4323 133.612 87.4197C133.612 88.501 133.912 89.3238 134.511 89.888C135.117 90.4522 135.975 90.7342 137.085 90.7342C137.473 90.7342 137.855 90.7137 138.231 90.6725C138.608 90.6255 138.99 90.5638 139.377 90.4874L139.607 92.1271C139.054 92.2329 138.549 92.3004 138.09 92.3298C137.632 92.3592 137.226 92.3739 136.874 92.3739Z" fill="black"/>
<path d="M209.014 87.3832V81.3006C209.014 80.7364 208.867 80.3016 208.573 79.996C208.28 79.6904 207.868 79.5376 207.339 79.5376C205.87 79.5376 205.135 80.4015 205.135 82.1293L204.589 79.7315H205.312C205.365 79.1027 205.594 78.6354 205.999 78.3298C206.405 78.0184 206.998 77.8626 207.78 77.8626C208.767 77.8626 209.531 78.1624 210.072 78.7618C210.613 79.3612 210.883 80.2075 210.883 81.3006V87.3832H209.014ZM203.267 87.3832V78.0389H204.959L205.135 80.0136V87.3832H203.267Z" fill="black"/>
<path d="M75.4154 99.4192V93.3365C75.4154 92.743 75.2685 92.2875 74.9747 91.9702C74.6808 91.6469 74.2694 91.4853 73.7405 91.4853C72.2713 91.4853 71.5367 92.3786 71.5367 94.1652L70.9901 91.7674H71.713C71.7659 91.1386 71.9951 90.6714 72.4006 90.3658C72.8061 90.0543 73.3996 89.8986 74.1813 89.8986C75.1686 89.8986 75.9326 90.1983 76.4733 90.7977C77.0139 91.3972 77.2843 92.2434 77.2843 93.3365V99.4192H75.4154ZM69.6678 99.4192V86.1961H71.5367V99.4192H69.6678Z" fill="black"/>
<path d="M65.5398 154.961C64.1235 154.961 63.098 154.667 62.4633 154.079C61.8344 153.492 61.52 152.551 61.52 151.258V149.672H63.3889V151.17C63.3889 151.911 63.5681 152.448 63.9266 152.783C64.291 153.118 64.8875 153.286 65.7162 153.286C66.01 153.286 66.3215 153.271 66.6506 153.242C66.9797 153.206 67.3558 153.162 67.7789 153.11L67.9905 154.749C67.5791 154.82 67.1766 154.873 66.7828 154.908C66.3949 154.943 65.9806 154.961 65.5398 154.961ZM61.52 150.377V142.619H63.3889V150.377H61.52ZM59.1751 147.08V145.44H67.6379V147.08H59.1751Z" fill="black"/>
<path d="M136.874 200.697C135.281 200.697 134.05 200.28 133.18 199.445C132.316 198.605 131.884 197.4 131.884 195.831C131.884 194.303 132.252 193.116 132.986 192.27C133.721 191.423 134.758 191 136.098 191C137.362 191 138.337 191.382 139.025 192.146C139.718 192.91 140.065 194.021 140.065 195.479C140.065 195.908 140.047 196.307 140.012 196.677H133.454V195.249H138.372C138.372 194.409 138.173 193.765 137.773 193.319C137.373 192.866 136.821 192.64 136.116 192.64C135.322 192.64 134.705 192.91 134.265 193.451C133.83 193.992 133.612 194.756 133.612 195.743C133.612 196.824 133.912 197.647 134.511 198.211C135.117 198.776 135.975 199.058 137.085 199.058C137.473 199.058 137.855 199.037 138.231 198.996C138.608 198.949 138.99 198.887 139.377 198.811L139.607 200.45C139.054 200.556 138.549 200.624 138.09 200.653C137.632 200.683 137.226 200.697 136.874 200.697Z" fill="black"/>
<path d="M205.871 206.715C205.513 206.715 205.204 206.589 204.946 206.336C204.693 206.078 204.567 205.769 204.567 205.411C204.567 205.046 204.693 204.738 204.946 204.485C205.204 204.232 205.513 204.106 205.871 204.106C206.236 204.106 206.544 204.232 206.797 204.485C207.05 204.738 207.176 205.046 207.176 205.411C207.176 205.769 207.05 206.078 206.797 206.336C206.544 206.589 206.236 206.715 205.871 206.715Z" fill="black"/>
<path d="M131.435 142.166L131.347 140.491L132.81 140.314C133.427 140.238 133.953 140.07 134.388 139.812C134.829 139.553 135.205 139.168 135.516 138.657C135.828 138.152 136.101 137.487 136.336 136.665L138.663 128.59H140.603L137.905 137.105C137.553 138.222 137.156 139.121 136.715 139.803C136.28 140.485 135.763 140.996 135.164 141.337C134.57 141.678 133.856 141.895 133.022 141.989L131.435 142.166ZM134.979 137.934L131.258 128.59H133.198L136.248 136.524H136.53V137.934H134.979Z" fill="black"/>
<path d="M202.063 161.247V147.847H203.756L203.932 149.822V161.247H202.063ZM206.585 157.368C205.868 157.368 205.289 157.203 204.849 156.874C204.414 156.545 204.167 156.087 204.108 155.499H203.297L203.932 152.837C203.932 153.801 204.12 154.532 204.496 155.032C204.878 155.531 205.436 155.781 206.171 155.781C206.923 155.781 207.493 155.514 207.881 154.979C208.269 154.444 208.463 153.654 208.463 152.608C208.463 151.503 208.269 150.668 207.881 150.104C207.493 149.54 206.923 149.258 206.171 149.258C205.436 149.258 204.878 149.508 204.496 150.007C204.12 150.507 203.932 151.238 203.932 152.202L203.297 149.54H204.02C204.102 148.952 204.367 148.494 204.813 148.165C205.266 147.836 205.857 147.671 206.585 147.671C207.814 147.671 208.742 148.088 209.371 148.923C210 149.757 210.314 150.986 210.314 152.608C210.314 154.171 210 155.355 209.371 156.16C208.742 156.965 207.814 157.368 206.585 157.368Z" fill="black"/>
<path d="M276.398 87.4714L276.274 84.7034L276.028 83.9276V81.5122C276.028 80.8892 275.807 80.4338 275.366 80.1458C274.932 79.852 274.282 79.6933 273.418 79.6698L271.179 79.6081L271.355 77.9508L273.242 77.9772C274.788 78.0007 275.934 78.3357 276.68 78.9822C277.432 79.6228 277.808 80.5601 277.808 81.7943V85.6907L279.395 85.8846V87.3832L276.398 87.4714ZM273.101 87.5595C272.125 87.5595 271.37 87.3245 270.835 86.8543C270.3 86.3842 270.033 85.7201 270.033 84.862C270.033 83.8747 270.4 83.1166 271.135 82.5877C271.876 82.0588 272.919 81.7943 274.264 81.7943C274.823 81.7943 275.319 81.8296 275.754 81.9001C276.195 81.9647 276.586 82.0646 276.927 82.1998L276.539 83.4692C276.145 83.3811 275.76 83.3311 275.384 83.3194C275.008 83.3017 274.623 83.2929 274.229 83.2929C272.607 83.2929 271.796 83.7866 271.796 84.7739C271.796 85.1853 271.934 85.5026 272.21 85.7259C272.493 85.9493 272.889 86.0609 273.401 86.0609C273.982 86.0609 274.467 85.961 274.855 85.7612C275.249 85.5614 275.543 85.3057 275.737 84.9943C275.931 84.6828 276.028 84.3625 276.028 84.0334V83.0108L276.574 85.4086H275.834L276.133 85.1265C276.133 85.6672 276.007 86.1197 275.754 86.4841C275.507 86.8426 275.158 87.1129 274.705 87.2951C274.253 87.4714 273.718 87.5595 273.101 87.5595Z" fill="black"/>
<path d="M344.773 87.5595C343.357 87.5595 342.332 87.2657 341.697 86.678C341.068 86.0903 340.754 85.15 340.754 83.8571V82.2703H342.622V83.7689C342.622 84.5094 342.802 85.0472 343.16 85.3821C343.525 85.7171 344.121 85.8846 344.95 85.8846C345.244 85.8846 345.555 85.8699 345.884 85.8405C346.213 85.8053 346.589 85.7612 347.012 85.7083L347.224 87.348C346.813 87.4185 346.41 87.4714 346.016 87.5067C345.628 87.5419 345.214 87.5595 344.773 87.5595ZM340.754 82.9756V75.218H342.622V82.9756H340.754ZM338.409 79.6786V78.0389H346.871V79.6786H338.409Z" fill="black"/>
<path d="M203.953 26.1763C202.537 26.1763 201.511 25.8825 200.876 25.2948C200.248 24.7071 199.933 23.7668 199.933 22.4738V20.8871H201.802V22.3857C201.802 23.1262 201.981 23.6639 202.34 23.9989C202.704 24.3339 203.301 24.5014 204.129 24.5014C204.423 24.5014 204.735 24.4867 205.064 24.4573C205.393 24.422 205.769 24.378 206.192 24.3251L206.404 25.9647C205.992 26.0353 205.59 26.0882 205.196 26.1234C204.808 26.1587 204.394 26.1763 203.953 26.1763ZM199.933 21.5923V13.8348H201.802V21.5923H199.933ZM197.588 18.2954V16.6557H206.051V18.2954H197.588Z" fill="black"/>
<path d="M271.601 157.192V151.109C271.601 150.515 271.454 150.06 271.16 149.743C270.866 149.419 270.455 149.258 269.926 149.258C268.457 149.258 267.722 150.151 267.722 151.938L267.176 149.54H267.899C267.951 148.911 268.181 148.444 268.586 148.138C268.992 147.827 269.585 147.671 270.367 147.671C271.354 147.671 272.118 147.971 272.659 148.57C273.2 149.17 273.47 150.016 273.47 151.109V157.192H271.601ZM265.853 157.192V143.969H267.722V157.192H265.853Z" fill="black"/>
</svg>
