<svg width="400" height="220" viewBox="0 0 400 220" fill="none" xmlns="http://www.w3.org/2000/svg">
<rect width="400" height="220" fill="white"/>
<rect x="165.5" y="32.8554" width="37.6627" height="28.6627" fill="white"/>
<path d="M178.503 52.3202C178.231 52.3202 177.998 52.2245 177.802 52.0333C177.611 51.8376 177.515 51.6041 177.515 51.3328C177.515 51.0571 177.611 50.8236 177.802 50.6323C177.998 50.4411 178.231 50.3455 178.503 50.3455C178.778 50.3455 179.012 50.4411 179.203 50.6323C179.394 50.8236 179.49 51.0571 179.49 51.3328C179.49 51.6041 179.394 51.8376 179.203 52.0333C179.012 52.2245 178.778 52.3202 178.503 52.3202ZM183.84 52.3202C183.568 52.3202 183.335 52.2245 183.139 52.0333C182.948 51.8376 182.852 51.6041 182.852 51.3328C182.852 51.0571 182.948 50.8236 183.139 50.6323C183.335 50.4411 183.568 50.3455 183.84 50.3455C184.115 50.3455 184.349 50.4411 184.54 50.6323C184.731 50.8236 184.827 51.0571 184.827 51.3328C184.827 51.6041 184.731 51.8376 184.54 52.0333C184.349 52.2245 184.115 52.3202 183.84 52.3202ZM189.176 52.3202C188.905 52.3202 188.672 52.2245 188.476 52.0333C188.285 51.8376 188.189 51.6041 188.189 51.3328C188.189 51.0571 188.285 50.8236 188.476 50.6323C188.672 50.4411 188.905 50.3455 189.176 50.3455C189.452 50.3455 189.686 50.4411 189.877 50.6323C190.068 50.8236 190.164 51.0571 190.164 51.3328C190.164 51.6041 190.068 51.8376 189.877 52.0333C189.686 52.2245 189.452 52.3202 189.176 52.3202Z" fill="black"/>
<rect x="165.5" y="32.8554" width="37.6627" height="28.6627" stroke="black"/>
<rect x="211.5" y="148.5" width="181" height="28.6627" fill="white"/>
<path d="M221.607 163.962L221.807 162.428H221.887L222.915 158.358H223.862V160.039H223.475L222.448 163.962H221.607ZM218.685 167.831V158.358H220.019V167.831H218.685ZM221.22 163.962L220.193 160.039H219.806V158.358H220.753L221.781 162.428H221.834L221.967 163.962H221.22ZM223.649 167.831V158.358H224.983V167.831H223.649ZM231.294 167.898L231.2 165.803L231.014 165.216V163.388C231.014 162.917 230.847 162.572 230.513 162.354C230.184 162.132 229.693 162.012 229.039 161.994L227.344 161.947L227.478 160.693L228.906 160.713C230.075 160.731 230.942 160.984 231.507 161.474C232.077 161.958 232.361 162.668 232.361 163.602V166.55L233.562 166.697V167.831L231.294 167.898ZM228.799 167.965C228.061 167.965 227.489 167.787 227.084 167.431C226.68 167.075 226.477 166.573 226.477 165.923C226.477 165.176 226.755 164.602 227.311 164.202C227.872 163.802 228.661 163.602 229.679 163.602C230.102 163.602 230.478 163.628 230.807 163.682C231.14 163.731 231.436 163.806 231.694 163.909L231.401 164.869C231.103 164.803 230.811 164.765 230.527 164.756C230.242 164.743 229.951 164.736 229.653 164.736C228.425 164.736 227.811 165.109 227.811 165.857C227.811 166.168 227.916 166.408 228.125 166.577C228.338 166.746 228.639 166.831 229.026 166.831C229.466 166.831 229.833 166.755 230.126 166.604C230.424 166.453 230.647 166.259 230.794 166.023C230.94 165.788 231.014 165.545 231.014 165.296V164.522L231.427 166.337H230.867L231.094 166.123C231.094 166.533 230.998 166.875 230.807 167.151C230.62 167.422 230.355 167.627 230.013 167.765C229.671 167.898 229.266 167.965 228.799 167.965ZM234.963 170.9V160.76H236.244L236.377 162.254V170.9H234.963ZM238.385 167.965C237.843 167.965 237.405 167.84 237.071 167.591C236.742 167.342 236.555 166.995 236.511 166.55H235.897L236.377 164.536C236.377 165.265 236.52 165.819 236.804 166.197C237.093 166.575 237.516 166.764 238.072 166.764C238.641 166.764 239.072 166.562 239.366 166.157C239.66 165.752 239.806 165.154 239.806 164.362C239.806 163.526 239.66 162.895 239.366 162.468C239.072 162.041 238.641 161.827 238.072 161.827C237.516 161.827 237.093 162.016 236.804 162.394C236.52 162.772 236.377 163.326 236.377 164.055L235.897 162.041H236.444C236.506 161.596 236.706 161.249 237.044 161C237.387 160.751 237.834 160.626 238.385 160.626C239.315 160.626 240.018 160.942 240.493 161.574C240.969 162.205 241.207 163.135 241.207 164.362C241.207 165.545 240.969 166.441 240.493 167.051C240.018 167.66 239.315 167.965 238.385 167.965ZM248.879 166.404L242.488 163.775V162.428L248.879 159.799V161.267L243.942 163.041V163.161L248.879 164.936V166.404ZM256.191 169.166C254.745 169.166 253.622 168.634 252.822 167.571C252.026 166.504 251.628 164.998 251.628 163.055C251.628 161.138 252.026 159.655 252.822 158.605C253.622 157.551 254.745 157.024 256.191 157.024H256.511V158.225H256.324C255.27 158.225 254.456 158.647 253.883 159.492C253.313 160.337 253.029 161.525 253.029 163.055C253.029 164.611 253.313 165.819 253.883 166.677C254.456 167.536 255.27 167.965 256.324 167.965H256.511V169.166H256.191ZM261.168 167.965C260.425 167.965 259.849 167.745 259.44 167.304C259.035 166.86 258.833 166.235 258.833 165.43V160.76H260.247V165.43C260.247 165.834 260.363 166.148 260.594 166.37C260.825 166.588 261.15 166.697 261.568 166.697C262.084 166.697 262.473 166.535 262.735 166.21C262.998 165.881 263.129 165.332 263.129 164.562L263.489 166.47H263.022C262.911 166.951 262.693 167.32 262.368 167.578C262.044 167.836 261.643 167.965 261.168 167.965ZM263.249 167.898L263.129 166.204V164.963H264.543V166.55L265.517 166.697V167.831L263.249 167.898ZM263.129 165.83V160.76H264.543V165.43L263.129 165.83ZM269.32 167.965C268.786 167.965 268.328 167.949 267.946 167.918C267.567 167.887 267.221 167.836 266.905 167.765L267.065 166.484C267.532 166.555 267.943 166.608 268.299 166.644C268.659 166.679 269 166.697 269.32 166.697C270.036 166.697 270.554 166.628 270.874 166.49C271.199 166.348 271.361 166.123 271.361 165.817C271.361 165.603 271.303 165.445 271.188 165.343C271.077 165.236 270.903 165.154 270.667 165.096L269.04 164.683C268.341 164.505 267.828 164.284 267.499 164.022C267.174 163.76 267.012 163.362 267.012 162.828C267.012 162.054 267.307 161.494 267.899 161.147C268.495 160.8 269.453 160.626 270.774 160.626C271.117 160.626 271.435 160.638 271.728 160.66C272.026 160.678 272.331 160.711 272.642 160.76L272.495 161.987C272.135 161.952 271.817 161.927 271.541 161.914C271.266 161.901 270.996 161.894 270.734 161.894C269.942 161.894 269.369 161.963 269.013 162.101C268.657 162.234 268.479 162.454 268.479 162.761C268.479 162.966 268.553 163.115 268.699 163.208C268.846 163.297 269.071 163.379 269.373 163.455L270.681 163.775C271.423 163.953 271.966 164.191 272.308 164.489C272.655 164.787 272.829 165.221 272.829 165.79C272.829 166.55 272.551 167.104 271.995 167.451C271.439 167.794 270.547 167.965 269.32 167.965ZM277.632 167.831V161.16H279.046V167.831H277.632ZM274.937 167.831V166.59H277.766V167.831H274.937ZM278.913 167.831V166.59H281.221V167.831H278.913ZM275.337 162.001V160.76H279.046V162.001H275.337ZM278.293 159.639C278.021 159.639 277.788 159.543 277.592 159.352C277.401 159.157 277.305 158.923 277.305 158.652C277.305 158.376 277.401 158.142 277.592 157.951C277.788 157.76 278.021 157.664 278.293 157.664C278.568 157.664 278.802 157.76 278.993 157.951C279.184 158.142 279.28 158.376 279.28 158.652C279.28 158.923 279.184 159.157 278.993 159.352C278.802 159.543 278.568 159.639 278.293 159.639ZM283.943 167.391L282.969 166.577L287.679 161.227L288.653 162.014L283.943 167.391ZM282.969 167.831V166.577H288.786V167.831H282.969ZM282.969 162.014V160.76H288.653V162.014H282.969ZM294.497 167.965C293.292 167.965 292.36 167.649 291.702 167.017C291.048 166.381 290.721 165.47 290.721 164.282C290.721 163.126 290.999 162.228 291.555 161.587C292.111 160.947 292.896 160.626 293.91 160.626C294.866 160.626 295.604 160.916 296.125 161.494C296.65 162.072 296.912 162.912 296.912 164.015C296.912 164.34 296.899 164.642 296.872 164.923H291.909V163.842H295.631C295.631 163.206 295.48 162.719 295.177 162.381C294.875 162.038 294.457 161.867 293.923 161.867C293.323 161.867 292.856 162.072 292.522 162.481C292.193 162.89 292.029 163.468 292.029 164.216C292.029 165.034 292.255 165.657 292.709 166.083C293.167 166.51 293.816 166.724 294.657 166.724C294.951 166.724 295.24 166.708 295.524 166.677C295.809 166.642 296.098 166.595 296.392 166.537L296.565 167.778C296.147 167.858 295.764 167.909 295.418 167.931C295.071 167.954 294.764 167.965 294.497 167.965ZM300.634 170.74L301.168 166.137H302.716L301.915 170.74H300.634ZM307.239 169.166V167.965H307.426C308.48 167.965 309.291 167.536 309.861 166.677C310.434 165.819 310.721 164.611 310.721 163.055C310.721 161.525 310.434 160.337 309.861 159.492C309.291 158.647 308.48 158.225 307.426 158.225H307.239V157.024H307.559C309.009 157.024 310.132 157.551 310.928 158.605C311.724 159.655 312.122 161.138 312.122 163.055C312.122 164.998 311.724 166.504 310.928 167.571C310.132 168.634 309.009 169.166 307.559 169.166H307.239ZM316.645 170.74L317.179 166.137H318.727L317.926 170.74H316.645ZM333.217 167.965C332.474 167.965 331.898 167.745 331.489 167.304C331.084 166.86 330.882 166.235 330.882 165.43V160.76H332.296V165.43C332.296 165.834 332.412 166.148 332.643 166.37C332.874 166.588 333.199 166.697 333.617 166.697C334.133 166.697 334.522 166.535 334.784 166.21C335.047 165.881 335.178 165.332 335.178 164.562L335.538 166.47H335.071C334.96 166.951 334.742 167.32 334.418 167.578C334.093 167.836 333.693 167.965 333.217 167.965ZM335.298 167.898L335.178 166.204V164.963H336.592V166.55L337.566 166.697V167.831L335.298 167.898ZM335.178 165.83V160.76H336.592V165.43L335.178 165.83ZM341.422 167.831V158.358H342.81V167.831H341.422ZM339.047 167.831V166.564H341.556V167.831H339.047ZM342.676 167.831V166.564H344.931V167.831H342.676ZM339.181 160.506V159.159L341.422 158.358V159.732L339.181 160.506ZM346.933 167.831V166.31C348.396 165.501 349.488 164.66 350.208 163.789C350.933 162.912 351.296 162.01 351.296 161.08C351.296 160.537 351.162 160.131 350.895 159.859C350.629 159.588 350.224 159.452 349.681 159.452C349.321 159.452 348.945 159.557 348.554 159.766C348.162 159.975 347.827 160.253 347.546 160.6L346.626 159.686C346.933 159.245 347.369 158.892 347.933 158.625C348.498 158.358 349.09 158.225 349.708 158.225C350.709 158.225 351.456 158.463 351.949 158.939C352.448 159.41 352.697 160.124 352.697 161.08C352.697 162.036 352.392 162.955 351.783 163.835C351.178 164.711 350.255 165.554 349.014 166.364V167.831H346.933ZM347.333 167.831V166.564H353.097V167.831H347.333ZM357.927 167.965C356.9 167.965 356.103 167.727 355.539 167.251C354.978 166.771 354.698 166.097 354.698 165.23C354.698 164.433 354.978 163.82 355.539 163.388C356.103 162.952 356.9 162.735 357.927 162.735C358.954 162.735 359.748 162.952 360.309 163.388C360.873 163.82 361.156 164.433 361.156 165.23C361.156 166.097 360.873 166.771 360.309 167.251C359.748 167.727 358.954 167.965 357.927 167.965ZM357.927 166.737C358.509 166.737 358.959 166.599 359.274 166.324C359.595 166.048 359.755 165.661 359.755 165.163C359.755 164.629 359.595 164.213 359.274 163.915C358.959 163.617 358.509 163.468 357.927 163.468C357.344 163.468 356.893 163.617 356.573 163.915C356.257 164.213 356.099 164.629 356.099 165.163C356.099 165.661 356.257 166.048 356.573 166.324C356.893 166.599 357.344 166.737 357.927 166.737ZM356.819 163.121V162.441H359.048V163.121H356.819ZM357.927 162.187C358.425 162.187 358.81 162.074 359.081 161.847C359.352 161.616 359.488 161.298 359.488 160.893C359.488 160.431 359.352 160.075 359.081 159.826C358.81 159.577 358.425 159.452 357.927 159.452C357.429 159.452 357.044 159.577 356.773 159.826C356.501 160.075 356.366 160.431 356.366 160.893C356.366 161.298 356.501 161.616 356.773 161.847C357.044 162.074 357.429 162.187 357.927 162.187ZM357.927 162.855C356.988 162.855 356.259 162.661 355.739 162.274C355.223 161.883 354.965 161.334 354.965 160.626C354.965 159.866 355.223 159.277 355.739 158.859C356.259 158.436 356.988 158.225 357.927 158.225C358.87 158.225 359.599 158.436 360.115 158.859C360.631 159.277 360.889 159.866 360.889 160.626C360.889 161.334 360.631 161.883 360.115 162.274C359.599 162.661 358.87 162.855 357.927 162.855ZM362.904 166.404V164.936L367.573 163.161V163.041L362.904 161.267V159.799L369.295 162.428V163.775L362.904 166.404Z" fill="black"/>
<rect x="211.5" y="148.5" width="181" height="28.6627" stroke="black"/>
<rect x="211.042" y="177.452" width="181.663" height="28.6627" fill="white"/>
<path d="M221.149 192.914L221.35 191.379H221.43L222.457 187.31H223.404V188.991H223.017L221.99 192.914H221.149ZM218.227 196.783V187.31H219.562V196.783H218.227ZM220.762 192.914L219.735 188.991H219.348V187.31H220.295L221.323 191.379H221.376L221.51 192.914H220.762ZM223.191 196.783V187.31H224.525V196.783H223.191ZM230.836 196.85L230.743 194.755L230.556 194.168V192.34C230.556 191.869 230.389 191.524 230.055 191.306C229.726 191.084 229.235 190.964 228.581 190.946L226.887 190.899L227.02 189.645L228.448 189.665C229.617 189.683 230.485 189.936 231.049 190.425C231.619 190.91 231.903 191.62 231.903 192.554V195.502L233.104 195.649V196.783L230.836 196.85ZM228.341 196.917C227.603 196.917 227.031 196.739 226.626 196.383C226.222 196.027 226.019 195.524 226.019 194.875C226.019 194.128 226.297 193.554 226.853 193.154C227.414 192.754 228.203 192.554 229.222 192.554C229.644 192.554 230.02 192.58 230.349 192.634C230.683 192.683 230.978 192.758 231.236 192.86L230.943 193.821C230.645 193.754 230.353 193.717 230.069 193.708C229.784 193.694 229.493 193.688 229.195 193.688C227.967 193.688 227.354 194.061 227.354 194.808C227.354 195.12 227.458 195.36 227.667 195.529C227.881 195.698 228.181 195.782 228.568 195.782C229.008 195.782 229.375 195.707 229.669 195.556C229.967 195.404 230.189 195.211 230.336 194.975C230.482 194.739 230.556 194.497 230.556 194.248V193.474L230.969 195.289H230.409L230.636 195.075C230.636 195.484 230.54 195.827 230.349 196.103C230.162 196.374 229.898 196.579 229.555 196.716C229.213 196.85 228.808 196.917 228.341 196.917ZM234.505 199.852V189.712H235.786L235.919 191.206V199.852H234.505ZM237.928 196.917C237.385 196.917 236.947 196.792 236.613 196.543C236.284 196.294 236.097 195.947 236.053 195.502H235.439L235.919 193.488C235.919 194.217 236.062 194.771 236.346 195.149C236.636 195.527 237.058 195.716 237.614 195.716C238.183 195.716 238.615 195.513 238.908 195.109C239.202 194.704 239.348 194.106 239.348 193.314C239.348 192.478 239.202 191.846 238.908 191.419C238.615 190.992 238.183 190.779 237.614 190.779C237.058 190.779 236.636 190.968 236.346 191.346C236.062 191.724 235.919 192.278 235.919 193.007L235.439 190.992H235.986C236.048 190.548 236.249 190.201 236.587 189.952C236.929 189.703 237.376 189.578 237.928 189.578C238.857 189.578 239.56 189.894 240.036 190.526C240.512 191.157 240.749 192.087 240.749 193.314C240.749 194.497 240.512 195.393 240.036 196.003C239.56 196.612 238.857 196.917 237.928 196.917ZM248.421 195.355L242.03 192.727V191.379L248.421 188.751V190.219L243.485 191.993V192.113L248.421 193.888V195.355ZM255.733 198.117C254.288 198.117 253.165 197.586 252.364 196.523C251.568 195.456 251.17 193.95 251.17 192.007C251.17 190.09 251.568 188.606 252.364 187.557C253.165 186.503 254.288 185.976 255.733 185.976H256.053V187.177H255.866C254.812 187.177 253.998 187.599 253.425 188.444C252.855 189.289 252.571 190.477 252.571 192.007C252.571 193.563 252.855 194.771 253.425 195.629C253.998 196.487 254.812 196.917 255.866 196.917H256.053V198.117H255.733ZM259.696 193.848V192.58H261.257C261.986 192.58 262.538 192.4 262.911 192.04C263.285 191.675 263.472 191.144 263.472 190.445C263.472 189.832 263.285 189.367 262.911 189.051C262.538 188.735 261.986 188.578 261.257 188.578H259.722V187.31H261.257C262.444 187.31 263.343 187.575 263.952 188.104C264.566 188.633 264.873 189.414 264.873 190.445C264.873 191.562 264.566 192.409 263.952 192.987C263.343 193.561 262.444 193.848 261.257 193.848H259.696ZM258.468 196.783V187.31H259.856V196.783H258.468ZM270.863 196.85L270.77 194.755L270.583 194.168V192.34C270.583 191.869 270.416 191.524 270.083 191.306C269.754 191.084 269.262 190.964 268.608 190.946L266.914 190.899L267.047 189.645L268.475 189.665C269.645 189.683 270.512 189.936 271.077 190.425C271.646 190.91 271.931 191.62 271.931 192.554V195.502L273.132 195.649V196.783L270.863 196.85ZM268.368 196.917C267.63 196.917 267.059 196.739 266.654 196.383C266.249 196.027 266.047 195.524 266.047 194.875C266.047 194.128 266.325 193.554 266.881 193.154C267.441 192.754 268.23 192.554 269.249 192.554C269.671 192.554 270.047 192.58 270.376 192.634C270.71 192.683 271.006 192.758 271.264 192.86L270.97 193.821C270.672 193.754 270.381 193.717 270.096 193.708C269.811 193.694 269.52 193.688 269.222 193.688C267.995 193.688 267.381 194.061 267.381 194.808C267.381 195.12 267.485 195.36 267.694 195.529C267.908 195.698 268.208 195.782 268.595 195.782C269.035 195.782 269.402 195.707 269.696 195.556C269.994 195.404 270.216 195.211 270.363 194.975C270.51 194.739 270.583 194.497 270.583 194.248V193.474L270.997 195.289H270.436L270.663 195.075C270.663 195.484 270.568 195.827 270.376 196.103C270.19 196.374 269.925 196.579 269.582 196.716C269.24 196.85 268.835 196.917 268.368 196.917ZM278.695 196.917C277.623 196.917 276.847 196.694 276.367 196.249C275.891 195.805 275.653 195.093 275.653 194.115V192.914H277.068V194.048C277.068 194.608 277.203 195.015 277.474 195.269C277.75 195.522 278.202 195.649 278.829 195.649C279.051 195.649 279.287 195.638 279.536 195.616C279.785 195.589 280.07 195.556 280.39 195.516L280.55 196.756C280.239 196.81 279.934 196.85 279.636 196.877C279.342 196.903 279.029 196.917 278.695 196.917ZM275.653 193.448V187.577H277.068V193.448H275.653ZM273.879 190.952V189.712H280.283V190.952H273.879ZM286.888 196.783V192.18C286.888 191.731 286.776 191.386 286.554 191.146C286.332 190.901 286.02 190.779 285.62 190.779C284.508 190.779 283.952 191.455 283.952 192.807L283.539 190.992H284.086C284.126 190.517 284.299 190.163 284.606 189.932C284.913 189.696 285.362 189.578 285.954 189.578C286.701 189.578 287.279 189.805 287.688 190.259C288.097 190.712 288.302 191.353 288.302 192.18V196.783H286.888ZM282.538 196.783V186.776H283.952V196.783H282.538ZM291.784 196.783V195.516H293.732C294.319 195.516 294.775 195.382 295.1 195.115C295.425 194.844 295.587 194.466 295.587 193.981C295.587 193.483 295.418 193.098 295.08 192.827C294.742 192.551 294.262 192.413 293.639 192.413H291.811L291.651 191.806H293.972C294.933 191.806 295.676 192.013 296.201 192.427C296.725 192.84 296.988 193.425 296.988 194.181C296.988 195.009 296.739 195.649 296.241 196.103C295.743 196.556 295.035 196.783 294.119 196.783H291.784ZM290.49 196.783V187.31H291.878V196.783H290.49ZM291.331 192.127V191.473H294.052V192.127H291.331ZM291.784 191.753V191.146H293.332C293.835 191.146 294.224 191.035 294.499 190.812C294.78 190.586 294.92 190.263 294.92 189.845C294.92 189.436 294.773 189.122 294.479 188.904C294.19 188.686 293.777 188.578 293.239 188.578H291.811L291.651 187.31H293.305C294.266 187.31 295.009 187.519 295.533 187.937C296.058 188.351 296.321 188.942 296.321 189.712C296.321 190.365 296.072 190.87 295.574 191.226C295.075 191.577 294.368 191.753 293.452 191.753H291.784ZM300.737 196.917C299.994 196.917 299.418 196.696 299.009 196.256C298.604 195.811 298.402 195.186 298.402 194.381V189.712H299.816V194.381C299.816 194.786 299.932 195.1 300.163 195.322C300.395 195.54 300.719 195.649 301.137 195.649C301.653 195.649 302.042 195.487 302.305 195.162C302.567 194.833 302.698 194.284 302.698 193.514L303.059 195.422H302.592C302.48 195.903 302.263 196.272 301.938 196.53C301.613 196.788 301.213 196.917 300.737 196.917ZM302.818 196.85L302.698 195.155V193.914H304.113V195.502L305.087 195.649V196.783L302.818 196.85ZM302.698 194.782V189.712H304.113V194.381L302.698 194.782ZM308.115 196.783V190.312C308.115 187.866 309.232 186.643 311.464 186.643C311.971 186.643 312.461 186.687 312.932 186.776L312.785 188.004C312.505 187.968 312.258 187.944 312.045 187.93C311.831 187.917 311.624 187.91 311.424 187.91C310.161 187.91 309.53 188.689 309.53 190.245V196.783H308.115ZM305.887 192.514V191.273H312.425V192.514H305.887ZM316.188 199.692L316.721 195.089H318.269L317.468 199.692H316.188ZM322.792 198.117V196.917H322.979C324.033 196.917 324.845 196.487 325.414 195.629C325.988 194.771 326.274 193.563 326.274 192.007C326.274 190.477 325.988 189.289 325.414 188.444C324.845 187.599 324.033 187.177 322.979 187.177H322.792V185.976H323.112C324.562 185.976 325.685 186.503 326.481 187.557C327.277 188.606 327.675 190.09 327.675 192.007C327.675 193.95 327.277 195.456 326.481 196.523C325.685 197.586 324.562 198.117 323.112 198.117H322.792ZM332.198 199.692L332.732 195.089H334.28L333.479 199.692H332.198ZM348.77 196.917C348.027 196.917 347.451 196.696 347.042 196.256C346.637 195.811 346.435 195.186 346.435 194.381V189.712H347.849V194.381C347.849 194.786 347.965 195.1 348.196 195.322C348.427 195.54 348.752 195.649 349.17 195.649C349.686 195.649 350.075 195.487 350.338 195.162C350.6 194.833 350.731 194.284 350.731 193.514L351.091 195.422H350.624C350.513 195.903 350.295 196.272 349.971 196.53C349.646 196.788 349.246 196.917 348.77 196.917ZM350.851 196.85L350.731 195.155V193.914H352.145V195.502L353.119 195.649V196.783L350.851 196.85ZM350.731 194.782V189.712H352.145V194.381L350.731 194.782ZM356.975 196.783V187.31H358.363V196.783H356.975ZM354.6 196.783V195.516H357.109V196.783H354.6ZM358.23 196.783V195.516H360.484V196.783H358.23ZM354.734 189.458V188.111L356.975 187.31V188.684L354.734 189.458ZM362.486 196.783V195.262C363.949 194.453 365.041 193.612 365.761 192.74C366.486 191.864 366.849 190.961 366.849 190.032C366.849 189.489 366.715 189.082 366.449 188.811C366.182 188.54 365.777 188.404 365.234 188.404C364.874 188.404 364.498 188.509 364.107 188.718C363.716 188.927 363.38 189.205 363.1 189.552L362.179 188.638C362.486 188.197 362.922 187.844 363.486 187.577C364.051 187.31 364.643 187.177 365.261 187.177C366.262 187.177 367.009 187.415 367.503 187.89C368.001 188.362 368.25 189.076 368.25 190.032C368.25 190.988 367.945 191.906 367.336 192.787C366.731 193.663 365.808 194.506 364.567 195.315V196.783H362.486ZM362.886 196.783V195.516H368.65V196.783H362.886ZM373.48 196.917C372.453 196.917 371.656 196.679 371.092 196.203C370.531 195.722 370.251 195.049 370.251 194.181C370.251 193.385 370.531 192.771 371.092 192.34C371.656 191.904 372.453 191.686 373.48 191.686C374.507 191.686 375.301 191.904 375.862 192.34C376.426 192.771 376.709 193.385 376.709 194.181C376.709 195.049 376.426 195.722 375.862 196.203C375.301 196.679 374.507 196.917 373.48 196.917ZM373.48 195.689C374.063 195.689 374.512 195.551 374.828 195.275C375.148 195 375.308 194.613 375.308 194.115C375.308 193.581 375.148 193.165 374.828 192.867C374.512 192.569 374.063 192.42 373.48 192.42C372.897 192.42 372.446 192.569 372.126 192.867C371.81 193.165 371.652 193.581 371.652 194.115C371.652 194.613 371.81 195 372.126 195.275C372.446 195.551 372.897 195.689 373.48 195.689ZM372.373 192.073V191.393H374.601V192.073H372.373ZM373.48 191.139C373.978 191.139 374.363 191.026 374.634 190.799C374.905 190.568 375.041 190.25 375.041 189.845C375.041 189.383 374.905 189.027 374.634 188.778C374.363 188.529 373.978 188.404 373.48 188.404C372.982 188.404 372.597 188.529 372.326 188.778C372.055 189.027 371.919 189.383 371.919 189.845C371.919 190.25 372.055 190.568 372.326 190.799C372.597 191.026 372.982 191.139 373.48 191.139ZM373.48 191.806C372.542 191.806 371.812 191.613 371.292 191.226C370.776 190.835 370.518 190.285 370.518 189.578C370.518 188.818 370.776 188.228 371.292 187.81C371.812 187.388 372.542 187.177 373.48 187.177C374.423 187.177 375.152 187.388 375.668 187.81C376.184 188.228 376.442 188.818 376.442 189.578C376.442 190.285 376.184 190.835 375.668 191.226C375.152 191.613 374.423 191.806 373.48 191.806ZM378.457 195.355V193.888L383.127 192.113V191.993L378.457 190.219V188.751L384.848 191.379V192.727L378.457 195.355Z" fill="black"/>
<rect x="211.042" y="177.452" width="181.663" height="28.6627" stroke="black"/>
<rect x="165.5" y="120.524" width="45.6627" height="28.6627" fill="white"/>
<path d="M174.813 139.989C174.493 139.989 174.177 139.976 173.866 139.949C173.555 139.927 173.239 139.895 172.919 139.855L173.466 138.561C173.701 138.672 173.962 138.739 174.246 138.761C174.531 138.779 174.813 138.788 175.094 138.788C175.943 138.788 176.599 138.532 177.062 138.021C177.529 137.509 177.762 136.787 177.762 135.853C177.762 135.212 177.62 134.719 177.335 134.372C177.055 134.025 176.655 133.851 176.134 133.851C174.933 133.851 174.333 134.527 174.333 135.879L173.919 134.065H174.466C174.533 133.122 175.111 132.651 176.201 132.651C177.144 132.651 177.873 132.928 178.389 133.484C178.905 134.04 179.163 134.83 179.163 135.853C179.163 137.165 178.783 138.183 178.022 138.908C177.266 139.629 176.197 139.989 174.813 139.989ZM172.919 139.855V129.849H174.333V139.735L172.919 139.855ZM183.84 139.989C182.861 139.989 182.101 139.669 181.558 139.028C181.015 138.388 180.744 137.485 180.744 136.32C180.744 135.15 181.015 134.247 181.558 133.611C182.101 132.971 182.861 132.651 183.84 132.651C184.822 132.651 185.583 132.971 186.121 133.611C186.664 134.247 186.935 135.15 186.935 136.32C186.935 137.485 186.664 138.388 186.121 139.028C185.583 139.669 184.822 139.989 183.84 139.989ZM183.84 138.721C184.36 138.721 184.76 138.512 185.04 138.094C185.325 137.676 185.467 137.085 185.467 136.32C185.467 135.55 185.325 134.959 185.04 134.545C184.76 134.127 184.36 133.918 183.84 133.918C183.319 133.918 182.917 134.127 182.632 134.545C182.352 134.959 182.212 135.55 182.212 136.32C182.212 137.085 182.352 137.676 182.632 138.094C182.917 138.512 183.319 138.721 183.84 138.721ZM191.845 139.989C190.867 139.989 190.106 139.669 189.563 139.028C189.021 138.388 188.75 137.485 188.75 136.32C188.75 135.15 189.021 134.247 189.563 133.611C190.106 132.971 190.867 132.651 191.845 132.651C192.828 132.651 193.588 132.971 194.127 133.611C194.669 134.247 194.94 135.15 194.94 136.32C194.94 137.485 194.669 138.388 194.127 139.028C193.588 139.669 192.828 139.989 191.845 139.989ZM191.845 138.721C192.365 138.721 192.766 138.512 193.046 138.094C193.33 137.676 193.473 137.085 193.473 136.32C193.473 135.55 193.33 134.959 193.046 134.545C192.766 134.127 192.365 133.918 191.845 133.918C191.325 133.918 190.922 134.127 190.637 134.545C190.357 134.959 190.217 135.55 190.217 136.32C190.217 137.085 190.357 137.676 190.637 138.094C190.922 138.512 191.325 138.721 191.845 138.721ZM197.916 137.174V135.906H198.716C199.303 135.906 199.786 135.806 200.164 135.606C200.542 135.401 200.838 135.07 201.051 134.612C201.269 134.154 201.429 133.544 201.532 132.784H202.999C202.812 134.256 202.392 135.357 201.738 136.086C201.089 136.811 200.193 137.174 199.05 137.174H197.916ZM196.915 139.855V129.849H198.329V139.855H196.915ZM201.705 139.855L199.69 136.413L201.025 135.866L203.453 139.855H201.705Z" fill="black"/>
<rect x="165.5" y="120.524" width="45.6627" height="28.6627" stroke="black"/>
<rect x="165.5" y="148.988" width="45.6627" height="28.6627" fill="white"/>
<path d="M174.513 168.319V161.848C174.513 159.402 175.629 158.179 177.862 158.179C178.369 158.179 178.858 158.223 179.33 158.312L179.183 159.54C178.903 159.504 178.656 159.48 178.443 159.467C178.229 159.453 178.022 159.447 177.822 159.447C176.559 159.447 175.927 160.225 175.927 161.781V168.319H174.513ZM172.285 164.05V162.809H178.823V164.05H172.285ZM183.84 168.453C182.861 168.453 182.101 168.132 181.558 167.492C181.015 166.852 180.744 165.949 180.744 164.783C180.744 163.614 181.015 162.711 181.558 162.075C182.101 161.435 182.861 161.114 183.84 161.114C184.822 161.114 185.583 161.435 186.121 162.075C186.664 162.711 186.935 163.614 186.935 164.783C186.935 165.949 186.664 166.852 186.121 167.492C185.583 168.132 184.822 168.453 183.84 168.453ZM183.84 167.185C184.36 167.185 184.76 166.976 185.04 166.558C185.325 166.14 185.467 165.548 185.467 164.783C185.467 164.014 185.325 163.423 185.04 163.009C184.76 162.591 184.36 162.382 183.84 162.382C183.319 162.382 182.917 162.591 182.632 163.009C182.352 163.423 182.212 164.014 182.212 164.783C182.212 165.548 182.352 166.14 182.632 166.558C182.917 166.976 183.319 167.185 183.84 167.185ZM193.313 168.319V163.716C193.313 163.289 193.201 162.96 192.979 162.729C192.757 162.497 192.445 162.382 192.045 162.382C190.933 162.382 190.377 163.036 190.377 164.343L189.964 162.529H190.511C190.551 162.053 190.724 161.699 191.031 161.468C191.338 161.232 191.787 161.114 192.379 161.114C193.126 161.114 193.704 161.341 194.113 161.795C194.522 162.248 194.727 162.889 194.727 163.716V168.319H193.313ZM188.963 168.319V161.248H190.244L190.377 162.742V168.319H188.963ZM201.131 168.453C200.059 168.453 199.283 168.23 198.803 167.786C198.327 167.341 198.089 166.629 198.089 165.651V164.45H199.504V165.584C199.504 166.144 199.639 166.551 199.91 166.805C200.186 167.058 200.638 167.185 201.265 167.185C201.487 167.185 201.723 167.174 201.972 167.152C202.221 167.125 202.506 167.092 202.826 167.052L202.986 168.293C202.675 168.346 202.37 168.386 202.072 168.413C201.778 168.439 201.465 168.453 201.131 168.453ZM198.089 164.984V159.113H199.504V164.984H198.089ZM196.315 162.489V161.248H202.719V162.489H196.315Z" fill="black"/>
<rect x="165.5" y="148.988" width="45.6627" height="28.6627" stroke="black"/>
<rect x="165.5" y="177.452" width="45.6627" height="28.6627" fill="white"/>
<path d="M174.513 196.783V190.312C174.513 187.866 175.629 186.643 177.862 186.643C178.369 186.643 178.858 186.687 179.33 186.776L179.183 188.004C178.903 187.968 178.656 187.944 178.443 187.93C178.229 187.917 178.022 187.91 177.822 187.91C176.559 187.91 175.927 188.689 175.927 190.245V196.783H174.513ZM172.285 192.514V191.273H178.823V192.514H172.285ZM183.599 196.783V190.112H185.014V196.783H183.599ZM180.904 196.783V195.542H183.733V196.783H180.904ZM184.88 196.783V195.542H187.188V196.783H184.88ZM181.304 190.952V189.712H185.014V190.952H181.304ZM184.26 188.591C183.989 188.591 183.755 188.495 183.559 188.304C183.368 188.108 183.272 187.875 183.272 187.604C183.272 187.328 183.368 187.094 183.559 186.903C183.755 186.712 183.989 186.616 184.26 186.616C184.536 186.616 184.769 186.712 184.96 186.903C185.152 187.094 185.247 187.328 185.247 187.604C185.247 187.875 185.152 188.108 184.96 188.304C184.769 188.495 184.536 188.591 184.26 188.591ZM192.899 196.917C192.081 196.917 191.489 196.694 191.124 196.249C190.76 195.805 190.577 195.093 190.577 194.115V186.776H191.992V194.048C191.992 194.422 192.027 194.726 192.098 194.962C192.17 195.198 192.308 195.371 192.512 195.482C192.721 195.593 193.028 195.649 193.433 195.649C193.802 195.649 194.273 195.565 194.847 195.395L195.007 196.636C194.647 196.734 194.3 196.805 193.966 196.85C193.637 196.894 193.282 196.917 192.899 196.917ZM188.496 188.017V186.776H190.698V188.017H188.496ZM200.464 196.917C199.259 196.917 198.327 196.601 197.669 195.969C197.015 195.333 196.688 194.422 196.688 193.234C196.688 192.078 196.966 191.179 197.522 190.539C198.078 189.898 198.863 189.578 199.877 189.578C200.833 189.578 201.572 189.867 202.092 190.445C202.617 191.024 202.879 191.864 202.879 192.967C202.879 193.292 202.866 193.594 202.839 193.874H197.876V192.794H201.598C201.598 192.158 201.447 191.671 201.145 191.333C200.842 190.99 200.424 190.819 199.89 190.819C199.29 190.819 198.823 191.024 198.49 191.433C198.16 191.842 197.996 192.42 197.996 193.167C197.996 193.986 198.223 194.608 198.676 195.035C199.134 195.462 199.784 195.676 200.624 195.676C200.918 195.676 201.207 195.66 201.492 195.629C201.776 195.593 202.065 195.547 202.359 195.489L202.532 196.73C202.114 196.81 201.732 196.861 201.385 196.883C201.038 196.905 200.731 196.917 200.464 196.917Z" fill="black"/>
<rect x="165.5" y="177.452" width="45.6627" height="28.6627" stroke="black"/>
<rect x="211.5" y="120.5" width="181" height="28.6627" fill="white"/>
<path d="M221.607 135.962L221.807 134.428H221.887L222.915 130.358H223.862V132.039H223.475L222.448 135.962H221.607ZM218.685 139.831V130.358H220.019V139.831H218.685ZM221.22 135.962L220.193 132.039H219.806V130.358H220.753L221.781 134.428H221.834L221.967 135.962H221.22ZM223.649 139.831V130.358H224.983V139.831H223.649ZM231.294 139.898L231.2 137.803L231.014 137.216V135.388C231.014 134.917 230.847 134.572 230.513 134.354C230.184 134.132 229.693 134.012 229.039 133.994L227.344 133.947L227.478 132.693L228.906 132.713C230.075 132.731 230.942 132.984 231.507 133.474C232.077 133.958 232.361 134.668 232.361 135.602V138.55L233.562 138.697V139.831L231.294 139.898ZM228.799 139.965C228.061 139.965 227.489 139.787 227.084 139.431C226.68 139.075 226.477 138.573 226.477 137.923C226.477 137.176 226.755 136.602 227.311 136.202C227.872 135.802 228.661 135.602 229.679 135.602C230.102 135.602 230.478 135.628 230.807 135.682C231.14 135.731 231.436 135.806 231.694 135.909L231.401 136.869C231.103 136.803 230.811 136.765 230.527 136.756C230.242 136.743 229.951 136.736 229.653 136.736C228.425 136.736 227.811 137.109 227.811 137.857C227.811 138.168 227.916 138.408 228.125 138.577C228.338 138.746 228.639 138.831 229.026 138.831C229.466 138.831 229.833 138.755 230.126 138.604C230.424 138.453 230.647 138.259 230.794 138.023C230.94 137.788 231.014 137.545 231.014 137.296V136.522L231.427 138.337H230.867L231.094 138.123C231.094 138.533 230.998 138.875 230.807 139.151C230.62 139.422 230.355 139.627 230.013 139.765C229.671 139.898 229.266 139.965 228.799 139.965ZM234.963 142.9V132.76H236.244L236.377 134.254V142.9H234.963ZM238.385 139.965C237.843 139.965 237.405 139.84 237.071 139.591C236.742 139.342 236.555 138.995 236.511 138.55H235.897L236.377 136.536C236.377 137.265 236.52 137.819 236.804 138.197C237.093 138.575 237.516 138.764 238.072 138.764C238.641 138.764 239.072 138.562 239.366 138.157C239.66 137.752 239.806 137.154 239.806 136.362C239.806 135.526 239.66 134.895 239.366 134.468C239.072 134.041 238.641 133.827 238.072 133.827C237.516 133.827 237.093 134.016 236.804 134.394C236.52 134.772 236.377 135.326 236.377 136.055L235.897 134.041H236.444C236.506 133.596 236.706 133.249 237.044 133C237.387 132.751 237.834 132.626 238.385 132.626C239.315 132.626 240.018 132.942 240.493 133.574C240.969 134.205 241.207 135.135 241.207 136.362C241.207 137.545 240.969 138.441 240.493 139.051C240.018 139.66 239.315 139.965 238.385 139.965ZM248.879 138.404L242.488 135.775V134.428L248.879 131.799V133.267L243.942 135.041V135.161L248.879 136.936V138.404ZM256.191 141.166C254.745 141.166 253.622 140.634 252.822 139.571C252.026 138.504 251.628 136.998 251.628 135.055C251.628 133.138 252.026 131.655 252.822 130.605C253.622 129.551 254.745 129.024 256.191 129.024H256.511V130.225H256.324C255.27 130.225 254.456 130.647 253.883 131.492C253.313 132.337 253.029 133.525 253.029 135.055C253.029 136.611 253.313 137.819 253.883 138.677C254.456 139.536 255.27 139.965 256.324 139.965H256.511V141.166H256.191ZM259.206 141.166V139.965H259.393C260.447 139.965 261.259 139.536 261.828 138.677C262.402 137.819 262.689 136.611 262.689 135.055C262.689 133.525 262.402 132.337 261.828 131.492C261.259 130.647 260.447 130.225 259.393 130.225H259.206V129.024H259.526C260.976 129.024 262.099 129.551 262.895 130.605C263.691 131.655 264.09 133.138 264.09 135.055C264.09 136.998 263.691 138.504 262.895 139.571C262.099 140.634 260.976 141.166 259.526 141.166H259.206ZM268.613 142.74L269.146 138.137H270.694L269.894 142.74H268.613ZM285.184 139.965C284.441 139.965 283.865 139.745 283.456 139.304C283.051 138.86 282.849 138.235 282.849 137.43V132.76H284.263V137.43C284.263 137.834 284.379 138.148 284.61 138.37C284.841 138.588 285.166 138.697 285.584 138.697C286.1 138.697 286.489 138.535 286.752 138.21C287.014 137.881 287.145 137.332 287.145 136.562L287.506 138.47H287.039C286.927 138.951 286.709 139.32 286.385 139.578C286.06 139.836 285.66 139.965 285.184 139.965ZM287.265 139.898L287.145 138.204V136.963H288.56V138.55L289.534 138.697V139.831L287.265 139.898ZM287.145 137.83V132.76H288.56V137.43L287.145 137.83ZM293.39 139.831V130.358H294.777V139.831H293.39ZM291.015 139.831V138.564H293.523V139.831H291.015ZM294.644 139.831V138.564H296.899V139.831H294.644ZM291.148 132.506V131.159L293.39 130.358V131.732L291.148 132.506ZM298.9 139.831V138.31C300.363 137.501 301.455 136.66 302.176 135.789C302.9 134.912 303.263 134.01 303.263 133.08C303.263 132.537 303.13 132.131 302.863 131.859C302.596 131.588 302.191 131.452 301.648 131.452C301.288 131.452 300.912 131.557 300.521 131.766C300.13 131.975 299.794 132.253 299.514 132.6L298.593 131.686C298.9 131.245 299.336 130.892 299.901 130.625C300.465 130.358 301.057 130.225 301.675 130.225C302.676 130.225 303.423 130.463 303.917 130.939C304.415 131.41 304.664 132.124 304.664 133.08C304.664 134.036 304.359 134.955 303.75 135.835C303.145 136.711 302.222 137.554 300.981 138.364V139.831H298.9ZM299.3 139.831V138.564H305.064V139.831H299.3ZM309.894 139.965C308.867 139.965 308.071 139.727 307.506 139.251C306.945 138.771 306.665 138.097 306.665 137.23C306.665 136.433 306.945 135.82 307.506 135.388C308.071 134.952 308.867 134.735 309.894 134.735C310.921 134.735 311.715 134.952 312.276 135.388C312.841 135.82 313.123 136.433 313.123 137.23C313.123 138.097 312.841 138.771 312.276 139.251C311.715 139.727 310.921 139.965 309.894 139.965ZM309.894 138.737C310.477 138.737 310.926 138.599 311.242 138.324C311.562 138.048 311.722 137.661 311.722 137.163C311.722 136.629 311.562 136.213 311.242 135.915C310.926 135.617 310.477 135.468 309.894 135.468C309.311 135.468 308.86 135.617 308.54 135.915C308.224 136.213 308.066 136.629 308.066 137.163C308.066 137.661 308.224 138.048 308.54 138.324C308.86 138.599 309.311 138.737 309.894 138.737ZM308.787 135.121V134.441H311.015V135.121H308.787ZM309.894 134.187C310.392 134.187 310.777 134.074 311.048 133.847C311.32 133.616 311.455 133.298 311.455 132.893C311.455 132.431 311.32 132.075 311.048 131.826C310.777 131.577 310.392 131.452 309.894 131.452C309.396 131.452 309.011 131.577 308.74 131.826C308.469 132.075 308.333 132.431 308.333 132.893C308.333 133.298 308.469 133.616 308.74 133.847C309.011 134.074 309.396 134.187 309.894 134.187ZM309.894 134.855C308.956 134.855 308.226 134.661 307.706 134.274C307.19 133.883 306.932 133.334 306.932 132.626C306.932 131.866 307.19 131.277 307.706 130.859C308.226 130.436 308.956 130.225 309.894 130.225C310.837 130.225 311.566 130.436 312.082 130.859C312.598 131.277 312.856 131.866 312.856 132.626C312.856 133.334 312.598 133.883 312.082 134.274C311.566 134.661 310.837 134.855 309.894 134.855ZM314.871 138.404V136.936L319.541 135.161V135.041L314.871 133.267V131.799L321.262 134.428V135.775L314.871 138.404Z" fill="black"/>
<rect x="211.5" y="120.5" width="181" height="28.6627" stroke="black"/>
<rect x="7.5" y="108" width="93.6627" height="28.6627" fill="white"/>
<path d="M18.5145 127.465C17.3093 127.465 16.3775 127.149 15.7193 126.517C15.0655 125.881 14.7386 124.97 14.7386 123.782C14.7386 122.626 15.0477 121.728 15.6659 121.087C16.2886 120.447 17.1758 120.126 18.3277 120.126C19.0171 120.126 19.6064 120.255 20.0956 120.513C20.5893 120.767 20.9406 121.127 21.1497 121.594L20.0622 122.415C19.8621 122.09 19.6064 121.839 19.2951 121.661C18.9837 121.483 18.6435 121.394 18.2744 121.394C17.6072 121.394 17.0891 121.596 16.72 122.001C16.3508 122.401 16.1663 122.973 16.1663 123.716C16.1663 124.521 16.382 125.136 16.8134 125.563C17.2492 125.986 17.8696 126.197 18.6746 126.197C19.0037 126.197 19.3329 126.182 19.662 126.151C19.9911 126.119 20.3113 126.077 20.6226 126.024L20.7827 127.265C20.418 127.345 20.04 127.398 19.6486 127.425C19.2617 127.451 18.8837 127.465 18.5145 127.465ZM25.8395 127.465C24.8611 127.465 24.1006 127.145 23.558 126.504C23.0154 125.864 22.7441 124.961 22.7441 123.796C22.7441 122.626 23.0154 121.723 23.558 121.087C24.1006 120.447 24.8611 120.126 25.8395 120.126C26.8224 120.126 27.5829 120.447 28.1211 121.087C28.6637 121.723 28.935 122.626 28.935 123.796C28.935 124.961 28.6637 125.864 28.1211 126.504C27.5829 127.145 26.8224 127.465 25.8395 127.465ZM25.8395 126.197C26.3599 126.197 26.7601 125.988 27.0403 125.57C27.325 125.152 27.4673 124.561 27.4673 123.796C27.4673 123.026 27.325 122.435 27.0403 122.021C26.7601 121.603 26.3599 121.394 25.8395 121.394C25.3192 121.394 24.9167 121.603 24.632 122.021C24.3518 122.435 24.2117 123.026 24.2117 123.796C24.2117 124.561 24.3518 125.152 24.632 125.57C24.9167 125.988 25.3192 126.197 25.8395 126.197ZM35.3126 127.331V122.728C35.3126 122.301 35.2015 121.972 34.9791 121.741C34.7567 121.51 34.4454 121.394 34.0451 121.394C32.9332 121.394 32.3773 122.048 32.3773 123.355L31.9637 121.541H32.5107C32.5508 121.065 32.7242 120.711 33.0311 120.48C33.338 120.244 33.7872 120.126 34.3787 120.126C35.1259 120.126 35.704 120.353 36.1132 120.807C36.5224 121.261 36.7269 121.901 36.7269 122.728V127.331H35.3126ZM30.963 127.331V120.26H32.2439L32.3773 121.754V127.331H30.963ZM41.3034 127.465C40.7697 127.465 40.3116 127.449 39.9291 127.418C39.5511 127.387 39.2042 127.336 38.8884 127.265L39.0485 125.984C39.5155 126.055 39.9269 126.108 40.2827 126.144C40.6429 126.179 40.9832 126.197 41.3034 126.197C42.0194 126.197 42.5376 126.128 42.8578 125.99C43.1825 125.848 43.3448 125.623 43.3448 125.317C43.3448 125.103 43.287 124.945 43.1713 124.843C43.0602 124.736 42.8867 124.654 42.651 124.596L41.0232 124.183C40.325 124.005 39.8113 123.784 39.4822 123.522C39.1575 123.26 38.9952 122.862 38.9952 122.328C38.9952 121.554 39.2909 120.994 39.8824 120.647C40.4784 120.3 41.4368 120.126 42.7577 120.126C43.1002 120.126 43.4182 120.138 43.7117 120.16C44.0097 120.178 44.3143 120.211 44.6257 120.26L44.4789 121.487C44.1187 121.452 43.8007 121.427 43.5249 121.414C43.2492 121.401 42.9801 121.394 42.7177 121.394C41.926 121.394 41.3523 121.463 40.9965 121.601C40.6407 121.734 40.4628 121.954 40.4628 122.261C40.4628 122.466 40.5362 122.615 40.683 122.708C40.8297 122.797 41.0543 122.879 41.3568 122.955L42.6643 123.275C43.4071 123.453 43.9496 123.691 44.2921 123.989C44.639 124.287 44.8125 124.721 44.8125 125.29C44.8125 126.05 44.5345 126.604 43.9786 126.951C43.4226 127.294 42.5309 127.465 41.3034 127.465ZM51.1368 127.465C50.0649 127.465 49.2888 127.242 48.8085 126.798C48.3326 126.353 48.0947 125.641 48.0947 124.663V123.462H49.509V124.596C49.509 125.157 49.6446 125.563 49.9159 125.817C50.1917 126.07 50.6431 126.197 51.2702 126.197C51.4926 126.197 51.7283 126.186 51.9773 126.164C52.2264 126.137 52.511 126.104 52.8313 126.064L52.9914 127.305C52.68 127.358 52.3754 127.398 52.0774 127.425C51.7839 127.451 51.4703 127.465 51.1368 127.465ZM48.0947 123.996V118.125H49.509V123.996H48.0947ZM46.3202 121.501V120.26H52.7245V121.501H46.3202ZM57.381 124.289L56.9674 122.074H57.5145C57.5945 120.776 58.2438 120.126 59.4624 120.126C60.1918 120.126 60.7211 120.335 61.0502 120.754C61.3793 121.172 61.5439 121.848 61.5439 122.782H60.1429C60.1429 122.266 60.0651 121.894 59.9094 121.667C59.7582 121.441 59.5114 121.327 59.1689 121.327C58.5685 121.327 58.1193 121.585 57.8213 122.101C57.5278 122.613 57.381 123.342 57.381 124.289ZM54.3923 127.331V126.09H59.1155V127.331H54.3923ZM55.9667 127.331V120.26H57.1142L57.381 122.288V127.331H55.9667ZM54.6592 121.501V120.26H57.0208L57.1542 121.501H54.6592ZM67.3211 127.398L67.2277 125.303L67.041 124.716V122.888C67.041 122.417 66.8742 122.072 66.5406 121.854C66.2115 121.632 65.7201 121.512 65.0663 121.494L63.3718 121.447L63.5052 120.193L64.9328 120.213C66.1025 120.231 66.9698 120.484 67.5346 120.974C68.1039 121.458 68.3885 122.168 68.3885 123.102V126.05L69.5894 126.197V127.331L67.3211 127.398ZM64.8261 127.465C64.0878 127.465 63.5163 127.287 63.1116 126.931C62.7069 126.575 62.5045 126.073 62.5045 125.423C62.5045 124.676 62.7825 124.102 63.3384 123.702C63.8988 123.302 64.6882 123.102 65.7067 123.102C66.1292 123.102 66.505 123.128 66.8341 123.182C67.1677 123.231 67.4635 123.306 67.7214 123.409L67.4279 124.369C67.1299 124.303 66.8386 124.265 66.554 124.256C66.2693 124.243 65.978 124.236 65.68 124.236C64.4525 124.236 63.8388 124.609 63.8388 125.357C63.8388 125.668 63.9433 125.908 64.1523 126.077C64.3658 126.246 64.666 126.331 65.0529 126.331C65.4932 126.331 65.8601 126.255 66.1537 126.104C66.4517 125.953 66.674 125.759 66.8208 125.523C66.9676 125.288 67.041 125.045 67.041 124.796V124.022L67.4546 125.837H66.8942L67.121 125.623C67.121 126.033 67.0254 126.375 66.8341 126.651C66.6474 126.922 66.3827 127.127 66.0403 127.265C65.6978 127.398 65.2931 127.465 64.8261 127.465ZM73.6321 127.331V120.66H75.0464V127.331H73.6321ZM70.9369 127.331V126.09H73.7655V127.331H70.9369ZM74.913 127.331V126.09H77.2212V127.331H74.913ZM71.3372 121.501V120.26H75.0464V121.501H71.3372ZM74.2926 119.139C74.0213 119.139 73.7878 119.043 73.5921 118.852C73.4008 118.657 73.3052 118.423 73.3052 118.152C73.3052 117.876 73.4008 117.642 73.5921 117.451C73.7878 117.26 74.0213 117.164 74.2926 117.164C74.5683 117.164 74.8018 117.26 74.993 117.451C75.1843 117.642 75.2799 117.876 75.2799 118.152C75.2799 118.423 75.1843 118.657 74.993 118.852C74.8018 119.043 74.5683 119.139 74.2926 119.139ZM83.3454 127.331V122.728C83.3454 122.301 83.2342 121.972 83.0118 121.741C82.7895 121.51 82.4781 121.394 82.0779 121.394C80.966 121.394 80.4101 122.048 80.4101 123.355L79.9965 121.541H80.5435C80.5835 121.065 80.757 120.711 81.0638 120.48C81.3707 120.244 81.8199 120.126 82.4114 120.126C83.1586 120.126 83.7368 120.353 84.146 120.807C84.5551 121.261 84.7597 121.901 84.7597 122.728V127.331H83.3454ZM78.9958 127.331V120.26H80.2766L80.4101 121.754V127.331H78.9958ZM91.1641 127.465C90.0922 127.465 89.3161 127.242 88.8358 126.798C88.3599 126.353 88.122 125.641 88.122 124.663V123.462H89.5363V124.596C89.5363 125.157 89.6719 125.563 89.9432 125.817C90.219 126.07 90.6704 126.197 91.2975 126.197C91.5199 126.197 91.7556 126.186 92.0046 126.164C92.2537 126.137 92.5383 126.104 92.8586 126.064L93.0187 127.305C92.7073 127.358 92.4027 127.398 92.1047 127.425C91.8112 127.451 91.4976 127.465 91.1641 127.465ZM88.122 123.996V118.125H89.5363V123.996H88.122ZM86.3475 121.501V120.26H92.7518V121.501H86.3475Z" fill="black"/>
<rect x="7.5" y="108" width="93.6627" height="28.6627" stroke="black"/>
<rect x="7.56928" y="79.6054" width="93.3614" height="28.5241" fill="white"/>
<path d="M16.8934 98.8675L14.365 91.796H15.8727L17.774 97.6666H17.8941L19.7954 91.796H21.3031L18.7747 98.8675H16.8934ZM27.2938 98.9342L27.2004 96.8394L27.0137 96.2523V94.4244C27.0137 93.953 26.8469 93.6083 26.5133 93.3904C26.1842 93.168 25.6928 93.0479 25.039 93.0301L23.3445 92.9834L23.4779 91.7293L24.9055 91.7493C26.0752 91.7671 26.9425 92.0206 27.5073 92.5098C28.0766 92.9946 28.3612 93.7039 28.3612 94.6379V97.5866L29.5621 97.7334V98.8675L27.2938 98.9342ZM24.7988 99.0009C24.0605 99.0009 23.489 98.823 23.0843 98.4672C22.6796 98.1114 22.4772 97.6088 22.4772 96.9595C22.4772 96.2123 22.7552 95.6386 23.3111 95.2383C23.8715 94.838 24.6609 94.6379 25.6794 94.6379C26.1019 94.6379 26.4777 94.6646 26.8068 94.718C27.1404 94.7669 27.4362 94.8425 27.6941 94.9448L27.4006 95.9054C27.1026 95.8387 26.8113 95.8009 26.5267 95.792C26.242 95.7787 25.9507 95.772 25.6527 95.772C24.4252 95.772 23.8115 96.1456 23.8115 96.8928C23.8115 97.2041 23.916 97.4443 24.125 97.6133C24.3385 97.7823 24.6387 97.8668 25.0256 97.8668C25.4659 97.8668 25.8328 97.7912 26.1264 97.64C26.4244 97.4887 26.6467 97.2953 26.7935 97.0596C26.9403 96.8238 27.0137 96.5815 27.0137 96.3324V95.5585L27.4273 97.3731H26.8669L27.0937 97.1596C27.0937 97.5688 26.9981 97.9113 26.8068 98.187C26.6201 98.4583 26.3554 98.6629 26.013 98.8007C25.6705 98.9342 25.2658 99.0009 24.7988 99.0009ZM34.899 99.0009C34.0807 99.0009 33.4892 98.7785 33.1245 98.3338C32.7598 97.889 32.5774 97.1774 32.5774 96.199V88.8606H33.9917V96.1323C33.9917 96.5059 34.0273 96.8105 34.0985 97.0462C34.1696 97.2819 34.3075 97.4554 34.5121 97.5666C34.7211 97.6778 35.028 97.7334 35.4327 97.7334C35.8019 97.7334 36.2733 97.6489 36.847 97.4798L37.0071 98.7207C36.6469 98.8185 36.3 98.8897 35.9664 98.9342C35.6373 98.9786 35.2815 99.0009 34.899 99.0009ZM30.496 90.1015V88.8606H32.6975V90.1015H30.496ZM41.1566 99.0009C40.4139 99.0009 39.838 98.7807 39.4288 98.3404C39.0241 97.8957 38.8217 97.2708 38.8217 96.4658V91.796H40.236V96.4658C40.236 96.8705 40.3516 97.1841 40.5829 97.4065C40.8142 97.6244 41.1388 97.7334 41.5569 97.7334C42.0728 97.7334 42.462 97.571 42.7244 97.2464C42.9868 96.9172 43.118 96.368 43.118 95.5986L43.4782 97.5065H43.0112C42.9 97.9869 42.6821 98.356 42.3575 98.614C42.0328 98.8719 41.6325 99.0009 41.1566 99.0009ZM43.2381 98.9342L43.118 97.2397V95.9988H44.5323V97.5866L45.5063 97.7334V98.8675L43.2381 98.9342ZM43.118 96.8661V91.796H44.5323V96.4658L43.118 96.8661ZM50.4697 99.0009C49.2644 99.0009 48.3326 98.6851 47.6744 98.0536C47.0206 97.4176 46.6937 96.5059 46.6937 95.3184C46.6937 94.162 46.9717 93.2636 47.5276 92.6232C48.0836 91.9828 48.8686 91.6625 49.8826 91.6625C50.8388 91.6625 51.5771 91.9516 52.0974 92.5298C52.6222 93.108 52.8846 93.9486 52.8846 95.0515C52.8846 95.3762 52.8713 95.6786 52.8446 95.9588H47.8812V94.8781H51.6038C51.6038 94.2421 51.4525 93.7551 51.1501 93.4171C50.8477 93.0746 50.4296 92.9034 49.8959 92.9034C49.2955 92.9034 48.8285 93.108 48.495 93.5171C48.1659 93.9263 48.0013 94.5045 48.0013 95.2517C48.0013 96.07 48.2281 96.6926 48.6818 97.1196C49.1399 97.5466 49.7892 97.76 50.6298 97.76C50.9233 97.76 51.2124 97.7445 51.497 97.7133C51.7817 97.6778 52.0707 97.6311 52.3643 97.5732L52.5377 98.8141C52.1197 98.8941 51.7372 98.9453 51.3903 98.9675C51.0434 98.9898 50.7365 99.0009 50.4697 99.0009Z" fill="black"/>
<rect x="7.56928" y="79.6054" width="93.3614" height="28.5241" stroke="black" stroke-width="1.13855"/>
<path d="M166.001 107.253L165.111 99.3587H166.279L166.946 106.364H167.057L167.785 101.36H168.897L168.525 102.461H168.302L167.719 107.253H166.001ZM168.953 107.253L168.369 102.461H168.147L167.785 101.36H168.897L169.614 106.364H169.725L170.393 99.3587H171.56L170.671 107.253H168.953ZM175.007 107.364C174.191 107.364 173.558 107.097 173.106 106.564C172.653 106.03 172.427 105.278 172.427 104.307C172.427 103.332 172.653 102.579 173.106 102.049C173.558 101.516 174.191 101.249 175.007 101.249C175.826 101.249 176.46 101.516 176.908 102.049C177.36 102.579 177.586 103.332 177.586 104.307C177.586 105.278 177.36 106.03 176.908 106.564C176.46 107.097 175.826 107.364 175.007 107.364ZM175.007 106.308C175.44 106.308 175.774 106.134 176.008 105.785C176.245 105.437 176.363 104.944 176.363 104.307C176.363 103.665 176.245 103.172 176.008 102.828C175.774 102.479 175.44 102.305 175.007 102.305C174.573 102.305 174.238 102.479 174.001 102.828C173.767 103.172 173.65 103.665 173.65 104.307C173.65 104.944 173.767 105.437 174.001 105.785C174.238 106.134 174.573 106.308 175.007 106.308ZM181.278 104.718L180.933 102.872H181.389C181.456 101.79 181.997 101.249 183.012 101.249C183.62 101.249 184.061 101.423 184.335 101.772C184.61 102.12 184.747 102.683 184.747 103.462H183.579C183.579 103.032 183.514 102.722 183.385 102.533C183.259 102.344 183.053 102.25 182.768 102.25C182.267 102.25 181.893 102.465 181.645 102.894C181.4 103.321 181.278 103.929 181.278 104.718ZM178.787 107.253V106.219H182.723V107.253H178.787ZM180.099 107.253V101.36H181.055L181.278 103.05V107.253H180.099ZM179.01 102.394V101.36H180.978L181.089 102.394H179.01ZM189.228 107.364C188.546 107.364 188.053 107.179 187.749 106.808C187.445 106.438 187.293 105.845 187.293 105.029V98.914H188.472V104.974C188.472 105.285 188.501 105.539 188.561 105.735C188.62 105.932 188.735 106.076 188.905 106.169C189.079 106.262 189.335 106.308 189.672 106.308C189.98 106.308 190.373 106.238 190.851 106.097L190.984 107.131C190.684 107.212 190.395 107.272 190.117 107.309C189.843 107.346 189.546 107.364 189.228 107.364ZM185.558 99.948V98.914H187.393V99.948H185.558ZM194.57 107.364C193.799 107.364 193.214 107.11 192.813 106.603C192.417 106.095 192.219 105.348 192.219 104.362C192.219 103.339 192.417 102.565 192.813 102.038C193.214 101.512 193.799 101.249 194.57 101.249C195.011 101.249 195.369 101.353 195.643 101.56C195.921 101.768 196.084 102.057 196.132 102.428H196.588L196.244 104.106C196.244 103.499 196.123 103.037 195.882 102.722C195.645 102.407 195.295 102.25 194.831 102.25C194.357 102.25 193.998 102.428 193.753 102.783C193.508 103.139 193.386 103.665 193.386 104.362C193.386 105.022 193.508 105.52 193.753 105.858C193.998 106.195 194.357 106.364 194.831 106.364C195.295 106.364 195.645 106.206 195.882 105.891C196.123 105.576 196.244 105.115 196.244 104.507L196.644 106.186H196.132C196.095 106.556 195.938 106.845 195.66 107.053C195.386 107.26 195.022 107.364 194.57 107.364ZM196.366 107.309L196.244 106.152V98.914H197.422V107.253L196.366 107.309ZM202.514 107.364C200.061 107.364 198.834 106.008 198.834 103.295C198.834 102.009 199.144 101.014 199.763 100.309C200.382 99.6015 201.254 99.2476 202.381 99.2476C202.926 99.2476 203.4 99.3347 203.804 99.5089C204.208 99.6793 204.503 99.9239 204.688 100.243L203.865 101.06C203.699 100.808 203.486 100.613 203.226 100.476C202.97 100.339 202.692 100.27 202.392 100.27C201.677 100.27 201.102 100.528 200.669 101.043C200.239 101.558 200.024 102.29 200.024 103.239C200.024 105.307 200.917 106.341 202.703 106.341C203.241 106.341 203.771 106.23 204.293 106.008L204.549 106.986C203.904 107.238 203.226 107.364 202.514 107.364ZM208.363 107.364C207.548 107.364 206.914 107.097 206.462 106.564C206.009 106.03 205.783 105.278 205.783 104.307C205.783 103.332 206.009 102.579 206.462 102.049C206.914 101.516 207.548 101.249 208.363 101.249C209.182 101.249 209.816 101.516 210.264 102.049C210.716 102.579 210.942 103.332 210.942 104.307C210.942 105.278 210.716 106.03 210.264 106.564C209.816 107.097 209.182 107.364 208.363 107.364ZM208.363 106.308C208.797 106.308 209.13 106.134 209.364 105.785C209.601 105.437 209.719 104.944 209.719 104.307C209.719 103.665 209.601 103.172 209.364 102.828C209.13 102.479 208.797 102.305 208.363 102.305C207.929 102.305 207.594 102.479 207.357 102.828C207.123 103.172 207.006 103.665 207.006 104.307C207.006 104.944 207.123 105.437 207.357 105.785C207.594 106.134 207.929 106.308 208.363 106.308ZM216.257 107.253V103.417C216.257 103.061 216.165 102.787 215.979 102.594C215.794 102.402 215.534 102.305 215.201 102.305C214.274 102.305 213.811 102.85 213.811 103.94L213.466 102.428H213.922C213.956 102.031 214.1 101.736 214.356 101.544C214.612 101.347 214.986 101.249 215.479 101.249C216.102 101.249 216.583 101.438 216.924 101.816C217.265 102.194 217.436 102.728 217.436 103.417V107.253H216.257ZM212.632 107.253V101.36H213.7L213.811 102.605V107.253H212.632ZM221.249 107.364C220.805 107.364 220.423 107.351 220.104 107.325C219.789 107.299 219.5 107.257 219.237 107.197L219.37 106.13C219.76 106.189 220.102 106.234 220.399 106.263C220.699 106.293 220.983 106.308 221.249 106.308C221.846 106.308 222.278 106.25 222.545 106.136C222.815 106.017 222.951 105.83 222.951 105.574C222.951 105.396 222.902 105.265 222.806 105.179C222.713 105.09 222.569 105.022 222.372 104.974L221.016 104.629C220.434 104.481 220.006 104.297 219.732 104.079C219.461 103.86 219.326 103.528 219.326 103.084C219.326 102.439 219.572 101.972 220.065 101.683C220.562 101.393 221.361 101.249 222.461 101.249C222.747 101.249 223.012 101.258 223.256 101.277C223.505 101.292 223.759 101.319 224.018 101.36L223.896 102.383C223.596 102.353 223.331 102.333 223.101 102.322C222.871 102.311 222.647 102.305 222.428 102.305C221.768 102.305 221.29 102.363 220.994 102.478C220.697 102.589 220.549 102.772 220.549 103.028C220.549 103.198 220.61 103.323 220.732 103.4C220.855 103.475 221.042 103.543 221.294 103.606L222.384 103.873C223.003 104.021 223.455 104.219 223.74 104.468C224.029 104.716 224.174 105.077 224.174 105.552C224.174 106.186 223.942 106.647 223.479 106.936C223.015 107.222 222.272 107.364 221.249 107.364ZM229.444 107.364C228.551 107.364 227.904 107.179 227.504 106.808C227.107 106.438 226.909 105.845 226.909 105.029V104.029H228.087V104.974C228.087 105.441 228.201 105.78 228.427 105.991C228.656 106.202 229.033 106.308 229.555 106.308C229.74 106.308 229.937 106.299 230.144 106.28C230.352 106.258 230.589 106.23 230.856 106.197L230.989 107.231C230.73 107.275 230.476 107.309 230.228 107.331C229.983 107.353 229.722 107.364 229.444 107.364ZM226.909 104.473V99.5811H228.087V104.473H226.909ZM225.43 102.394V101.36H230.767V102.394H225.43ZM234.647 104.718L234.303 102.872H234.759C234.825 101.79 235.367 101.249 236.382 101.249C236.99 101.249 237.431 101.423 237.705 101.772C237.979 102.12 238.117 102.683 238.117 103.462H236.949C236.949 103.032 236.884 102.722 236.754 102.533C236.628 102.344 236.423 102.25 236.137 102.25C235.637 102.25 235.263 102.465 235.014 102.894C234.77 103.321 234.647 103.929 234.647 104.718ZM232.157 107.253V106.219H236.093V107.253H232.157ZM233.469 107.253V101.36H234.425L234.647 103.05V107.253H233.469ZM232.379 102.394V101.36H234.347L234.458 102.394H232.379ZM242.931 107.309L242.853 105.563L242.697 105.074V103.55C242.697 103.158 242.558 102.87 242.28 102.689C242.006 102.503 241.597 102.403 241.052 102.389L239.64 102.35L239.751 101.305L240.941 101.321C241.915 101.336 242.638 101.547 243.109 101.955C243.583 102.359 243.82 102.95 243.82 103.728V106.186L244.821 106.308V107.253L242.931 107.309ZM240.852 107.364C240.236 107.364 239.76 107.216 239.423 106.919C239.086 106.623 238.917 106.204 238.917 105.663C238.917 105.04 239.149 104.562 239.612 104.229C240.079 103.895 240.737 103.728 241.586 103.728C241.938 103.728 242.251 103.751 242.525 103.795C242.803 103.836 243.05 103.899 243.264 103.984L243.02 104.785C242.772 104.729 242.529 104.698 242.292 104.69C242.054 104.679 241.812 104.673 241.563 104.673C240.54 104.673 240.029 104.985 240.029 105.607C240.029 105.867 240.116 106.067 240.29 106.208C240.468 106.349 240.718 106.419 241.041 106.419C241.408 106.419 241.713 106.356 241.958 106.23C242.206 106.104 242.392 105.943 242.514 105.746C242.636 105.55 242.697 105.348 242.697 105.14V104.496L243.042 106.008H242.575L242.764 105.83C242.764 106.171 242.684 106.456 242.525 106.686C242.369 106.912 242.149 107.083 241.864 107.197C241.578 107.309 241.241 107.364 240.852 107.364ZM248.19 107.253V101.694H249.369V107.253H248.19ZM245.944 107.253V106.219H248.301V107.253H245.944ZM249.257 107.253V106.219H251.181V107.253H249.257ZM246.278 102.394V101.36H249.369V102.394H246.278ZM248.74 100.426C248.514 100.426 248.32 100.346 248.157 100.187C247.997 100.024 247.918 99.8294 247.918 99.6034C247.918 99.3736 247.997 99.179 248.157 99.0196C248.32 98.8603 248.514 98.7806 248.74 98.7806C248.97 98.7806 249.165 98.8603 249.324 99.0196C249.484 99.179 249.563 99.3736 249.563 99.6034C249.563 99.8294 249.484 100.024 249.324 100.187C249.165 100.346 248.97 100.426 248.74 100.426ZM256.284 107.253V103.417C256.284 103.061 256.192 102.787 256.007 102.594C255.821 102.402 255.562 102.305 255.228 102.305C254.302 102.305 253.838 102.85 253.838 103.94L253.494 102.428H253.95C253.983 102.031 254.127 101.736 254.383 101.544C254.639 101.347 255.013 101.249 255.506 101.249C256.129 101.249 256.611 101.438 256.952 101.816C257.293 102.194 257.463 102.728 257.463 103.417V107.253H256.284ZM252.66 107.253V101.36H253.727L253.838 102.605V107.253H252.66ZM262.8 107.364C261.907 107.364 261.26 107.179 260.86 106.808C260.463 106.438 260.265 105.845 260.265 105.029V104.029H261.444V104.974C261.444 105.441 261.557 105.78 261.783 105.991C262.012 106.202 262.389 106.308 262.911 106.308C263.097 106.308 263.293 106.299 263.501 106.28C263.708 106.258 263.945 106.23 264.212 106.197L264.346 107.231C264.086 107.275 263.832 107.309 263.584 107.331C263.339 107.353 263.078 107.364 262.8 107.364ZM260.265 104.473V99.5811H261.444V104.473H260.265ZM258.786 102.394V101.36H264.123V102.394H258.786Z" fill="#464646"/>
<path d="M9.75744 67.4036V59.5094H10.9138V67.4036H9.75744ZM7.44475 60.5656V59.5094H13.2265V60.5656H7.44475ZM16.6066 64.8686L16.2619 63.0229H16.7177C16.7845 61.9406 17.3256 61.3995 18.3411 61.3995C18.9489 61.3995 19.3899 61.5737 19.6642 61.9221C19.9385 62.2705 20.0756 62.8338 20.0756 63.6122H18.9081C18.9081 63.1822 18.8433 62.8728 18.7135 62.6837C18.5875 62.4947 18.3818 62.4002 18.0965 62.4002C17.5961 62.4002 17.2218 62.6152 16.9735 63.0451C16.7289 63.4713 16.6066 64.0791 16.6066 64.8686ZM14.116 67.4036V66.3696H18.052V67.4036H14.116ZM15.428 67.4036V61.5107H16.3842L16.6066 63.2008V67.4036H15.428ZM14.3383 62.5448V61.5107H16.3063L16.4175 62.5448H14.3383ZM24.89 67.4592L24.8121 65.7136L24.6565 65.2244V63.7011C24.6565 63.3082 24.5175 63.021 24.2395 62.8394C23.9653 62.6541 23.5557 62.554 23.0109 62.5392L21.5988 62.5003L21.71 61.4551L22.8997 61.4718C23.8745 61.4866 24.5972 61.6979 25.0679 62.1056C25.5423 62.5095 25.7795 63.1007 25.7795 63.879V66.3362L26.7802 66.4585V67.4036L24.89 67.4592ZM22.8108 67.5148C22.1955 67.5148 21.7193 67.3666 21.382 67.0701C21.0448 66.7736 20.8761 66.3548 20.8761 65.8137C20.8761 65.191 21.1078 64.7129 21.571 64.3793C22.038 64.0458 22.6959 63.879 23.5446 63.879C23.8967 63.879 24.2099 63.9012 24.4841 63.9457C24.7621 63.9865 25.0086 64.0495 25.2235 64.1347L24.9789 64.9353C24.7306 64.8797 24.4879 64.8482 24.2507 64.8408C24.0135 64.8296 23.7707 64.8241 23.5224 64.8241C22.4995 64.8241 21.988 65.1354 21.988 65.7581C21.988 66.0175 22.0751 66.2176 22.2493 66.3585C22.4272 66.4993 22.6774 66.5697 22.9998 66.5697C23.3667 66.5697 23.6725 66.5067 23.9171 66.3807C24.1654 66.2547 24.3507 66.0935 24.473 65.897C24.5953 65.7006 24.6565 65.4986 24.6565 65.2911V64.6462L25.0012 66.1583H24.5342L24.7232 65.9804C24.7232 66.3214 24.6435 66.6068 24.4841 66.8366C24.3285 67.0627 24.108 67.2331 23.8226 67.348C23.5372 67.4592 23.1999 67.5148 22.8108 67.5148ZM30.9163 67.5148C29.9119 67.5148 29.1355 67.2517 28.5869 66.7254C28.0421 66.1954 27.7697 65.4356 27.7697 64.4461C27.7697 63.4824 28.0273 62.7338 28.5425 62.2001C29.0613 61.6664 29.8007 61.3995 30.7606 61.3995C31.3351 61.3995 31.8262 61.507 32.2339 61.722C32.6453 61.9332 32.9381 62.2334 33.1123 62.6226L32.2061 63.3064C32.0393 63.0358 31.8262 62.8264 31.5668 62.6782C31.3073 62.5299 31.0238 62.4558 30.7162 62.4558C30.1602 62.4558 29.7285 62.6244 29.4208 62.9617C29.1132 63.2953 28.9594 63.7715 28.9594 64.3905C28.9594 65.0613 29.1392 65.5746 29.4987 65.9304C29.8619 66.2825 30.3789 66.4585 31.0497 66.4585C31.324 66.4585 31.5983 66.4456 31.8725 66.4196C32.1468 66.3937 32.4136 66.3585 32.6731 66.314L32.8065 67.348C32.5026 67.4147 32.1875 67.4592 31.8614 67.4815C31.539 67.5037 31.2239 67.5148 30.9163 67.5148ZM35.4083 65.1688V64.1125H36.0754C36.5646 64.1125 36.9667 64.0291 37.2818 63.8623C37.5968 63.6918 37.8433 63.4157 38.0212 63.034C38.2028 62.6522 38.3362 62.1445 38.4214 61.5107H39.6445C39.4888 62.7375 39.1386 63.6548 38.5938 64.2626C38.0527 64.8667 37.3059 65.1688 36.3534 65.1688H35.4083ZM34.5744 67.4036V59.0646H35.7529V67.4036H34.5744ZM38.566 67.4036L36.887 64.535L37.9989 64.0791L40.0225 67.4036H38.566ZM44.2031 67.5148C43.1988 67.5148 42.4223 67.2517 41.8738 66.7254C41.329 66.1954 41.0566 65.4356 41.0566 64.4461C41.0566 63.4824 41.2882 62.7338 41.7515 62.2001C42.2148 61.6664 42.8689 61.3995 43.7139 61.3995C44.5108 61.3995 45.126 61.6404 45.5596 62.1222C45.997 62.6041 46.2156 63.3045 46.2156 64.2237C46.2156 64.4942 46.2045 64.7463 46.1823 64.9798H42.0461V64.0791H45.1482C45.1482 63.5491 45.0222 63.1433 44.7702 62.8616C44.5182 62.5763 44.1698 62.4336 43.725 62.4336C43.2247 62.4336 42.8355 62.6041 42.5576 62.945C42.2833 63.286 42.1462 63.7678 42.1462 64.3905C42.1462 65.0724 42.3352 65.5913 42.7132 65.9471C43.095 66.3029 43.6361 66.4808 44.3366 66.4808C44.5812 66.4808 44.8221 66.4678 45.0593 66.4419C45.2965 66.4122 45.5374 66.3733 45.782 66.3251L45.9265 67.3592C45.5782 67.4259 45.2594 67.4685 44.9703 67.487C44.6813 67.5055 44.4255 67.5148 44.2031 67.5148ZM49.9126 67.5148C49.1417 67.5148 48.5561 67.2609 48.1558 66.7532C47.7593 66.2454 47.561 65.4986 47.561 64.5128C47.561 63.4898 47.7593 62.7152 48.1558 62.189C48.5561 61.6627 49.1417 61.3995 49.9126 61.3995C50.3536 61.3995 50.7113 61.5033 50.9856 61.7109C51.2635 61.9184 51.4266 62.2075 51.4748 62.5781H51.9306L51.586 64.257C51.586 63.6492 51.4655 63.1878 51.2246 62.8728C50.9874 62.5577 50.6372 62.4002 50.1739 62.4002C49.6995 62.4002 49.34 62.5781 49.0954 62.9339C48.8508 63.2897 48.7285 63.816 48.7285 64.5128C48.7285 65.1725 48.8508 65.671 49.0954 66.0082C49.34 66.3455 49.6995 66.5141 50.1739 66.5141C50.6372 66.5141 50.9874 66.3566 51.2246 66.0416C51.4655 65.7266 51.586 65.2651 51.586 64.6573L51.9862 66.3362H51.4748C51.4377 66.7069 51.2802 66.9959 51.0022 67.2035C50.728 67.411 50.3648 67.5148 49.9126 67.5148ZM51.7083 67.4592L51.586 66.3029V59.0646H52.7645V67.4036L51.7083 67.4592ZM59.5581 66.2139L54.2322 64.0235V62.9006L59.5581 60.7102V61.9332L55.4441 63.412V63.5121L59.5581 64.9909V66.2139ZM63.255 67.5148C62.4841 67.5148 61.8985 67.2609 61.4983 66.7532C61.1017 66.2454 60.9034 65.4986 60.9034 64.5128C60.9034 63.4898 61.1017 62.7152 61.4983 62.189C61.8985 61.6627 62.4841 61.3995 63.255 61.3995C63.6961 61.3995 64.0537 61.5033 64.328 61.7109C64.606 61.9184 64.769 62.2075 64.8172 62.5781H65.2731L64.9284 64.257C64.9284 63.6492 64.8079 63.1878 64.567 62.8728C64.3298 62.5577 63.9796 62.4002 63.5163 62.4002C63.0419 62.4002 62.6824 62.5781 62.4378 62.9339C62.1932 63.2897 62.0709 63.816 62.0709 64.5128C62.0709 65.1725 62.1932 65.671 62.4378 66.0082C62.6824 66.3455 63.0419 66.5141 63.5163 66.5141C63.9796 66.5141 64.3298 66.3566 64.567 66.0416C64.8079 65.7266 64.9284 65.2651 64.9284 64.6573L65.3287 66.3362H64.8172C64.7801 66.7069 64.6226 66.9959 64.3447 67.2035C64.0704 67.411 63.7072 67.5148 63.255 67.5148ZM65.0507 67.4592L64.9284 66.3029V59.0646H66.107V67.4036L65.0507 67.4592ZM67.4579 70.0721L67.4023 69.0158L68.3252 68.9046C68.7143 68.8565 69.046 68.7508 69.3203 68.5878C69.5982 68.4247 69.8354 68.1819 70.0319 67.8595C70.2283 67.5408 70.4006 67.122 70.5489 66.6031L72.0166 61.5107H73.2396L71.5385 66.881C71.3161 67.5852 71.0659 68.1523 70.7879 68.5822C70.5137 69.0121 70.1875 69.3346 69.8095 69.5495C69.4352 69.7645 68.9849 69.9016 68.4586 69.9609L67.4579 70.0721ZM69.6928 67.4036L67.3467 61.5107H68.5698L70.4933 66.5141H70.6712V67.4036H69.6928ZM78.2708 67.4036V63.5677C78.2708 63.2119 78.1782 62.9376 77.9929 62.7449C77.8075 62.5522 77.5481 62.4558 77.2145 62.4558C76.288 62.4558 75.8247 63.0006 75.8247 64.0903L75.48 62.5781H75.9359C75.9693 62.1815 76.1138 61.8869 76.3695 61.6942C76.6253 61.4977 76.9996 61.3995 77.4925 61.3995C78.1152 61.3995 78.597 61.5885 78.9379 61.9666C79.2789 62.3446 79.4494 62.8783 79.4494 63.5677V67.4036H78.2708ZM74.6461 67.4036V61.5107H75.7135L75.8247 62.756V67.4036H74.6461ZM88.0553 67.4036L87.1658 59.5094H88.3332L89.0004 66.5141H89.1116L89.8398 61.5107H90.9517L90.5792 62.6115H90.3568L89.7731 67.4036H88.0553ZM91.0073 67.4036L90.4236 62.6115H90.2012L89.8398 61.5107H90.9517L91.6689 66.5141H91.78L92.4472 59.5094H93.6146L92.7251 67.4036H91.0073ZM97.0614 67.5148C96.246 67.5148 95.6123 67.248 95.1601 66.7143C94.708 66.1806 94.4819 65.4282 94.4819 64.4572C94.4819 63.4824 94.708 62.7301 95.1601 62.2001C95.6123 61.6664 96.246 61.3995 97.0614 61.3995C97.8805 61.3995 98.5143 61.6664 98.9627 62.2001C99.4149 62.7301 99.641 63.4824 99.641 64.4572C99.641 65.4282 99.4149 66.1806 98.9627 66.7143C98.5143 67.248 97.8805 67.5148 97.0614 67.5148ZM97.0614 66.4585C97.495 66.4585 97.8286 66.2843 98.0621 65.936C98.2993 65.5876 98.4179 65.0946 98.4179 64.4572C98.4179 63.816 98.2993 63.3231 98.0621 62.9784C97.8286 62.63 97.495 62.4558 97.0614 62.4558C96.6278 62.4558 96.2924 62.63 96.0552 62.9784C95.8217 63.3231 95.7049 63.816 95.7049 64.4572C95.7049 65.0946 95.8217 65.5876 96.0552 65.936C96.2924 66.2843 96.6278 66.4585 97.0614 66.4585ZM103.332 64.8686L102.988 63.0229H103.444C103.51 61.9406 104.051 61.3995 105.067 61.3995C105.675 61.3995 106.116 61.5737 106.39 61.9221C106.664 62.2705 106.801 62.8338 106.801 63.6122H105.634C105.634 63.1822 105.569 62.8728 105.439 62.6837C105.313 62.4947 105.108 62.4002 104.822 62.4002C104.322 62.4002 103.948 62.6152 103.699 63.0451C103.455 63.4713 103.332 64.0791 103.332 64.8686ZM100.842 67.4036V66.3696H104.778V67.4036H100.842ZM102.154 67.4036V61.5107H103.11L103.332 63.2008V67.4036H102.154ZM101.064 62.5448V61.5107H103.032L103.143 62.5448H101.064ZM111.282 67.5148C110.6 67.5148 110.107 67.3295 109.803 66.9589C109.5 66.5883 109.348 65.9953 109.348 65.1799V59.0646H110.526V65.1243C110.526 65.4356 110.556 65.6895 110.615 65.8859C110.674 66.0824 110.789 66.2269 110.96 66.3196C111.134 66.4122 111.39 66.4585 111.727 66.4585C112.035 66.4585 112.427 66.3881 112.906 66.2473L113.039 67.2813C112.739 67.3629 112.45 67.4222 112.172 67.4592C111.897 67.4963 111.601 67.5148 111.282 67.5148ZM107.613 60.0986V59.0646H109.448V60.0986H107.613ZM116.625 67.5148C115.854 67.5148 115.268 67.2609 114.868 66.7532C114.471 66.2454 114.273 65.4986 114.273 64.5128C114.273 63.4898 114.471 62.7152 114.868 62.189C115.268 61.6627 115.854 61.3995 116.625 61.3995C117.066 61.3995 117.423 61.5033 117.698 61.7109C117.976 61.9184 118.139 62.2075 118.187 62.5781H118.643L118.298 64.257C118.298 63.6492 118.178 63.1878 117.937 62.8728C117.7 62.5577 117.349 62.4002 116.886 62.4002C116.412 62.4002 116.052 62.5781 115.808 62.9339C115.563 63.2897 115.441 63.816 115.441 64.5128C115.441 65.1725 115.563 65.671 115.808 66.0082C116.052 66.3455 116.412 66.5141 116.886 66.5141C117.349 66.5141 117.7 66.3566 117.937 66.0416C118.178 65.7266 118.298 65.2651 118.298 64.6573L118.698 66.3362H118.187C118.15 66.7069 117.992 66.9959 117.714 67.2035C117.44 67.411 117.077 67.5148 116.625 67.5148ZM118.42 67.4592L118.298 66.3029V59.0646H119.477V67.4036L118.42 67.4592ZM121.222 66.2139V64.9909L125.114 63.5121V63.412L121.222 61.9332V60.7102L126.548 62.9006V64.0235L121.222 66.2139Z" fill="#464646"/>
<path d="M167.885 23.1112C167.114 23.1112 166.529 22.8573 166.129 22.3496C165.732 21.8418 165.534 21.095 165.534 20.1091C165.534 19.0862 165.732 18.3116 166.129 17.7853C166.529 17.259 167.114 16.9959 167.885 16.9959C168.326 16.9959 168.684 17.0997 168.958 17.3072C169.236 17.5148 169.399 17.8039 169.447 18.1745H169.903L169.559 19.8534C169.559 19.2456 169.438 18.7842 169.197 18.4691C168.96 18.1541 168.61 17.9966 168.147 17.9966C167.672 17.9966 167.313 18.1745 167.068 18.5303C166.823 18.8861 166.701 19.4124 166.701 20.1091C166.701 20.7688 166.823 21.2673 167.068 21.6046C167.313 21.9419 167.672 22.1105 168.147 22.1105C168.61 22.1105 168.96 21.953 169.197 21.638C169.438 21.3229 169.559 20.8615 169.559 20.2537L169.959 21.9326H169.447C169.41 22.3032 169.253 22.5923 168.975 22.7999C168.701 23.0074 168.337 23.1112 167.885 23.1112ZM169.681 23.0556L169.559 21.8992V14.661H170.737V23L169.681 23.0556ZM172.088 25.6685L172.033 24.6122L172.955 24.501C173.345 24.4528 173.676 24.3472 173.951 24.1841C174.229 24.0211 174.466 23.7783 174.662 23.4559C174.859 23.1371 175.031 22.7183 175.179 22.1995L176.647 17.1071H177.87L176.169 22.4774C175.946 23.1816 175.696 23.7487 175.418 24.1786C175.144 24.6085 174.818 24.9309 174.44 25.1459C174.065 25.3609 173.615 25.498 173.089 25.5573L172.088 25.6685ZM174.323 23L171.977 17.1071H173.2L175.124 22.1105H175.301V23H174.323ZM182.901 23V19.1641C182.901 18.8083 182.808 18.534 182.623 18.3413C182.438 18.1485 182.178 18.0522 181.845 18.0522C180.918 18.0522 180.455 18.597 180.455 19.6866L180.11 18.1745H180.566C180.6 17.7779 180.744 17.4833 181 17.2906C181.256 17.0941 181.63 16.9959 182.123 16.9959C182.745 16.9959 183.227 17.1849 183.568 17.563C183.909 17.941 184.08 18.4747 184.08 19.1641V23H182.901ZM179.276 23V17.1071H180.344L180.455 18.3524V23H179.276ZM192.686 23L191.796 15.1057H192.964L193.631 22.1105H193.742L194.47 17.1071H195.582L195.209 18.2078H194.987L194.403 23H192.686ZM195.638 23L195.054 18.2078H194.831L194.47 17.1071H195.582L196.299 22.1105H196.41L197.077 15.1057H198.245L197.355 23H195.638ZM201.692 23.1112C200.876 23.1112 200.243 22.8443 199.79 22.3106C199.338 21.7769 199.112 21.0246 199.112 20.0535C199.112 19.0788 199.338 18.3264 199.79 17.7965C200.243 17.2628 200.876 16.9959 201.692 16.9959C202.511 16.9959 203.145 17.2628 203.593 17.7965C204.045 18.3264 204.271 19.0788 204.271 20.0535C204.271 21.0246 204.045 21.7769 203.593 22.3106C203.145 22.8443 202.511 23.1112 201.692 23.1112ZM201.692 22.0549C202.125 22.0549 202.459 21.8807 202.692 21.5323C202.93 21.1839 203.048 20.691 203.048 20.0535C203.048 19.4124 202.93 18.9194 202.692 18.5748C202.459 18.2264 202.125 18.0522 201.692 18.0522C201.258 18.0522 200.923 18.2264 200.685 18.5748C200.452 18.9194 200.335 19.4124 200.335 20.0535C200.335 20.691 200.452 21.1839 200.685 21.5323C200.923 21.8807 201.258 22.0549 201.692 22.0549ZM207.963 20.4649L207.618 18.6192H208.074C208.141 17.537 208.682 16.9959 209.697 16.9959C210.305 16.9959 210.746 17.1701 211.02 17.5185C211.295 17.8669 211.432 18.4302 211.432 19.2085H210.264C210.264 18.7786 210.199 18.4691 210.07 18.2801C209.944 18.0911 209.738 17.9966 209.453 17.9966C208.952 17.9966 208.578 18.2115 208.33 18.6415C208.085 19.0677 207.963 19.6755 207.963 20.4649ZM205.472 23V21.966H209.408V23H205.472ZM206.784 23V17.1071H207.74L207.963 18.7971V23H206.784ZM205.694 18.1411V17.1071H207.662L207.774 18.1411H205.694ZM215.912 23.1112C215.231 23.1112 214.738 22.9259 214.434 22.5553C214.13 22.1846 213.978 21.5916 213.978 20.7763V14.661H215.156V20.7207C215.156 21.032 215.186 21.2859 215.245 21.4823C215.305 21.6787 215.42 21.8233 215.59 21.9159C215.764 22.0086 216.02 22.0549 216.357 22.0549C216.665 22.0549 217.058 21.9845 217.536 21.8437L217.669 22.8777C217.369 22.9592 217.08 23.0185 216.802 23.0556C216.528 23.0927 216.231 23.1112 215.912 23.1112ZM212.243 15.695V14.661H214.078V15.695H212.243ZM221.255 23.1112C220.484 23.1112 219.899 22.8573 219.498 22.3496C219.102 21.8418 218.903 21.095 218.903 20.1091C218.903 19.0862 219.102 18.3116 219.498 17.7853C219.899 17.259 220.484 16.9959 221.255 16.9959C221.696 16.9959 222.054 17.0997 222.328 17.3072C222.606 17.5148 222.769 17.8039 222.817 18.1745H223.273L222.928 19.8534C222.928 19.2456 222.808 18.7842 222.567 18.4691C222.33 18.1541 221.98 17.9966 221.516 17.9966C221.042 17.9966 220.682 18.1745 220.438 18.5303C220.193 18.8861 220.071 19.4124 220.071 20.1091C220.071 20.7688 220.193 21.2673 220.438 21.6046C220.682 21.9419 221.042 22.1105 221.516 22.1105C221.98 22.1105 222.33 21.953 222.567 21.638C222.808 21.3229 222.928 20.8615 222.928 20.2537L223.329 21.9326H222.817C222.78 22.3032 222.623 22.5923 222.345 22.7999C222.07 23.0074 221.707 23.1112 221.255 23.1112ZM223.051 23.0556L222.928 21.8992V14.661H224.107V23L223.051 23.0556Z" fill="#464646"/>
<path d="M136.5 94V94.5H137V94H136.5ZM136.5 47V46.5H136V47H136.5ZM164.354 47.3536C164.549 47.1583 164.549 46.8417 164.354 46.6464L161.172 43.4645C160.976 43.2692 160.66 43.2692 160.464 43.4645C160.269 43.6597 160.269 43.9763 160.464 44.1716L163.293 47L160.464 49.8284C160.269 50.0237 160.269 50.3403 160.464 50.5355C160.66 50.7308 160.976 50.7308 161.172 50.5355L164.354 47.3536ZM102 94.5H136.5V93.5H102V94.5ZM137 94V47H136V94H137ZM136.5 47.5H164V46.5H136.5V47.5Z" fill="black"/>
<path d="M136.5 122V121.5H137V122H136.5ZM136.5 135V135.5H136V135H136.5ZM164.354 134.646C164.549 134.842 164.549 135.158 164.354 135.354L161.172 138.536C160.976 138.731 160.66 138.731 160.464 138.536C160.269 138.34 160.269 138.024 160.464 137.828L163.293 135L160.464 132.172C160.269 131.976 160.269 131.66 160.464 131.464C160.66 131.269 160.976 131.269 161.172 131.464L164.354 134.646ZM102 121.5H136.5V122.5H102V121.5ZM137 122V135H136V122H137ZM136.5 134.5H164V135.5H136.5V134.5Z" fill="black"/>
</svg>
