<svg width="156" height="185" viewBox="0 0 156 185" fill="none" xmlns="http://www.w3.org/2000/svg">
<rect x="1.18573" y="0.5" width="154" height="184" fill="white" stroke="black"/>
<path d="M12.7229 72.5142C12.7229 72.315 12.6917 72.1392 12.6292 71.9869C12.5706 71.8306 12.4651 71.69 12.3127 71.565C12.1643 71.44 11.9573 71.3208 11.6917 71.2076C11.4299 71.0943 11.0979 70.979 10.6956 70.8619C10.2737 70.7369 9.89282 70.5982 9.55298 70.4458C9.21313 70.2896 8.92212 70.1119 8.67993 69.9126C8.43774 69.7134 8.2522 69.4849 8.12329 69.2271C7.99438 68.9693 7.92993 68.6744 7.92993 68.3423C7.92993 68.0103 7.99829 67.7036 8.13501 67.4224C8.27173 67.1411 8.46704 66.897 8.72095 66.69C8.97876 66.479 9.2854 66.315 9.64087 66.1978C9.99634 66.0806 10.3928 66.022 10.8303 66.022C11.4709 66.022 12.0139 66.1451 12.4592 66.3911C12.9084 66.6333 13.2502 66.9517 13.4846 67.3462C13.719 67.7369 13.8362 68.1548 13.8362 68.6001H12.7112C12.7112 68.2798 12.6428 67.9966 12.5061 67.7505C12.3694 67.5005 12.1624 67.3052 11.885 67.1646C11.6077 67.0201 11.2561 66.9478 10.8303 66.9478C10.428 66.9478 10.0959 67.0083 9.83423 67.1294C9.57251 67.2505 9.3772 67.4146 9.24829 67.6216C9.12329 67.8286 9.06079 68.065 9.06079 68.3306C9.06079 68.5103 9.0979 68.6744 9.17212 68.8228C9.25024 68.9673 9.36938 69.1021 9.52954 69.2271C9.6936 69.3521 9.90063 69.4673 10.1506 69.5728C10.4045 69.6783 10.7073 69.7798 11.0588 69.8775C11.5432 70.0142 11.9612 70.1665 12.3127 70.3345C12.6643 70.5025 12.9534 70.6919 13.1799 70.9029C13.4104 71.1099 13.5803 71.3462 13.6897 71.6119C13.803 71.8736 13.8596 72.1704 13.8596 72.5025C13.8596 72.8501 13.7893 73.1646 13.6487 73.4458C13.5081 73.7271 13.3069 73.9673 13.0452 74.1665C12.7834 74.3658 12.469 74.5201 12.1018 74.6294C11.7385 74.7349 11.3323 74.7876 10.8831 74.7876C10.4885 74.7876 10.0999 74.7329 9.71704 74.6236C9.33813 74.5142 8.99243 74.3501 8.67993 74.1314C8.37134 73.9126 8.12329 73.6431 7.93579 73.3228C7.7522 72.9986 7.6604 72.6236 7.6604 72.1978H8.7854C8.7854 72.4908 8.84204 72.7427 8.95532 72.9536C9.0686 73.1607 9.2229 73.3326 9.41821 73.4693C9.61743 73.606 9.84204 73.7076 10.092 73.774C10.3459 73.8365 10.6096 73.8677 10.8831 73.8677C11.2776 73.8677 11.6116 73.813 11.885 73.7036C12.1584 73.5943 12.3655 73.438 12.5061 73.2349C12.6506 73.0318 12.7229 72.7915 12.7229 72.5142ZM14.8499 71.5708V71.4361C14.8499 70.979 14.9163 70.5552 15.0491 70.1646C15.1819 69.7701 15.3733 69.4283 15.6233 69.1392C15.8733 68.8462 16.176 68.6197 16.5315 68.4595C16.887 68.2954 17.2854 68.2134 17.7268 68.2134C18.1721 68.2134 18.5725 68.2954 18.928 68.4595C19.2874 68.6197 19.592 68.8462 19.842 69.1392C20.0959 69.4283 20.2893 69.7701 20.4221 70.1646C20.5549 70.5552 20.6213 70.979 20.6213 71.4361V71.5708C20.6213 72.0279 20.5549 72.4517 20.4221 72.8423C20.2893 73.2329 20.0959 73.5747 19.842 73.8677C19.592 74.1568 19.2893 74.3833 18.9338 74.5474C18.5823 74.7076 18.1838 74.7876 17.7385 74.7876C17.2932 74.7876 16.8928 74.7076 16.5374 74.5474C16.1819 74.3833 15.8772 74.1568 15.6233 73.8677C15.3733 73.5747 15.1819 73.2329 15.0491 72.8423C14.9163 72.4517 14.8499 72.0279 14.8499 71.5708ZM15.9338 71.4361V71.5708C15.9338 71.8872 15.9709 72.1861 16.0452 72.4673C16.1194 72.7447 16.2307 72.9908 16.3792 73.2056C16.5315 73.4204 16.7209 73.5904 16.9475 73.7154C17.1741 73.8365 17.4377 73.897 17.7385 73.897C18.0354 73.897 18.2952 73.8365 18.5178 73.7154C18.7444 73.5904 18.9319 73.4204 19.0803 73.2056C19.2288 72.9908 19.3401 72.7447 19.4143 72.4673C19.4924 72.1861 19.5315 71.8872 19.5315 71.5708V71.4361C19.5315 71.1236 19.4924 70.8286 19.4143 70.5513C19.3401 70.2701 19.2268 70.022 19.0745 69.8072C18.926 69.5884 18.7385 69.4165 18.512 69.2915C18.2893 69.1665 18.0276 69.104 17.7268 69.104C17.4299 69.104 17.1682 69.1665 16.9417 69.2915C16.719 69.4165 16.5315 69.5884 16.3792 69.8072C16.2307 70.022 16.1194 70.2701 16.0452 70.5513C15.9709 70.8286 15.9338 71.1236 15.9338 71.4361ZM23.0588 69.5904V74.6704H21.969V68.3306H23.0002L23.0588 69.5904ZM22.8362 71.2603L22.3323 71.2427C22.3362 70.8091 22.3928 70.4087 22.5022 70.0415C22.6116 69.6704 22.7737 69.3482 22.9885 69.0747C23.2034 68.8013 23.4709 68.5904 23.7913 68.4419C24.1116 68.2896 24.4827 68.2134 24.9045 68.2134C25.2014 68.2134 25.4749 68.2564 25.7249 68.3423C25.9749 68.4244 26.1917 68.5552 26.3752 68.7349C26.5588 68.9146 26.7014 69.1451 26.803 69.4263C26.9045 69.7076 26.9553 70.0474 26.9553 70.4458V74.6704H25.8713V70.4986C25.8713 70.1665 25.8147 69.9009 25.7014 69.7017C25.592 69.5025 25.4358 69.3579 25.2327 69.2681C25.0295 69.1744 24.7913 69.1275 24.5178 69.1275C24.1975 69.1275 23.9299 69.1841 23.7151 69.2974C23.5002 69.4107 23.3284 69.5669 23.1995 69.7661C23.0706 69.9654 22.9768 70.1939 22.9182 70.4517C22.8635 70.7056 22.8362 70.9751 22.8362 71.2603ZM26.9436 70.6626L26.217 70.8853C26.2209 70.5376 26.2776 70.2036 26.387 69.8833C26.5002 69.563 26.6624 69.2779 26.8733 69.0279C27.0881 68.7779 27.3518 68.5806 27.6643 68.4361C27.9768 68.2876 28.3342 68.2134 28.7366 68.2134C29.0764 68.2134 29.3772 68.2583 29.6389 68.3482C29.9045 68.438 30.1272 68.5767 30.3069 68.7642C30.4905 68.9478 30.6292 69.1841 30.7229 69.4732C30.8167 69.7622 30.8635 70.106 30.8635 70.5044V74.6704H29.7737V70.4927C29.7737 70.1372 29.717 69.8619 29.6038 69.6665C29.4944 69.4673 29.3381 69.3286 29.135 69.2505C28.9358 69.1685 28.6975 69.1275 28.4202 69.1275C28.1819 69.1275 27.9709 69.1685 27.7874 69.2505C27.6038 69.3326 27.4495 69.4458 27.3245 69.5904C27.1995 69.731 27.1038 69.8931 27.0374 70.0767C26.9749 70.2603 26.9436 70.4556 26.9436 70.6626ZM35.135 74.7876C34.6936 74.7876 34.2932 74.7134 33.9338 74.565C33.5784 74.4126 33.2717 74.1997 33.0139 73.9263C32.76 73.6529 32.5647 73.3286 32.428 72.9536C32.2913 72.5786 32.2229 72.1685 32.2229 71.7232V71.4771C32.2229 70.9615 32.2991 70.5025 32.4514 70.1001C32.6038 69.6939 32.8108 69.3501 33.0725 69.0689C33.3342 68.7876 33.6311 68.5747 33.9631 68.4302C34.2952 68.2857 34.6389 68.2134 34.9944 68.2134C35.4475 68.2134 35.8381 68.2915 36.1663 68.4478C36.4983 68.604 36.7698 68.8228 36.9807 69.104C37.1917 69.3814 37.3479 69.7095 37.4495 70.0884C37.551 70.4634 37.6018 70.8736 37.6018 71.3189V71.8052H32.8674V70.9204H36.5178V70.8384C36.5022 70.5572 36.4436 70.2837 36.342 70.0181C36.2444 69.7525 36.0881 69.5337 35.8733 69.3619C35.6584 69.19 35.3655 69.104 34.9944 69.104C34.7483 69.104 34.5217 69.1568 34.3147 69.2622C34.1077 69.3638 33.9299 69.5161 33.7815 69.7193C33.6331 69.9224 33.5178 70.1704 33.4358 70.4634C33.3538 70.7564 33.3127 71.0943 33.3127 71.4771V71.7232C33.3127 72.024 33.3538 72.3072 33.4358 72.5728C33.5217 72.8345 33.6448 73.065 33.8049 73.2642C33.969 73.4634 34.1663 73.6197 34.3967 73.7329C34.6311 73.8462 34.8967 73.9029 35.1936 73.9029C35.5764 73.9029 35.9006 73.8247 36.1663 73.6685C36.4319 73.5122 36.6643 73.3033 36.8635 73.0415L37.5198 73.563C37.3831 73.7701 37.2092 73.9673 36.9983 74.1548C36.7874 74.3423 36.5276 74.4947 36.219 74.6119C35.9143 74.729 35.553 74.7876 35.135 74.7876ZM46.7483 73.6919L48.4827 68.3306H49.5901L47.3108 74.6704H46.5842L46.7483 73.6919ZM45.301 68.3306L47.0881 73.7212L47.2112 74.6704H46.4846L44.1877 68.3306H45.301ZM53.1819 74.7876C52.7405 74.7876 52.3401 74.7134 51.9807 74.565C51.6252 74.4126 51.3186 74.1997 51.0608 73.9263C50.8069 73.6529 50.6116 73.3286 50.4749 72.9536C50.3381 72.5786 50.2698 72.1685 50.2698 71.7232V71.4771C50.2698 70.9615 50.3459 70.5025 50.4983 70.1001C50.6506 69.6939 50.8577 69.3501 51.1194 69.0689C51.3811 68.7876 51.678 68.5747 52.01 68.4302C52.342 68.2857 52.6858 68.2134 53.0413 68.2134C53.4944 68.2134 53.885 68.2915 54.2131 68.4478C54.5452 68.604 54.8167 68.8228 55.0276 69.104C55.2385 69.3814 55.3948 69.7095 55.4963 70.0884C55.5979 70.4634 55.6487 70.8736 55.6487 71.3189V71.8052H50.9143V70.9204H54.5647V70.8384C54.5491 70.5572 54.4905 70.2837 54.3889 70.0181C54.2913 69.7525 54.135 69.5337 53.9202 69.3619C53.7053 69.19 53.4124 69.104 53.0413 69.104C52.7952 69.104 52.5686 69.1568 52.3616 69.2622C52.1545 69.3638 51.9768 69.5161 51.8284 69.7193C51.6799 69.9224 51.5647 70.1704 51.4827 70.4634C51.4006 70.7564 51.3596 71.0943 51.3596 71.4771V71.7232C51.3596 72.024 51.4006 72.3072 51.4827 72.5728C51.5686 72.8345 51.6917 73.065 51.8518 73.2642C52.0159 73.4634 52.2131 73.6197 52.4436 73.7329C52.678 73.8462 52.9436 73.9029 53.2405 73.9029C53.6233 73.9029 53.9475 73.8247 54.2131 73.6685C54.4788 73.5122 54.7112 73.3033 54.9104 73.0415L55.5667 73.563C55.4299 73.7701 55.2561 73.9673 55.0452 74.1548C54.8342 74.3423 54.5745 74.4947 54.2659 74.6119C53.9612 74.729 53.5999 74.7876 53.1819 74.7876ZM57.9983 69.3267V74.6704H56.9143V68.3306H57.969L57.9983 69.3267ZM59.9788 68.2954L59.9729 69.3033C59.8831 69.2837 59.7971 69.272 59.7151 69.2681C59.637 69.2603 59.5471 69.2564 59.4456 69.2564C59.1956 69.2564 58.9749 69.2954 58.7834 69.3736C58.592 69.4517 58.4299 69.5611 58.2971 69.7017C58.1643 69.8423 58.0588 70.0103 57.9807 70.2056C57.9065 70.397 57.8577 70.6079 57.8342 70.8384L57.5295 71.0142C57.5295 70.6314 57.5667 70.272 57.6409 69.9361C57.719 69.6001 57.8381 69.3033 57.9983 69.0454C58.1584 68.7837 58.3616 68.5806 58.6077 68.4361C58.8577 68.2876 59.1545 68.2134 59.4983 68.2134C59.5764 68.2134 59.6663 68.2232 59.7678 68.2427C59.8694 68.2583 59.9397 68.2759 59.9788 68.2954ZM63.928 68.3306V69.1626H60.5002V68.3306H63.928ZM61.6604 66.7896H62.7444V73.1001C62.7444 73.315 62.7776 73.4771 62.844 73.5865C62.9104 73.6958 62.9963 73.7681 63.1018 73.8033C63.2073 73.8384 63.3206 73.856 63.4417 73.856C63.5315 73.856 63.6252 73.8482 63.7229 73.8326C63.8245 73.813 63.9006 73.7974 63.9514 73.7857L63.9573 74.6704C63.8713 74.6978 63.7581 74.7232 63.6174 74.7466C63.4807 74.774 63.3147 74.7876 63.1194 74.7876C62.8538 74.7876 62.6096 74.7349 62.387 74.6294C62.1643 74.524 61.9866 74.3482 61.8538 74.1021C61.7249 73.8521 61.6604 73.5161 61.6604 73.0943V66.7896ZM66.3772 68.3306V74.6704H65.2874V68.3306H66.3772ZM65.2053 66.649C65.2053 66.4732 65.2581 66.3247 65.3635 66.2036C65.4729 66.0826 65.6331 66.022 65.844 66.022C66.051 66.022 66.2092 66.0826 66.3186 66.2036C66.4319 66.3247 66.4885 66.4732 66.4885 66.649C66.4885 66.8169 66.4319 66.9615 66.3186 67.0826C66.2092 67.1997 66.051 67.2583 65.844 67.2583C65.6331 67.2583 65.4729 67.1997 65.3635 67.0826C65.2581 66.9615 65.2053 66.8169 65.2053 66.649ZM70.6545 73.897C70.9124 73.897 71.1506 73.8443 71.3694 73.7388C71.5881 73.6333 71.7678 73.4888 71.9084 73.3052C72.0491 73.1177 72.1292 72.9048 72.1487 72.6665H73.1799C73.1604 73.0415 73.0334 73.3911 72.7991 73.7154C72.5686 74.0357 72.2659 74.2954 71.8909 74.4947C71.5159 74.69 71.1038 74.7876 70.6545 74.7876C70.178 74.7876 69.762 74.7036 69.4065 74.5357C69.0549 74.3677 68.762 74.1372 68.5276 73.8443C68.2971 73.5513 68.1233 73.2154 68.0061 72.8365C67.8928 72.4536 67.8362 72.0494 67.8362 71.6236V71.3775C67.8362 70.9517 67.8928 70.5494 68.0061 70.1704C68.1233 69.7876 68.2971 69.4497 68.5276 69.1568C68.762 68.8638 69.0549 68.6333 69.4065 68.4654C69.762 68.2974 70.178 68.2134 70.6545 68.2134C71.1506 68.2134 71.5842 68.315 71.9553 68.5181C72.3264 68.7173 72.6174 68.9908 72.8284 69.3384C73.0432 69.6822 73.1604 70.0728 73.1799 70.5103H72.1487C72.1292 70.2486 72.0549 70.0122 71.926 69.8013C71.801 69.5904 71.6292 69.4224 71.4104 69.2974C71.1956 69.1685 70.9436 69.104 70.6545 69.104C70.3225 69.104 70.0432 69.1704 69.8167 69.3033C69.594 69.4322 69.4163 69.6079 69.2834 69.8306C69.1545 70.0494 69.0608 70.2935 69.0022 70.563C68.9475 70.8286 68.9202 71.1001 68.9202 71.3775V71.6236C68.9202 71.9009 68.9475 72.1744 69.0022 72.4439C69.0569 72.7134 69.1487 72.9576 69.2776 73.1763C69.4104 73.3951 69.5881 73.5708 69.8108 73.7036C70.0374 73.8326 70.3186 73.897 70.6545 73.897ZM78.137 73.5865V70.3228C78.137 70.0728 78.0862 69.856 77.9846 69.6724C77.887 69.4849 77.7385 69.3404 77.5393 69.2388C77.3401 69.1372 77.094 69.0865 76.801 69.0865C76.5276 69.0865 76.2874 69.1333 76.0803 69.2271C75.8772 69.3208 75.717 69.4439 75.5999 69.5962C75.4866 69.7486 75.4299 69.9126 75.4299 70.0884H74.3459C74.3459 69.8619 74.4045 69.6372 74.5217 69.4146C74.6389 69.1919 74.8069 68.9908 75.0256 68.8111C75.2483 68.6275 75.5139 68.4829 75.8225 68.3775C76.135 68.2681 76.4827 68.2134 76.8655 68.2134C77.3264 68.2134 77.7327 68.2915 78.0842 68.4478C78.4397 68.604 78.717 68.8404 78.9163 69.1568C79.1194 69.4693 79.2209 69.8619 79.2209 70.3345V73.2876C79.2209 73.4986 79.2385 73.7232 79.2737 73.9615C79.3127 74.1997 79.3694 74.4048 79.4436 74.5767V74.6704H78.3127C78.2581 74.5454 78.2151 74.3794 78.1838 74.1724C78.1526 73.9615 78.137 73.7661 78.137 73.5865ZM78.3245 70.8267L78.3362 71.5884H77.2405C76.9319 71.5884 76.6565 71.6138 76.4143 71.6646C76.1721 71.7115 75.969 71.7837 75.8049 71.8814C75.6409 71.979 75.5159 72.1021 75.4299 72.2505C75.344 72.3951 75.301 72.565 75.301 72.7603C75.301 72.9595 75.3459 73.1411 75.4358 73.3052C75.5256 73.4693 75.6604 73.6001 75.8401 73.6978C76.0237 73.7915 76.2483 73.8384 76.5139 73.8384C76.8459 73.8384 77.1389 73.7681 77.3928 73.6275C77.6467 73.4869 77.8479 73.315 77.9963 73.1119C78.1487 72.9087 78.2307 72.7115 78.2424 72.5201L78.7053 73.0415C78.678 73.2056 78.6038 73.3872 78.4827 73.5865C78.3616 73.7857 78.1995 73.9771 77.9963 74.1607C77.7971 74.3404 77.5588 74.4908 77.2815 74.6119C77.0081 74.729 76.6995 74.7876 76.3557 74.7876C75.926 74.7876 75.5491 74.7036 75.2249 74.5357C74.9045 74.3677 74.6545 74.1431 74.4749 73.8619C74.2991 73.5767 74.2112 73.2583 74.2112 72.9068C74.2112 72.5669 74.2776 72.2681 74.4104 72.0103C74.5432 71.7486 74.7346 71.5318 74.9846 71.3599C75.2346 71.1841 75.5354 71.0513 75.887 70.9615C76.2385 70.8716 76.6311 70.8267 77.0647 70.8267H78.3245ZM82.1038 65.6704V74.6704H81.0139V65.6704H82.1038ZM85.0217 65.6704V74.6704H83.9319V65.6704H85.0217ZM88.5432 74.0142L90.3069 68.3306H91.467L88.9241 75.649C88.8655 75.8052 88.7874 75.9732 88.6897 76.1529C88.5959 76.3365 88.4749 76.5103 88.3264 76.6744C88.178 76.8384 87.9983 76.9712 87.7874 77.0728C87.5803 77.1783 87.3323 77.231 87.0432 77.231C86.9573 77.231 86.8479 77.2193 86.7151 77.1958C86.5823 77.1724 86.4885 77.1529 86.4338 77.1372L86.428 76.2583C86.4592 76.2622 86.5081 76.2661 86.5745 76.2701C86.6448 76.2779 86.6936 76.2818 86.7209 76.2818C86.967 76.2818 87.176 76.2486 87.3479 76.1822C87.5198 76.1197 87.6643 76.0122 87.7815 75.8599C87.9026 75.7115 88.0061 75.5064 88.092 75.2447L88.5432 74.0142ZM87.2483 68.3306L88.8948 73.2525L89.176 74.3951L88.3967 74.7935L86.0647 68.3306H87.2483ZM97.9592 73.897C98.217 73.897 98.4553 73.8443 98.6741 73.7388C98.8928 73.6333 99.0725 73.4888 99.2131 73.3052C99.3538 73.1177 99.4338 72.9048 99.4534 72.6665H100.485C100.465 73.0415 100.338 73.3911 100.104 73.7154C99.8733 74.0357 99.5706 74.2954 99.1956 74.4947C98.8206 74.69 98.4084 74.7876 97.9592 74.7876C97.4827 74.7876 97.0667 74.7036 96.7112 74.5357C96.3596 74.3677 96.0667 74.1372 95.8323 73.8443C95.6018 73.5513 95.428 73.2154 95.3108 72.8365C95.1975 72.4536 95.1409 72.0494 95.1409 71.6236V71.3775C95.1409 70.9517 95.1975 70.5494 95.3108 70.1704C95.428 69.7876 95.6018 69.4497 95.8323 69.1568C96.0667 68.8638 96.3596 68.6333 96.7112 68.4654C97.0667 68.2974 97.4827 68.2134 97.9592 68.2134C98.4553 68.2134 98.8889 68.315 99.26 68.5181C99.6311 68.7173 99.9221 68.9908 100.133 69.3384C100.348 69.6822 100.465 70.0728 100.485 70.5103H99.4534C99.4338 70.2486 99.3596 70.0122 99.2307 69.8013C99.1057 69.5904 98.9338 69.4224 98.7151 69.2974C98.5002 69.1685 98.2483 69.104 97.9592 69.104C97.6272 69.104 97.3479 69.1704 97.1213 69.3033C96.8987 69.4322 96.7209 69.6079 96.5881 69.8306C96.4592 70.0494 96.3655 70.2935 96.3069 70.563C96.2522 70.8286 96.2249 71.1001 96.2249 71.3775V71.6236C96.2249 71.9009 96.2522 72.1744 96.3069 72.4439C96.3616 72.7134 96.4534 72.9576 96.5823 73.1763C96.7151 73.3951 96.8928 73.5708 97.1155 73.7036C97.342 73.8326 97.6233 73.897 97.9592 73.897ZM104.334 74.7876C103.893 74.7876 103.492 74.7134 103.133 74.565C102.778 74.4126 102.471 74.1997 102.213 73.9263C101.959 73.6529 101.764 73.3286 101.627 72.9536C101.49 72.5786 101.422 72.1685 101.422 71.7232V71.4771C101.422 70.9615 101.498 70.5025 101.651 70.1001C101.803 69.6939 102.01 69.3501 102.272 69.0689C102.533 68.7876 102.83 68.5747 103.162 68.4302C103.494 68.2857 103.838 68.2134 104.194 68.2134C104.647 68.2134 105.037 68.2915 105.365 68.4478C105.698 68.604 105.969 68.8228 106.18 69.104C106.391 69.3814 106.547 69.7095 106.649 70.0884C106.75 70.4634 106.801 70.8736 106.801 71.3189V71.8052H102.067V70.9204H105.717V70.8384C105.701 70.5572 105.643 70.2837 105.541 70.0181C105.444 69.7525 105.287 69.5337 105.073 69.3619C104.858 69.19 104.565 69.104 104.194 69.104C103.948 69.104 103.721 69.1568 103.514 69.2622C103.307 69.3638 103.129 69.5161 102.981 69.7193C102.832 69.9224 102.717 70.1704 102.635 70.4634C102.553 70.7564 102.512 71.0943 102.512 71.4771V71.7232C102.512 72.024 102.553 72.3072 102.635 72.5728C102.721 72.8345 102.844 73.065 103.004 73.2642C103.168 73.4634 103.365 73.6197 103.596 73.7329C103.83 73.8462 104.096 73.9029 104.393 73.9029C104.776 73.9029 105.1 73.8247 105.365 73.6685C105.631 73.5122 105.864 73.3033 106.063 73.0415L106.719 73.563C106.582 73.7701 106.408 73.9673 106.198 74.1548C105.987 74.3423 105.727 74.4947 105.418 74.6119C105.114 74.729 104.752 74.7876 104.334 74.7876ZM109.151 69.6841V74.6704H108.067V68.3306H109.092L109.151 69.6841ZM108.893 71.2603L108.442 71.2427C108.446 70.8091 108.51 70.4087 108.635 70.0415C108.76 69.6704 108.936 69.3482 109.162 69.0747C109.389 68.8013 109.658 68.5904 109.971 68.4419C110.287 68.2896 110.637 68.2134 111.02 68.2134C111.332 68.2134 111.614 68.2564 111.864 68.3423C112.114 68.4244 112.326 68.5572 112.502 68.7408C112.682 68.9244 112.819 69.1626 112.912 69.4556C113.006 69.7447 113.053 70.0982 113.053 70.5161V74.6704H111.963V70.5044C111.963 70.1724 111.914 69.9068 111.817 69.7076C111.719 69.5044 111.576 69.3579 111.389 69.2681C111.201 69.1744 110.971 69.1275 110.698 69.1275C110.428 69.1275 110.182 69.1841 109.959 69.2974C109.74 69.4107 109.551 69.5669 109.391 69.7661C109.235 69.9654 109.112 70.1939 109.022 70.4517C108.936 70.7056 108.893 70.9751 108.893 71.2603ZM117.354 68.3306V69.1626H113.926V68.3306H117.354ZM115.086 66.7896H116.17V73.1001C116.17 73.315 116.203 73.4771 116.27 73.5865C116.336 73.6958 116.422 73.7681 116.528 73.8033C116.633 73.8384 116.746 73.856 116.867 73.856C116.957 73.856 117.051 73.8482 117.149 73.8326C117.25 73.813 117.326 73.7974 117.377 73.7857L117.383 74.6704C117.297 74.6978 117.184 74.7232 117.043 74.7466C116.906 74.774 116.74 74.7876 116.545 74.7876C116.28 74.7876 116.035 74.7349 115.813 74.6294C115.59 74.524 115.412 74.3482 115.28 74.1021C115.151 73.8521 115.086 73.5161 115.086 73.0943V66.7896ZM121.256 74.7876C120.815 74.7876 120.414 74.7134 120.055 74.565C119.699 74.4126 119.393 74.1997 119.135 73.9263C118.881 73.6529 118.686 73.3286 118.549 72.9536C118.412 72.5786 118.344 72.1685 118.344 71.7232V71.4771C118.344 70.9615 118.42 70.5025 118.573 70.1001C118.725 69.6939 118.932 69.3501 119.194 69.0689C119.455 68.7876 119.752 68.5747 120.084 68.4302C120.416 68.2857 120.76 68.2134 121.115 68.2134C121.569 68.2134 121.959 68.2915 122.287 68.4478C122.619 68.604 122.891 68.8228 123.102 69.104C123.313 69.3814 123.469 69.7095 123.571 70.0884C123.672 70.4634 123.723 70.8736 123.723 71.3189V71.8052H118.989V70.9204H122.639V70.8384C122.623 70.5572 122.565 70.2837 122.463 70.0181C122.365 69.7525 122.209 69.5337 121.994 69.3619C121.78 69.19 121.487 69.104 121.115 69.104C120.869 69.104 120.643 69.1568 120.436 69.2622C120.229 69.3638 120.051 69.5161 119.903 69.7193C119.754 69.9224 119.639 70.1704 119.557 70.4634C119.475 70.7564 119.434 71.0943 119.434 71.4771V71.7232C119.434 72.024 119.475 72.3072 119.557 72.5728C119.643 72.8345 119.766 73.065 119.926 73.2642C120.09 73.4634 120.287 73.6197 120.518 73.7329C120.752 73.8462 121.018 73.9029 121.315 73.9029C121.698 73.9029 122.022 73.8247 122.287 73.6685C122.553 73.5122 122.785 73.3033 122.985 73.0415L123.641 73.563C123.504 73.7701 123.33 73.9673 123.119 74.1548C122.908 74.3423 122.649 74.4947 122.34 74.6119C122.035 74.729 121.674 74.7876 121.256 74.7876ZM126.073 69.3267V74.6704H124.989V68.3306H126.043L126.073 69.3267ZM128.053 68.2954L128.047 69.3033C127.957 69.2837 127.871 69.272 127.789 69.2681C127.711 69.2603 127.621 69.2564 127.52 69.2564C127.27 69.2564 127.049 69.2954 126.858 69.3736C126.666 69.4517 126.504 69.5611 126.371 69.7017C126.239 69.8423 126.133 70.0103 126.055 70.2056C125.981 70.397 125.932 70.6079 125.908 70.8384L125.604 71.0142C125.604 70.6314 125.641 70.272 125.715 69.9361C125.793 69.6001 125.912 69.3033 126.073 69.0454C126.233 68.7837 126.436 68.5806 126.682 68.4361C126.932 68.2876 127.229 68.2134 127.573 68.2134C127.651 68.2134 127.74 68.2232 127.842 68.2427C127.944 68.2583 128.014 68.2759 128.053 68.2954ZM131.569 74.7876C131.127 74.7876 130.727 74.7134 130.367 74.565C130.012 74.4126 129.705 74.1997 129.448 73.9263C129.194 73.6529 128.998 73.3286 128.862 72.9536C128.725 72.5786 128.656 72.1685 128.656 71.7232V71.4771C128.656 70.9615 128.733 70.5025 128.885 70.1001C129.037 69.6939 129.244 69.3501 129.506 69.0689C129.768 68.7876 130.065 68.5747 130.397 68.4302C130.729 68.2857 131.073 68.2134 131.428 68.2134C131.881 68.2134 132.272 68.2915 132.6 68.4478C132.932 68.604 133.203 68.8228 133.414 69.104C133.625 69.3814 133.781 69.7095 133.883 70.0884C133.985 70.4634 134.035 70.8736 134.035 71.3189V71.8052H129.301V70.9204H132.951V70.8384C132.936 70.5572 132.877 70.2837 132.776 70.0181C132.678 69.7525 132.522 69.5337 132.307 69.3619C132.092 69.19 131.799 69.104 131.428 69.104C131.182 69.104 130.955 69.1568 130.748 69.2622C130.541 69.3638 130.364 69.5161 130.215 69.7193C130.067 69.9224 129.951 70.1704 129.869 70.4634C129.787 70.7564 129.746 71.0943 129.746 71.4771V71.7232C129.746 72.024 129.787 72.3072 129.869 72.5728C129.955 72.8345 130.078 73.065 130.239 73.2642C130.403 73.4634 130.6 73.6197 130.83 73.7329C131.065 73.8462 131.33 73.9029 131.627 73.9029C132.01 73.9029 132.334 73.8247 132.6 73.6685C132.865 73.5122 133.098 73.3033 133.297 73.0415L133.953 73.563C133.817 73.7701 133.643 73.9673 133.432 74.1548C133.221 74.3423 132.961 74.4947 132.653 74.6119C132.348 74.729 131.987 74.7876 131.569 74.7876ZM139.297 73.44V65.6704H140.387V74.6704H139.391L139.297 73.44ZM135.031 71.5708V71.4478C135.031 70.9634 135.09 70.524 135.207 70.1294C135.328 69.731 135.498 69.3892 135.717 69.104C135.94 68.8189 136.203 68.6001 136.508 68.4478C136.817 68.2915 137.16 68.2134 137.539 68.2134C137.938 68.2134 138.285 68.2837 138.582 68.4244C138.883 68.5611 139.137 68.7622 139.344 69.0279C139.555 69.2896 139.721 69.606 139.842 69.9771C139.963 70.3482 140.047 70.7681 140.094 71.2369V71.7759C140.051 72.2408 139.967 72.6587 139.842 73.0298C139.721 73.4009 139.555 73.7173 139.344 73.979C139.137 74.2408 138.883 74.4419 138.582 74.5826C138.281 74.7193 137.93 74.7876 137.528 74.7876C137.156 74.7876 136.817 74.7076 136.508 74.5474C136.203 74.3872 135.94 74.1626 135.717 73.8736C135.498 73.5845 135.328 73.2447 135.207 72.854C135.09 72.4595 135.031 72.0318 135.031 71.5708ZM136.121 71.4478V71.5708C136.121 71.8872 136.153 72.1841 136.215 72.4615C136.281 72.7388 136.383 72.9829 136.52 73.1939C136.656 73.4048 136.83 73.5708 137.041 73.6919C137.252 73.8091 137.504 73.8677 137.797 73.8677C138.156 73.8677 138.451 73.7915 138.682 73.6392C138.916 73.4869 139.104 73.2857 139.244 73.0357C139.385 72.7857 139.494 72.5142 139.573 72.2212V70.8091C139.526 70.5943 139.457 70.3872 139.367 70.188C139.281 69.9849 139.168 69.8052 139.028 69.649C138.891 69.4888 138.721 69.3619 138.518 69.2681C138.319 69.1744 138.082 69.1275 137.809 69.1275C137.512 69.1275 137.256 69.19 137.041 69.315C136.83 69.4361 136.656 69.604 136.52 69.8189C136.383 70.0298 136.281 70.2759 136.215 70.5572C136.153 70.8345 136.121 71.1314 136.121 71.4478ZM10.6663 82.3306V83.1626H7.23853V82.3306H10.6663ZM8.39868 80.7896H9.48267V87.1001C9.48267 87.315 9.51587 87.4771 9.58228 87.5865C9.64868 87.6958 9.73462 87.7681 9.84009 87.8033C9.94556 87.8384 10.0588 87.856 10.1799 87.856C10.2698 87.856 10.3635 87.8482 10.4612 87.8326C10.5627 87.813 10.6389 87.7974 10.6897 87.7857L10.6956 88.6704C10.6096 88.6978 10.4963 88.7232 10.3557 88.7466C10.219 88.774 10.053 88.7876 9.85767 88.7876C9.59204 88.7876 9.3479 88.7349 9.12524 88.6294C8.90259 88.524 8.72485 88.3482 8.59204 88.1021C8.46313 87.8521 8.39868 87.5161 8.39868 87.0943V80.7896ZM14.5686 88.7876C14.1272 88.7876 13.7268 88.7134 13.3674 88.565C13.012 88.4126 12.7053 88.1997 12.4475 87.9263C12.1936 87.6529 11.9983 87.3286 11.8616 86.9536C11.7249 86.5786 11.6565 86.1685 11.6565 85.7232V85.4771C11.6565 84.9615 11.7327 84.5025 11.885 84.1001C12.0374 83.6939 12.2444 83.3501 12.5061 83.0689C12.7678 82.7876 13.0647 82.5747 13.3967 82.4302C13.7288 82.2857 14.0725 82.2134 14.428 82.2134C14.8811 82.2134 15.2717 82.2915 15.5999 82.4478C15.9319 82.604 16.2034 82.8228 16.4143 83.104C16.6252 83.3814 16.7815 83.7095 16.8831 84.0884C16.9846 84.4634 17.0354 84.8736 17.0354 85.3189V85.8052H12.301V84.9204H15.9514V84.8384C15.9358 84.5572 15.8772 84.2837 15.7756 84.0181C15.678 83.7525 15.5217 83.5337 15.3069 83.3619C15.092 83.19 14.7991 83.104 14.428 83.104C14.1819 83.104 13.9553 83.1568 13.7483 83.2622C13.5413 83.3638 13.3635 83.5161 13.2151 83.7193C13.0667 83.9224 12.9514 84.1704 12.8694 84.4634C12.7874 84.7564 12.7463 85.0943 12.7463 85.4771V85.7232C12.7463 86.024 12.7874 86.3072 12.8694 86.5728C12.9553 86.8345 13.0784 87.065 13.2385 87.2642C13.4026 87.4634 13.5999 87.6197 13.8303 87.7329C14.0647 87.8462 14.3303 87.9029 14.6272 87.9029C15.01 87.9029 15.3342 87.8247 15.5999 87.6685C15.8655 87.5122 16.0979 87.3033 16.2971 87.0415L16.9534 87.563C16.8167 87.7701 16.6428 87.9673 16.4319 88.1548C16.2209 88.3423 15.9612 88.4947 15.6526 88.6119C15.3479 88.729 14.9866 88.7876 14.5686 88.7876ZM19.0334 82.3306L20.4221 84.6392L21.8284 82.3306H23.0999L21.0256 85.4595L23.1643 88.6704H21.9104L20.4456 86.2915L18.9807 88.6704H17.7209L19.8538 85.4595L17.7854 82.3306H19.0334ZM26.9084 82.3306V83.1626H23.4807V82.3306H26.9084ZM24.6409 80.7896H25.7249V87.1001C25.7249 87.315 25.7581 87.4771 25.8245 87.5865C25.8909 87.6958 25.9768 87.7681 26.0823 87.8033C26.1877 87.8384 26.301 87.856 26.4221 87.856C26.512 87.856 26.6057 87.8482 26.7034 87.8326C26.8049 87.813 26.8811 87.7974 26.9319 87.7857L26.9377 88.6704C26.8518 88.6978 26.7385 88.7232 26.5979 88.7466C26.4612 88.774 26.2952 88.7876 26.0999 88.7876C25.8342 88.7876 25.5901 88.7349 25.3674 88.6294C25.1448 88.524 24.967 88.3482 24.8342 88.1021C24.7053 87.8521 24.6409 87.5161 24.6409 87.0943V80.7896ZM32.762 87.5454L34.3909 82.3306H35.1057L34.9651 83.3677L33.3069 88.6704H32.6096L32.762 87.5454ZM31.6663 82.3306L33.0549 87.604L33.1545 88.6704H32.4221L30.5823 82.3306H31.6663ZM36.6643 87.563L37.9885 82.3306H39.0667L37.2268 88.6704H36.5002L36.6643 87.563ZM35.2639 82.3306L36.8577 87.4576L37.0393 88.6704H36.3479L34.6428 83.356L34.5022 82.3306H35.2639ZM41.3577 82.3306V88.6704H40.2678V82.3306H41.3577ZM40.1858 80.649C40.1858 80.4732 40.2385 80.3247 40.344 80.2036C40.4534 80.0826 40.6135 80.022 40.8245 80.022C41.0315 80.022 41.1897 80.0826 41.2991 80.2036C41.4124 80.3247 41.469 80.4732 41.469 80.649C41.469 80.8169 41.4124 80.9615 41.2991 81.0826C41.1897 81.1997 41.0315 81.2583 40.8245 81.2583C40.6135 81.2583 40.4534 81.1997 40.344 81.0826C40.2385 80.9615 40.1858 80.8169 40.1858 80.649ZM45.7522 82.3306V83.1626H42.3245V82.3306H45.7522ZM43.4846 80.7896H44.5686V87.1001C44.5686 87.315 44.6018 87.4771 44.6682 87.5865C44.7346 87.6958 44.8206 87.7681 44.926 87.8033C45.0315 87.8384 45.1448 87.856 45.2659 87.856C45.3557 87.856 45.4495 87.8482 45.5471 87.8326C45.6487 87.813 45.7249 87.7974 45.7756 87.7857L45.7815 88.6704C45.6956 88.6978 45.5823 88.7232 45.4417 88.7466C45.3049 88.774 45.1389 88.7876 44.9436 88.7876C44.678 88.7876 44.4338 88.7349 44.2112 88.6294C43.9885 88.524 43.8108 88.3482 43.678 88.1021C43.5491 87.8521 43.4846 87.5161 43.4846 87.0943V80.7896ZM48.1077 79.6704V88.6704H47.0237V79.6704H48.1077ZM47.8499 85.2603L47.3987 85.2427C47.4026 84.8091 47.467 84.4087 47.592 84.0415C47.717 83.6704 47.8928 83.3482 48.1194 83.0747C48.3459 82.8013 48.6155 82.5904 48.928 82.4419C49.2444 82.2896 49.594 82.2134 49.9768 82.2134C50.2893 82.2134 50.5706 82.2564 50.8206 82.3423C51.0706 82.4244 51.2834 82.5572 51.4592 82.7408C51.6389 82.9244 51.7756 83.1626 51.8694 83.4556C51.9631 83.7447 52.01 84.0982 52.01 84.5161V88.6704H50.9202V84.5044C50.9202 84.1724 50.8713 83.9068 50.7737 83.7076C50.676 83.5044 50.5334 83.3579 50.3459 83.2681C50.1584 83.1744 49.928 83.1275 49.6545 83.1275C49.385 83.1275 49.1389 83.1841 48.9163 83.2974C48.6975 83.4107 48.5081 83.5669 48.3479 83.7661C48.1917 83.9654 48.0686 84.1939 47.9788 84.4517C47.8928 84.7056 47.8499 84.9751 47.8499 85.2603ZM60.3479 87.5865V84.3228C60.3479 84.0728 60.2971 83.856 60.1956 83.6724C60.0979 83.4849 59.9495 83.3404 59.7502 83.2388C59.551 83.1372 59.3049 83.0865 59.012 83.0865C58.7385 83.0865 58.4983 83.1333 58.2913 83.2271C58.0881 83.3208 57.928 83.4439 57.8108 83.5962C57.6975 83.7486 57.6409 83.9126 57.6409 84.0884H56.5569C56.5569 83.8619 56.6155 83.6372 56.7327 83.4146C56.8499 83.1919 57.0178 82.9908 57.2366 82.8111C57.4592 82.6275 57.7249 82.4829 58.0334 82.3775C58.3459 82.2681 58.6936 82.2134 59.0764 82.2134C59.5374 82.2134 59.9436 82.2915 60.2952 82.4478C60.6506 82.604 60.928 82.8404 61.1272 83.1568C61.3303 83.4693 61.4319 83.8619 61.4319 84.3345V87.2876C61.4319 87.4986 61.4495 87.7232 61.4846 87.9615C61.5237 88.1997 61.5803 88.4048 61.6545 88.5767V88.6704H60.5237C60.469 88.5454 60.426 88.3794 60.3948 88.1724C60.3635 87.9615 60.3479 87.7661 60.3479 87.5865ZM60.5354 84.8267L60.5471 85.5884H59.4514C59.1428 85.5884 58.8674 85.6138 58.6252 85.6646C58.3831 85.7115 58.1799 85.7837 58.0159 85.8814C57.8518 85.979 57.7268 86.1021 57.6409 86.2505C57.5549 86.3951 57.512 86.565 57.512 86.7603C57.512 86.9595 57.5569 87.1411 57.6467 87.3052C57.7366 87.4693 57.8713 87.6001 58.051 87.6978C58.2346 87.7915 58.4592 87.8384 58.7249 87.8384C59.0569 87.8384 59.3499 87.7681 59.6038 87.6275C59.8577 87.4869 60.0588 87.315 60.2073 87.1119C60.3596 86.9087 60.4417 86.7115 60.4534 86.5201L60.9163 87.0415C60.8889 87.2056 60.8147 87.3872 60.6936 87.5865C60.5725 87.7857 60.4104 87.9771 60.2073 88.1607C60.0081 88.3404 59.7698 88.4908 59.4924 88.6119C59.219 88.729 58.9104 88.7876 58.5667 88.7876C58.137 88.7876 57.76 88.7036 57.4358 88.5357C57.1155 88.3677 56.8655 88.1431 56.6858 87.8619C56.51 87.5767 56.4221 87.2583 56.4221 86.9068C56.4221 86.5669 56.4885 86.2681 56.6213 86.0103C56.7542 85.7486 56.9456 85.5318 57.1956 85.3599C57.4456 85.1841 57.7463 85.0513 58.0979 84.9615C58.4495 84.8716 58.842 84.8267 59.2756 84.8267H60.5354ZM64.2209 83.6841V88.6704H63.137V82.3306H64.1624L64.2209 83.6841ZM63.9631 85.2603L63.512 85.2427C63.5159 84.8091 63.5803 84.4087 63.7053 84.0415C63.8303 83.6704 64.0061 83.3482 64.2327 83.0747C64.4592 82.8013 64.7288 82.5904 65.0413 82.4419C65.3577 82.2896 65.7073 82.2134 66.0901 82.2134C66.4026 82.2134 66.6838 82.2564 66.9338 82.3423C67.1838 82.4244 67.3967 82.5572 67.5725 82.7408C67.7522 82.9244 67.8889 83.1626 67.9827 83.4556C68.0764 83.7447 68.1233 84.0982 68.1233 84.5161V88.6704H67.0334V84.5044C67.0334 84.1724 66.9846 83.9068 66.887 83.7076C66.7893 83.5044 66.6467 83.3579 66.4592 83.2681C66.2717 83.1744 66.0413 83.1275 65.7678 83.1275C65.4983 83.1275 65.2522 83.1841 65.0295 83.2974C64.8108 83.4107 64.6213 83.5669 64.4612 83.7661C64.3049 83.9654 64.1819 84.1939 64.092 84.4517C64.0061 84.7056 63.9631 84.9751 63.9631 85.2603ZM9.1897 96.3306V102.67H8.09985V96.3306H9.1897ZM8.01782 94.649C8.01782 94.4732 8.07056 94.3247 8.17603 94.2036C8.2854 94.0826 8.44556 94.022 8.65649 94.022C8.86353 94.022 9.02173 94.0826 9.1311 94.2036C9.24438 94.3247 9.30103 94.4732 9.30103 94.649C9.30103 94.8169 9.24438 94.9615 9.1311 95.0826C9.02173 95.1997 8.86353 95.2583 8.65649 95.2583C8.44556 95.2583 8.2854 95.1997 8.17603 95.0826C8.07056 94.9615 8.01782 94.8169 8.01782 94.649ZM12.0139 97.6841V102.67H10.9299V96.3306H11.9553L12.0139 97.6841ZM11.7561 99.2603L11.3049 99.2427C11.3088 98.8091 11.3733 98.4087 11.4983 98.0415C11.6233 97.6704 11.7991 97.3482 12.0256 97.0747C12.2522 96.8013 12.5217 96.5904 12.8342 96.4419C13.1506 96.2896 13.5002 96.2134 13.8831 96.2134C14.1956 96.2134 14.4768 96.2564 14.7268 96.3423C14.9768 96.4244 15.1897 96.5572 15.3655 96.7408C15.5452 96.9244 15.6819 97.1626 15.7756 97.4556C15.8694 97.7447 15.9163 98.0982 15.9163 98.5161V102.67H14.8264V98.5044C14.8264 98.1724 14.7776 97.9068 14.6799 97.7076C14.5823 97.5044 14.4397 97.3579 14.2522 97.2681C14.0647 97.1744 13.8342 97.1275 13.5608 97.1275C13.2913 97.1275 13.0452 97.1841 12.8225 97.2974C12.6038 97.4107 12.4143 97.5669 12.2542 97.7661C12.0979 97.9654 11.9749 98.1939 11.885 98.4517C11.7991 98.7056 11.7561 98.9751 11.7561 99.2603ZM20.1936 102.788C19.7522 102.788 19.3518 102.713 18.9924 102.565C18.637 102.413 18.3303 102.2 18.0725 101.926C17.8186 101.653 17.6233 101.329 17.4866 100.954C17.3499 100.579 17.2815 100.168 17.2815 99.7232V99.4771C17.2815 98.9615 17.3577 98.5025 17.51 98.1001C17.6624 97.6939 17.8694 97.3501 18.1311 97.0689C18.3928 96.7876 18.6897 96.5747 19.0217 96.4302C19.3538 96.2857 19.6975 96.2134 20.053 96.2134C20.5061 96.2134 20.8967 96.2915 21.2249 96.4478C21.5569 96.604 21.8284 96.8228 22.0393 97.104C22.2502 97.3814 22.4065 97.7095 22.5081 98.0884C22.6096 98.4634 22.6604 98.8736 22.6604 99.3189V99.8052H17.926V98.9204H21.5764V98.8384C21.5608 98.5572 21.5022 98.2837 21.4006 98.0181C21.303 97.7525 21.1467 97.5337 20.9319 97.3619C20.717 97.19 20.4241 97.104 20.053 97.104C19.8069 97.104 19.5803 97.1568 19.3733 97.2622C19.1663 97.3638 18.9885 97.5161 18.8401 97.7193C18.6917 97.9224 18.5764 98.1704 18.4944 98.4634C18.4124 98.7564 18.3713 99.0943 18.3713 99.4771V99.7232C18.3713 100.024 18.4124 100.307 18.4944 100.573C18.5803 100.835 18.7034 101.065 18.8635 101.264C19.0276 101.463 19.2249 101.62 19.4553 101.733C19.6897 101.846 19.9553 101.903 20.2522 101.903C20.635 101.903 20.9592 101.825 21.2249 101.668C21.4905 101.512 21.7229 101.303 21.9221 101.042L22.5784 101.563C22.4417 101.77 22.2678 101.967 22.0569 102.155C21.8459 102.342 21.5862 102.495 21.2776 102.612C20.9729 102.729 20.6116 102.788 20.1936 102.788ZM25.7717 101.692L27.5061 96.3306H28.6135L26.3342 102.67H25.6077L25.7717 101.692ZM24.3245 96.3306L26.1116 101.721L26.2346 102.67H25.5081L23.2112 96.3306H24.3245ZM30.8342 96.3306V102.67H29.7444V96.3306H30.8342ZM29.6624 94.649C29.6624 94.4732 29.7151 94.3247 29.8206 94.2036C29.9299 94.0826 30.0901 94.022 30.301 94.022C30.5081 94.022 30.6663 94.0826 30.7756 94.2036C30.8889 94.3247 30.9456 94.4732 30.9456 94.649C30.9456 94.8169 30.8889 94.9615 30.7756 95.0826C30.6663 95.1997 30.5081 95.2583 30.301 95.2583C30.0901 95.2583 29.9299 95.1997 29.8206 95.0826C29.7151 94.9615 29.6624 94.8169 29.6624 94.649ZM35.2288 96.3306V97.1626H31.801V96.3306H35.2288ZM32.9612 94.7896H34.0452V101.1C34.0452 101.315 34.0784 101.477 34.1448 101.586C34.2112 101.696 34.2971 101.768 34.4026 101.803C34.5081 101.838 34.6213 101.856 34.7424 101.856C34.8323 101.856 34.926 101.848 35.0237 101.833C35.1252 101.813 35.2014 101.797 35.2522 101.786L35.2581 102.67C35.1721 102.698 35.0588 102.723 34.9182 102.747C34.7815 102.774 34.6155 102.788 34.4202 102.788C34.1545 102.788 33.9104 102.735 33.6877 102.629C33.4651 102.524 33.2874 102.348 33.1545 102.102C33.0256 101.852 32.9612 101.516 32.9612 101.094V94.7896ZM40.2385 101.586V98.3228C40.2385 98.0728 40.1877 97.856 40.0862 97.6724C39.9885 97.4849 39.8401 97.3404 39.6409 97.2388C39.4417 97.1372 39.1956 97.0865 38.9026 97.0865C38.6292 97.0865 38.3889 97.1333 38.1819 97.2271C37.9788 97.3208 37.8186 97.4439 37.7014 97.5962C37.5881 97.7486 37.5315 97.9126 37.5315 98.0884H36.4475C36.4475 97.8619 36.5061 97.6372 36.6233 97.4146C36.7405 97.1919 36.9084 96.9908 37.1272 96.8111C37.3499 96.6275 37.6155 96.4829 37.9241 96.3775C38.2366 96.2681 38.5842 96.2134 38.967 96.2134C39.428 96.2134 39.8342 96.2915 40.1858 96.4478C40.5413 96.604 40.8186 96.8404 41.0178 97.1568C41.2209 97.4693 41.3225 97.8619 41.3225 98.3345V101.288C41.3225 101.499 41.3401 101.723 41.3752 101.961C41.4143 102.2 41.4709 102.405 41.5452 102.577V102.67H40.4143C40.3596 102.545 40.3167 102.379 40.2854 102.172C40.2542 101.961 40.2385 101.766 40.2385 101.586ZM40.426 98.8267L40.4377 99.5884H39.342C39.0334 99.5884 38.7581 99.6138 38.5159 99.6646C38.2737 99.7115 38.0706 99.7837 37.9065 99.8814C37.7424 99.979 37.6174 100.102 37.5315 100.251C37.4456 100.395 37.4026 100.565 37.4026 100.76C37.4026 100.96 37.4475 101.141 37.5374 101.305C37.6272 101.469 37.762 101.6 37.9417 101.698C38.1252 101.792 38.3499 101.838 38.6155 101.838C38.9475 101.838 39.2405 101.768 39.4944 101.627C39.7483 101.487 39.9495 101.315 40.0979 101.112C40.2502 100.909 40.3323 100.711 40.344 100.52L40.8069 101.042C40.7795 101.206 40.7053 101.387 40.5842 101.586C40.4631 101.786 40.301 101.977 40.0979 102.161C39.8987 102.34 39.6604 102.491 39.3831 102.612C39.1096 102.729 38.801 102.788 38.4573 102.788C38.0276 102.788 37.6506 102.704 37.3264 102.536C37.0061 102.368 36.7561 102.143 36.5764 101.862C36.4006 101.577 36.3127 101.258 36.3127 100.907C36.3127 100.567 36.3792 100.268 36.512 100.01C36.6448 99.7486 36.8362 99.5318 37.0862 99.3599C37.3362 99.1841 37.637 99.0513 37.9885 98.9615C38.3401 98.8716 38.7327 98.8267 39.1663 98.8267H40.426ZM43.0217 93.6704H44.1116V101.44L44.0178 102.67H43.0217V93.6704ZM48.3948 99.4478V99.5708C48.3948 100.032 48.3401 100.46 48.2307 100.854C48.1213 101.245 47.9612 101.585 47.7502 101.874C47.5393 102.163 47.2815 102.387 46.9768 102.547C46.6721 102.708 46.3225 102.788 45.928 102.788C45.5256 102.788 45.1721 102.719 44.8674 102.583C44.5667 102.442 44.3127 102.241 44.1057 101.979C43.8987 101.717 43.7327 101.401 43.6077 101.03C43.4866 100.659 43.4026 100.241 43.3557 99.7759V99.2369C43.4026 98.7681 43.4866 98.3482 43.6077 97.9771C43.7327 97.606 43.8987 97.2896 44.1057 97.0279C44.3127 96.7622 44.5667 96.5611 44.8674 96.4244C45.1682 96.2837 45.5178 96.2134 45.9163 96.2134C46.3147 96.2134 46.6682 96.2915 46.9768 96.4478C47.2854 96.6001 47.5432 96.8189 47.7502 97.104C47.9612 97.3892 48.1213 97.731 48.2307 98.1294C48.3401 98.524 48.3948 98.9634 48.3948 99.4478ZM47.3049 99.5708V99.4478C47.3049 99.1314 47.2756 98.8345 47.217 98.5572C47.1584 98.2759 47.0647 98.0298 46.9358 97.8189C46.8069 97.604 46.637 97.4361 46.426 97.315C46.2151 97.19 45.9553 97.1275 45.6467 97.1275C45.3733 97.1275 45.135 97.1744 44.9319 97.2681C44.7327 97.3619 44.5627 97.4888 44.4221 97.649C44.2815 97.8052 44.1663 97.9849 44.0764 98.188C43.9905 98.3872 43.926 98.5943 43.8831 98.8091V100.221C43.9456 100.495 44.0471 100.758 44.1877 101.012C44.3323 101.262 44.5237 101.467 44.762 101.627C45.0042 101.788 45.303 101.868 45.6584 101.868C45.9514 101.868 46.2014 101.809 46.4084 101.692C46.6194 101.571 46.7893 101.405 46.9182 101.194C47.051 100.983 47.1487 100.739 47.2112 100.461C47.2737 100.184 47.3049 99.8872 47.3049 99.5708ZM50.9436 93.6704V102.67H49.8538V93.6704H50.9436ZM55.3147 102.788C54.8733 102.788 54.4729 102.713 54.1135 102.565C53.7581 102.413 53.4514 102.2 53.1936 101.926C52.9397 101.653 52.7444 101.329 52.6077 100.954C52.4709 100.579 52.4026 100.168 52.4026 99.7232V99.4771C52.4026 98.9615 52.4788 98.5025 52.6311 98.1001C52.7834 97.6939 52.9905 97.3501 53.2522 97.0689C53.5139 96.7876 53.8108 96.5747 54.1428 96.4302C54.4749 96.2857 54.8186 96.2134 55.1741 96.2134C55.6272 96.2134 56.0178 96.2915 56.3459 96.4478C56.678 96.604 56.9495 96.8228 57.1604 97.104C57.3713 97.3814 57.5276 97.7095 57.6292 98.0884C57.7307 98.4634 57.7815 98.8736 57.7815 99.3189V99.8052H53.0471V98.9204H56.6975V98.8384C56.6819 98.5572 56.6233 98.2837 56.5217 98.0181C56.4241 97.7525 56.2678 97.5337 56.053 97.3619C55.8381 97.19 55.5452 97.104 55.1741 97.104C54.928 97.104 54.7014 97.1568 54.4944 97.2622C54.2874 97.3638 54.1096 97.5161 53.9612 97.7193C53.8127 97.9224 53.6975 98.1704 53.6155 98.4634C53.5334 98.7564 53.4924 99.0943 53.4924 99.4771V99.7232C53.4924 100.024 53.5334 100.307 53.6155 100.573C53.7014 100.835 53.8245 101.065 53.9846 101.264C54.1487 101.463 54.3459 101.62 54.5764 101.733C54.8108 101.846 55.0764 101.903 55.3733 101.903C55.7561 101.903 56.0803 101.825 56.3459 101.668C56.6116 101.512 56.844 101.303 57.0432 101.042L57.6995 101.563C57.5627 101.77 57.3889 101.967 57.178 102.155C56.967 102.342 56.7073 102.495 56.3987 102.612C56.094 102.729 55.7327 102.788 55.3147 102.788ZM10.5491 115.897C10.8069 115.897 11.0452 115.844 11.2639 115.739C11.4827 115.633 11.6624 115.489 11.803 115.305C11.9436 115.118 12.0237 114.905 12.0432 114.667H13.0745C13.0549 115.042 12.928 115.391 12.6936 115.715C12.4631 116.036 12.1604 116.295 11.7854 116.495C11.4104 116.69 10.9983 116.788 10.5491 116.788C10.0725 116.788 9.65649 116.704 9.30103 116.536C8.94946 116.368 8.65649 116.137 8.42212 115.844C8.19165 115.551 8.01782 115.215 7.90063 114.836C7.78735 114.454 7.73071 114.049 7.73071 113.624V113.377C7.73071 112.952 7.78735 112.549 7.90063 112.17C8.01782 111.788 8.19165 111.45 8.42212 111.157C8.65649 110.864 8.94946 110.633 9.30103 110.465C9.65649 110.297 10.0725 110.213 10.5491 110.213C11.0452 110.213 11.4788 110.315 11.8499 110.518C12.2209 110.717 12.512 110.991 12.7229 111.338C12.9377 111.682 13.0549 112.073 13.0745 112.51H12.0432C12.0237 112.249 11.9495 112.012 11.8206 111.801C11.6956 111.59 11.5237 111.422 11.3049 111.297C11.0901 111.168 10.8381 111.104 10.5491 111.104C10.217 111.104 9.93774 111.17 9.71118 111.303C9.48853 111.432 9.31079 111.608 9.17798 111.831C9.04907 112.049 8.95532 112.293 8.89673 112.563C8.84204 112.829 8.8147 113.1 8.8147 113.377V113.624C8.8147 113.901 8.84204 114.174 8.89673 114.444C8.95142 114.713 9.04321 114.958 9.17212 115.176C9.30493 115.395 9.48267 115.571 9.70532 115.704C9.93188 115.833 10.2131 115.897 10.5491 115.897ZM14.0061 113.571V113.436C14.0061 112.979 14.0725 112.555 14.2053 112.165C14.3381 111.77 14.5295 111.428 14.7795 111.139C15.0295 110.846 15.3323 110.62 15.6877 110.46C16.0432 110.295 16.4417 110.213 16.8831 110.213C17.3284 110.213 17.7288 110.295 18.0842 110.46C18.4436 110.62 18.7483 110.846 18.9983 111.139C19.2522 111.428 19.4456 111.77 19.5784 112.165C19.7112 112.555 19.7776 112.979 19.7776 113.436V113.571C19.7776 114.028 19.7112 114.452 19.5784 114.842C19.4456 115.233 19.2522 115.575 18.9983 115.868C18.7483 116.157 18.4456 116.383 18.0901 116.547C17.7385 116.708 17.3401 116.788 16.8948 116.788C16.4495 116.788 16.0491 116.708 15.6936 116.547C15.3381 116.383 15.0334 116.157 14.7795 115.868C14.5295 115.575 14.3381 115.233 14.2053 114.842C14.0725 114.452 14.0061 114.028 14.0061 113.571ZM15.0901 113.436V113.571C15.0901 113.887 15.1272 114.186 15.2014 114.467C15.2756 114.745 15.387 114.991 15.5354 115.206C15.6877 115.42 15.8772 115.59 16.1038 115.715C16.3303 115.836 16.594 115.897 16.8948 115.897C17.1917 115.897 17.4514 115.836 17.6741 115.715C17.9006 115.59 18.0881 115.42 18.2366 115.206C18.385 114.991 18.4963 114.745 18.5706 114.467C18.6487 114.186 18.6877 113.887 18.6877 113.571V113.436C18.6877 113.124 18.6487 112.829 18.5706 112.551C18.4963 112.27 18.3831 112.022 18.2307 111.807C18.0823 111.588 17.8948 111.417 17.6682 111.292C17.4456 111.167 17.1838 111.104 16.8831 111.104C16.5862 111.104 16.3245 111.167 16.0979 111.292C15.8752 111.417 15.6877 111.588 15.5354 111.807C15.387 112.022 15.2756 112.27 15.2014 112.551C15.1272 112.829 15.0901 113.124 15.0901 113.436ZM22.3147 107.67V116.67H21.2249V107.67H22.3147ZM25.2327 107.67V116.67H24.1428V107.67H25.2327ZM28.1506 110.331V116.67H27.0608V110.331H28.1506ZM26.9788 108.649C26.9788 108.473 27.0315 108.325 27.137 108.204C27.2463 108.083 27.4065 108.022 27.6174 108.022C27.8245 108.022 27.9827 108.083 28.092 108.204C28.2053 108.325 28.262 108.473 28.262 108.649C28.262 108.817 28.2053 108.961 28.092 109.083C27.9827 109.2 27.8245 109.258 27.6174 109.258C27.4065 109.258 27.2463 109.2 27.137 109.083C27.0315 108.961 26.9788 108.817 26.9788 108.649ZM33.5823 114.989C33.5823 114.833 33.5471 114.688 33.4768 114.555C33.4104 114.418 33.2717 114.295 33.0608 114.186C32.8538 114.073 32.5413 113.975 32.1233 113.893C31.7717 113.819 31.4534 113.731 31.1682 113.629C30.887 113.528 30.6467 113.405 30.4475 113.26C30.2522 113.116 30.1018 112.946 29.9963 112.751C29.8909 112.555 29.8381 112.327 29.8381 112.065C29.8381 111.815 29.8928 111.579 30.0022 111.356C30.1155 111.133 30.2737 110.936 30.4768 110.764C30.6838 110.592 30.9319 110.458 31.2209 110.36C31.51 110.262 31.8323 110.213 32.1877 110.213C32.6956 110.213 33.1292 110.303 33.4885 110.483C33.8479 110.663 34.1233 110.903 34.3147 111.204C34.5061 111.501 34.6018 111.831 34.6018 112.194H33.5178C33.5178 112.018 33.4651 111.848 33.3596 111.684C33.2581 111.516 33.1077 111.377 32.9084 111.268C32.7131 111.159 32.4729 111.104 32.1877 111.104C31.887 111.104 31.6428 111.151 31.4553 111.245C31.2717 111.335 31.137 111.45 31.051 111.59C30.969 111.731 30.928 111.879 30.928 112.036C30.928 112.153 30.9475 112.258 30.9866 112.352C31.0295 112.442 31.1038 112.526 31.2092 112.604C31.3147 112.678 31.4631 112.749 31.6545 112.815C31.8459 112.881 32.0901 112.948 32.387 113.014C32.9065 113.131 33.3342 113.272 33.6702 113.436C34.0061 113.6 34.2561 113.801 34.4202 114.04C34.5842 114.278 34.6663 114.567 34.6663 114.907C34.6663 115.184 34.6077 115.438 34.4905 115.668C34.3772 115.899 34.2112 116.098 33.9924 116.266C33.7776 116.43 33.5198 116.559 33.219 116.653C32.9221 116.743 32.5881 116.788 32.217 116.788C31.6584 116.788 31.1858 116.688 30.7991 116.489C30.4124 116.29 30.1194 116.032 29.9202 115.715C29.7209 115.399 29.6213 115.065 29.6213 114.713H30.7112C30.7268 115.01 30.8127 115.247 30.969 115.422C31.1252 115.594 31.3167 115.717 31.5432 115.792C31.7698 115.862 31.9944 115.897 32.217 115.897C32.5139 115.897 32.762 115.858 32.9612 115.78C33.1643 115.702 33.3186 115.594 33.4241 115.458C33.5295 115.321 33.5823 115.165 33.5823 114.989ZM37.2678 110.331V116.67H36.178V110.331H37.2678ZM36.0959 108.649C36.0959 108.473 36.1487 108.325 36.2542 108.204C36.3635 108.083 36.5237 108.022 36.7346 108.022C36.9417 108.022 37.0999 108.083 37.2092 108.204C37.3225 108.325 37.3792 108.473 37.3792 108.649C37.3792 108.817 37.3225 108.961 37.2092 109.083C37.0999 109.2 36.9417 109.258 36.7346 109.258C36.5237 109.258 36.3635 109.2 36.2542 109.083C36.1487 108.961 36.0959 108.817 36.0959 108.649ZM38.7209 113.571V113.436C38.7209 112.979 38.7874 112.555 38.9202 112.165C39.053 111.77 39.2444 111.428 39.4944 111.139C39.7444 110.846 40.0471 110.62 40.4026 110.46C40.7581 110.295 41.1565 110.213 41.5979 110.213C42.0432 110.213 42.4436 110.295 42.7991 110.46C43.1584 110.62 43.4631 110.846 43.7131 111.139C43.967 111.428 44.1604 111.77 44.2932 112.165C44.426 112.555 44.4924 112.979 44.4924 113.436V113.571C44.4924 114.028 44.426 114.452 44.2932 114.842C44.1604 115.233 43.967 115.575 43.7131 115.868C43.4631 116.157 43.1604 116.383 42.8049 116.547C42.4534 116.708 42.0549 116.788 41.6096 116.788C41.1643 116.788 40.7639 116.708 40.4084 116.547C40.053 116.383 39.7483 116.157 39.4944 115.868C39.2444 115.575 39.053 115.233 38.9202 114.842C38.7874 114.452 38.7209 114.028 38.7209 113.571ZM39.8049 113.436V113.571C39.8049 113.887 39.842 114.186 39.9163 114.467C39.9905 114.745 40.1018 114.991 40.2502 115.206C40.4026 115.42 40.592 115.59 40.8186 115.715C41.0452 115.836 41.3088 115.897 41.6096 115.897C41.9065 115.897 42.1663 115.836 42.3889 115.715C42.6155 115.59 42.803 115.42 42.9514 115.206C43.0999 114.991 43.2112 114.745 43.2854 114.467C43.3635 114.186 43.4026 113.887 43.4026 113.571V113.436C43.4026 113.124 43.3635 112.829 43.2854 112.551C43.2112 112.27 43.0979 112.022 42.9456 111.807C42.7971 111.588 42.6096 111.417 42.3831 111.292C42.1604 111.167 41.8987 111.104 41.5979 111.104C41.301 111.104 41.0393 111.167 40.8127 111.292C40.5901 111.417 40.4026 111.588 40.2502 111.807C40.1018 112.022 39.9905 112.27 39.9163 112.551C39.842 112.829 39.8049 113.124 39.8049 113.436ZM46.9358 111.684V116.67H45.8518V110.331H46.8772L46.9358 111.684ZM46.678 113.26L46.2268 113.243C46.2307 112.809 46.2952 112.409 46.4202 112.042C46.5452 111.67 46.7209 111.348 46.9475 111.075C47.1741 110.801 47.4436 110.59 47.7561 110.442C48.0725 110.29 48.4221 110.213 48.8049 110.213C49.1174 110.213 49.3987 110.256 49.6487 110.342C49.8987 110.424 50.1116 110.557 50.2874 110.741C50.467 110.924 50.6038 111.163 50.6975 111.456C50.7913 111.745 50.8381 112.098 50.8381 112.516V116.67H49.7483V112.504C49.7483 112.172 49.6995 111.907 49.6018 111.708C49.5042 111.504 49.3616 111.358 49.1741 111.268C48.9866 111.174 48.7561 111.127 48.4827 111.127C48.2131 111.127 47.967 111.184 47.7444 111.297C47.5256 111.411 47.3362 111.567 47.176 111.766C47.0198 111.965 46.8967 112.194 46.8069 112.452C46.7209 112.706 46.678 112.975 46.678 113.26ZM52.5022 116.096C52.5022 115.913 52.5588 115.758 52.6721 115.633C52.7893 115.504 52.9573 115.44 53.176 115.44C53.3948 115.44 53.5608 115.504 53.6741 115.633C53.7913 115.758 53.8499 115.913 53.8499 116.096C53.8499 116.276 53.7913 116.428 53.6741 116.553C53.5608 116.678 53.3948 116.741 53.176 116.741C52.9573 116.741 52.7893 116.678 52.6721 116.553C52.5588 116.428 52.5022 116.276 52.5022 116.096Z" fill="black"/>
<path d="M26.3389 2.25329L23.4521 7.25329L29.2256 7.25329L26.3389 2.25329ZM26.3389 65.6704L29.2256 60.6704L23.4521 60.6704L26.3389 65.6704ZM25.8389 6.75329L25.8389 61.1704L26.8389 61.1704L26.8389 6.75329L25.8389 6.75329Z" fill="#2DAD49"/>
<path d="M26.3389 119.67L23.4521 124.67L29.2256 124.67L26.3389 119.67ZM26.3389 183.088L29.2256 178.088L23.4521 178.088L26.3389 183.088ZM25.8389 124.17L25.8389 178.588L26.8389 178.588L26.8389 124.17L25.8389 124.17Z" fill="#2DAD49"/>
<rect x="73.7778" y="80.5889" width="72.3297" height="49.1558" fill="#FFB6CC" stroke="#CB1E52" stroke-width="2" stroke-dasharray="2 2"/>
<path d="M94.0286 90.3746L92.1458 95.5582H91.3763L93.5443 89.8707H94.0403L94.0286 90.3746ZM95.6068 95.5582L93.72 90.3746L93.7083 89.8707H94.2044L96.3802 95.5582H95.6068ZM95.5091 93.4527V94.0699H92.3138V93.4527H95.5091ZM97.0286 89.5582H97.7552V94.7378L97.6927 95.5582H97.0286V89.5582ZM100.611 93.4097V93.4918C100.611 93.799 100.574 94.0842 100.501 94.3472C100.428 94.6076 100.322 94.8342 100.181 95.0269C100.04 95.2196 99.8685 95.3694 99.6653 95.4761C99.4622 95.5829 99.2291 95.6363 98.9661 95.6363C98.6979 95.6363 98.4622 95.5907 98.2591 95.4996C98.0586 95.4058 97.8893 95.2717 97.7513 95.0972C97.6133 94.9227 97.5026 94.7118 97.4193 94.4644C97.3385 94.217 97.2825 93.9384 97.2513 93.6285V93.2691C97.2825 92.9566 97.3385 92.6766 97.4193 92.4293C97.5026 92.1819 97.6133 91.9709 97.7513 91.7964C97.8893 91.6194 98.0586 91.4852 98.2591 91.3941C98.4596 91.3003 98.6927 91.2535 98.9583 91.2535C99.2239 91.2535 99.4596 91.3056 99.6653 91.4097C99.8711 91.5113 100.043 91.6571 100.181 91.8472C100.322 92.0373 100.428 92.2652 100.501 92.5308C100.574 92.7938 100.611 93.0868 100.611 93.4097ZM99.8841 93.4918V93.4097C99.8841 93.1988 99.8646 93.0009 99.8255 92.816C99.7864 92.6285 99.7239 92.4644 99.638 92.3238C99.5521 92.1806 99.4388 92.0686 99.2982 91.9878C99.1575 91.9045 98.9844 91.8628 98.7786 91.8628C98.5963 91.8628 98.4375 91.8941 98.3021 91.9566C98.1693 92.0191 98.056 92.1037 97.9622 92.2105C97.8685 92.3147 97.7916 92.4345 97.7318 92.5699C97.6745 92.7027 97.6315 92.8407 97.6028 92.9839V93.9253C97.6445 94.1076 97.7122 94.2834 97.806 94.4527C97.9023 94.6194 98.0299 94.7561 98.1888 94.8628C98.3502 94.9696 98.5495 95.023 98.7864 95.023C98.9818 95.023 99.1484 94.9839 99.2864 94.9058C99.4271 94.8251 99.5403 94.7144 99.6263 94.5738C99.7148 94.4332 99.7799 94.2704 99.8216 94.0855C99.8633 93.9006 99.8841 93.7027 99.8841 93.4918ZM103.986 94.4371C103.986 94.3329 103.962 94.2365 103.915 94.148C103.871 94.0569 103.779 93.9748 103.638 93.9019C103.5 93.8264 103.292 93.7613 103.013 93.7066C102.779 93.6571 102.566 93.5985 102.376 93.5308C102.189 93.4631 102.029 93.3811 101.896 93.2847C101.766 93.1884 101.665 93.0751 101.595 92.9449C101.525 92.8147 101.49 92.6623 101.49 92.4878C101.49 92.3212 101.526 92.1636 101.599 92.0152C101.674 91.8668 101.78 91.7352 101.915 91.6207C102.053 91.5061 102.219 91.4162 102.411 91.3511C102.604 91.286 102.819 91.2535 103.056 91.2535C103.395 91.2535 103.684 91.3134 103.923 91.4332C104.163 91.553 104.346 91.7131 104.474 91.9136C104.602 92.1115 104.665 92.3316 104.665 92.5738H103.943C103.943 92.4566 103.908 92.3433 103.837 92.2339C103.77 92.122 103.669 92.0295 103.536 91.9566C103.406 91.8837 103.246 91.8472 103.056 91.8472C102.855 91.8472 102.693 91.8785 102.568 91.941C102.445 92.0009 102.355 92.0777 102.298 92.1714C102.243 92.2652 102.216 92.3641 102.216 92.4683C102.216 92.5464 102.229 92.6168 102.255 92.6793C102.284 92.7391 102.333 92.7951 102.404 92.8472C102.474 92.8967 102.573 92.9436 102.701 92.9878C102.828 93.0321 102.991 93.0764 103.189 93.1207C103.535 93.1988 103.82 93.2925 104.044 93.4019C104.268 93.5113 104.435 93.6454 104.544 93.8043C104.654 93.9631 104.708 94.1558 104.708 94.3824C104.708 94.5673 104.669 94.7365 104.591 94.8902C104.516 95.0438 104.405 95.1766 104.259 95.2886C104.116 95.398 103.944 95.4839 103.743 95.5464C103.546 95.6063 103.323 95.6363 103.076 95.6363C102.703 95.6363 102.388 95.5699 102.13 95.4371C101.872 95.3043 101.677 95.1324 101.544 94.9214C101.411 94.7105 101.345 94.4878 101.345 94.2535H102.072C102.082 94.4514 102.139 94.6089 102.243 94.7261C102.348 94.8407 102.475 94.9227 102.626 94.9722C102.777 95.0191 102.927 95.0425 103.076 95.0425C103.273 95.0425 103.439 95.0165 103.572 94.9644C103.707 94.9123 103.81 94.8407 103.88 94.7496C103.951 94.6584 103.986 94.5543 103.986 94.4371ZM105.466 93.4918V93.4019C105.466 93.0972 105.51 92.8147 105.599 92.5543C105.687 92.2912 105.815 92.0634 105.982 91.8707C106.148 91.6753 106.35 91.5243 106.587 91.4175C106.824 91.3082 107.09 91.2535 107.384 91.2535C107.681 91.2535 107.948 91.3082 108.185 91.4175C108.424 91.5243 108.628 91.6753 108.794 91.8707C108.964 92.0634 109.092 92.2912 109.181 92.5543C109.27 92.8147 109.314 93.0972 109.314 93.4019V93.4918C109.314 93.7964 109.27 94.079 109.181 94.3394C109.092 94.5998 108.964 94.8277 108.794 95.023C108.628 95.2157 108.426 95.3668 108.189 95.4761C107.954 95.5829 107.689 95.6363 107.392 95.6363C107.095 95.6363 106.828 95.5829 106.591 95.4761C106.354 95.3668 106.151 95.2157 105.982 95.023C105.815 94.8277 105.687 94.5998 105.599 94.3394C105.51 94.079 105.466 93.7964 105.466 93.4918ZM106.189 93.4019V93.4918C106.189 93.7027 106.214 93.9019 106.263 94.0894C106.312 94.2743 106.387 94.4384 106.486 94.5816C106.587 94.7248 106.714 94.8381 106.865 94.9214C107.016 95.0022 107.191 95.0425 107.392 95.0425C107.59 95.0425 107.763 95.0022 107.911 94.9214C108.062 94.8381 108.187 94.7248 108.286 94.5816C108.385 94.4384 108.46 94.2743 108.509 94.0894C108.561 93.9019 108.587 93.7027 108.587 93.4918V93.4019C108.587 93.1936 108.561 92.997 108.509 92.8121C108.46 92.6246 108.384 92.4592 108.283 92.316C108.184 92.1701 108.059 92.0556 107.908 91.9722C107.759 91.8889 107.585 91.8472 107.384 91.8472C107.186 91.8472 107.012 91.8889 106.861 91.9722C106.712 92.0556 106.587 92.1701 106.486 92.316C106.387 92.4592 106.312 92.6246 106.263 92.8121C106.214 92.997 106.189 93.1936 106.189 93.4019ZM111.005 89.5582V95.5582H110.279V89.5582H111.005ZM114.751 94.5816V91.3316H115.478V95.5582H114.786L114.751 94.5816ZM114.888 93.691L115.189 93.6832C115.189 93.9644 115.159 94.2248 115.099 94.4644C115.042 94.7014 114.948 94.9071 114.818 95.0816C114.687 95.2561 114.517 95.3928 114.306 95.4918C114.095 95.5881 113.839 95.6363 113.536 95.6363C113.331 95.6363 113.142 95.6063 112.97 95.5464C112.801 95.4865 112.655 95.3941 112.533 95.2691C112.41 95.1441 112.315 94.9813 112.247 94.7808C112.182 94.5803 112.15 94.3394 112.15 94.0582V91.3316H112.872V94.066C112.872 94.2561 112.893 94.4136 112.935 94.5386C112.979 94.661 113.038 94.7587 113.111 94.8316C113.186 94.9019 113.27 94.9514 113.361 94.98C113.454 95.0087 113.551 95.023 113.65 95.023C113.957 95.023 114.201 94.9644 114.38 94.8472C114.56 94.7274 114.689 94.5673 114.767 94.3668C114.848 94.1636 114.888 93.9384 114.888 93.691ZM118.349 91.3316V91.8863H116.064V91.3316H118.349ZM116.837 90.3043H117.56V94.5113C117.56 94.6545 117.582 94.7626 117.626 94.8355C117.671 94.9084 117.728 94.9566 117.798 94.98C117.868 95.0035 117.944 95.0152 118.025 95.0152C118.085 95.0152 118.147 95.01 118.212 94.9996C118.28 94.9865 118.331 94.9761 118.365 94.9683L118.368 95.5582C118.311 95.5764 118.236 95.5933 118.142 95.6089C118.051 95.6272 117.94 95.6363 117.81 95.6363C117.633 95.6363 117.47 95.6011 117.322 95.5308C117.173 95.4605 117.055 95.3433 116.966 95.1793C116.88 95.0126 116.837 94.7886 116.837 94.5074V90.3043ZM120.951 95.6363C120.656 95.6363 120.389 95.5868 120.15 95.4878C119.913 95.3863 119.708 95.2444 119.536 95.0621C119.367 94.8798 119.237 94.6636 119.146 94.4136C119.055 94.1636 119.009 93.8902 119.009 93.5933V93.4293C119.009 93.0855 119.06 92.7795 119.161 92.5113C119.263 92.2405 119.401 92.0113 119.576 91.8238C119.75 91.6363 119.948 91.4944 120.169 91.398C120.391 91.3016 120.62 91.2535 120.857 91.2535C121.159 91.2535 121.419 91.3056 121.638 91.4097C121.859 91.5139 122.04 91.6597 122.181 91.8472C122.322 92.0321 122.426 92.2509 122.493 92.5035C122.561 92.7535 122.595 93.0269 122.595 93.3238V93.648H119.439V93.0582H121.872V93.0035C121.862 92.816 121.823 92.6337 121.755 92.4566C121.69 92.2795 121.586 92.1337 121.443 92.0191C121.299 91.9045 121.104 91.8472 120.857 91.8472C120.693 91.8472 120.542 91.8824 120.404 91.9527C120.266 92.0204 120.147 92.122 120.048 92.2574C119.949 92.3928 119.872 92.5582 119.818 92.7535C119.763 92.9488 119.736 93.174 119.736 93.4293V93.5933C119.736 93.7938 119.763 93.9826 119.818 94.1597C119.875 94.3342 119.957 94.4878 120.064 94.6207C120.173 94.7535 120.305 94.8576 120.458 94.9332C120.615 95.0087 120.792 95.0464 120.99 95.0464C121.245 95.0464 121.461 94.9944 121.638 94.8902C121.815 94.786 121.97 94.6467 122.103 94.4722L122.54 94.8199C122.449 94.9579 122.333 95.0894 122.193 95.2144C122.052 95.3394 121.879 95.441 121.673 95.5191C121.47 95.5972 121.229 95.6363 120.951 95.6363ZM124.224 89.5582V95.5582H123.497V89.5582H124.224ZM126.572 95.1207L127.747 91.3316H128.521L126.826 96.2105C126.786 96.3147 126.734 96.4266 126.669 96.5464C126.607 96.6688 126.526 96.7847 126.427 96.8941C126.328 97.0035 126.208 97.092 126.068 97.1597C125.93 97.23 125.764 97.2652 125.572 97.2652C125.514 97.2652 125.441 97.2574 125.353 97.2418C125.264 97.2261 125.202 97.2131 125.165 97.2027L125.161 96.6168C125.182 96.6194 125.215 96.622 125.259 96.6246C125.306 96.6298 125.339 96.6324 125.357 96.6324C125.521 96.6324 125.66 96.6102 125.775 96.566C125.889 96.5243 125.986 96.4527 126.064 96.3511C126.145 96.2522 126.214 96.1155 126.271 95.941L126.572 95.1207ZM125.708 91.3316L126.806 94.6128L126.993 95.3746L126.474 95.6402L124.919 91.3316H125.708ZM92.4974 101.144V106.183H91.7708V100.332H92.4349L92.4974 101.144ZM95.345 102.41V102.492C95.345 102.799 95.3086 103.084 95.2357 103.347C95.1627 103.608 95.056 103.834 94.9153 104.027C94.7773 104.22 94.6068 104.369 94.4036 104.476C94.2005 104.583 93.9674 104.636 93.7044 104.636C93.4362 104.636 93.1992 104.592 92.9935 104.503C92.7877 104.415 92.6133 104.286 92.47 104.117C92.3268 103.947 92.2122 103.744 92.1263 103.507C92.0429 103.27 91.9857 103.003 91.9544 102.707V102.269C91.9857 101.957 92.0443 101.677 92.1302 101.429C92.2161 101.182 92.3294 100.971 92.47 100.796C92.6133 100.619 92.7864 100.485 92.9896 100.394C93.1927 100.3 93.4271 100.253 93.6927 100.253C93.9583 100.253 94.194 100.306 94.3997 100.41C94.6054 100.511 94.7786 100.657 94.9193 100.847C95.0599 101.037 95.1653 101.265 95.2357 101.531C95.3086 101.794 95.345 102.087 95.345 102.41ZM94.6185 102.492V102.41C94.6185 102.199 94.5963 102.001 94.5521 101.816C94.5078 101.628 94.4388 101.464 94.345 101.324C94.2539 101.181 94.1367 101.069 93.9935 100.988C93.8502 100.905 93.6797 100.863 93.4818 100.863C93.2995 100.863 93.1406 100.894 93.0052 100.957C92.8724 101.019 92.7591 101.104 92.6653 101.211C92.5716 101.315 92.4948 101.434 92.4349 101.57C92.3776 101.703 92.3346 101.841 92.306 101.984V102.996C92.3581 103.178 92.431 103.35 92.5247 103.511C92.6185 103.67 92.7435 103.799 92.8997 103.898C93.056 103.994 93.2526 104.043 93.4896 104.043C93.6849 104.043 93.8528 104.002 93.9935 103.921C94.1367 103.838 94.2539 103.725 94.345 103.582C94.4388 103.438 94.5078 103.274 94.5521 103.089C94.5963 102.902 94.6185 102.703 94.6185 102.492ZM96.0755 102.492V102.402C96.0755 102.097 96.1198 101.815 96.2083 101.554C96.2969 101.291 96.4245 101.063 96.5911 100.871C96.7578 100.675 96.9596 100.524 97.1966 100.418C97.4336 100.308 97.6992 100.253 97.9935 100.253C98.2903 100.253 98.5573 100.308 98.7943 100.418C99.0338 100.524 99.237 100.675 99.4036 100.871C99.5729 101.063 99.7018 101.291 99.7903 101.554C99.8789 101.815 99.9232 102.097 99.9232 102.402V102.492C99.9232 102.796 99.8789 103.079 99.7903 103.339C99.7018 103.6 99.5729 103.828 99.4036 104.023C99.237 104.216 99.0351 104.367 98.7982 104.476C98.5638 104.583 98.2982 104.636 98.0013 104.636C97.7044 104.636 97.4375 104.583 97.2005 104.476C96.9635 104.367 96.7604 104.216 96.5911 104.023C96.4245 103.828 96.2969 103.6 96.2083 103.339C96.1198 103.079 96.0755 102.796 96.0755 102.492ZM96.7982 102.402V102.492C96.7982 102.703 96.8229 102.902 96.8724 103.089C96.9219 103.274 96.9961 103.438 97.095 103.582C97.1966 103.725 97.3229 103.838 97.4739 103.921C97.625 104.002 97.8008 104.043 98.0013 104.043C98.1992 104.043 98.3724 104.002 98.5208 103.921C98.6719 103.838 98.7969 103.725 98.8958 103.582C98.9948 103.438 99.069 103.274 99.1185 103.089C99.1706 102.902 99.1966 102.703 99.1966 102.492V102.402C99.1966 102.194 99.1706 101.997 99.1185 101.812C99.069 101.625 98.9935 101.459 98.8919 101.316C98.7929 101.17 98.6679 101.056 98.5169 100.972C98.3685 100.889 98.194 100.847 97.9935 100.847C97.7956 100.847 97.6211 100.889 97.47 100.972C97.3216 101.056 97.1966 101.17 97.095 101.316C96.9961 101.459 96.9219 101.625 96.8724 101.812C96.8229 101.997 96.7982 102.194 96.7982 102.402ZM103.29 103.437C103.29 103.333 103.267 103.237 103.22 103.148C103.176 103.057 103.083 102.975 102.943 102.902C102.805 102.826 102.596 102.761 102.318 102.707C102.083 102.657 101.871 102.599 101.681 102.531C101.493 102.463 101.333 102.381 101.201 102.285C101.07 102.188 100.97 102.075 100.9 101.945C100.829 101.815 100.794 101.662 100.794 101.488C100.794 101.321 100.831 101.164 100.904 101.015C100.979 100.867 101.085 100.735 101.22 100.621C101.358 100.506 101.523 100.416 101.716 100.351C101.909 100.286 102.124 100.253 102.361 100.253C102.699 100.253 102.988 100.313 103.228 100.433C103.467 100.553 103.651 100.713 103.779 100.914C103.906 101.112 103.97 101.332 103.97 101.574H103.247C103.247 101.457 103.212 101.343 103.142 101.234C103.074 101.122 102.974 101.03 102.841 100.957C102.711 100.884 102.551 100.847 102.361 100.847C102.16 100.847 101.997 100.878 101.872 100.941C101.75 101.001 101.66 101.078 101.603 101.171C101.548 101.265 101.521 101.364 101.521 101.468C101.521 101.546 101.534 101.617 101.56 101.679C101.589 101.739 101.638 101.795 101.708 101.847C101.779 101.897 101.878 101.944 102.005 101.988C102.133 102.032 102.296 102.076 102.493 102.121C102.84 102.199 103.125 102.293 103.349 102.402C103.573 102.511 103.74 102.645 103.849 102.804C103.958 102.963 104.013 103.156 104.013 103.382C104.013 103.567 103.974 103.737 103.896 103.89C103.82 104.044 103.71 104.177 103.564 104.289C103.421 104.398 103.249 104.484 103.048 104.546C102.85 104.606 102.628 104.636 102.38 104.636C102.008 104.636 101.693 104.57 101.435 104.437C101.177 104.304 100.982 104.132 100.849 103.921C100.716 103.711 100.65 103.488 100.65 103.253H101.376C101.387 103.451 101.444 103.609 101.548 103.726C101.652 103.841 101.78 103.923 101.931 103.972C102.082 104.019 102.232 104.043 102.38 104.043C102.578 104.043 102.743 104.016 102.876 103.964C103.012 103.912 103.115 103.841 103.185 103.75C103.255 103.658 103.29 103.554 103.29 103.437ZM105.747 100.332V104.558H105.021V100.332H105.747ZM104.966 99.2105C104.966 99.0933 105.001 98.9944 105.072 98.9136C105.145 98.8329 105.251 98.7925 105.392 98.7925C105.53 98.7925 105.635 98.8329 105.708 98.9136C105.784 98.9944 105.822 99.0933 105.822 99.2105C105.822 99.3225 105.784 99.4188 105.708 99.4996C105.635 99.5777 105.53 99.6168 105.392 99.6168C105.251 99.6168 105.145 99.5777 105.072 99.4996C105.001 99.4188 104.966 99.3225 104.966 99.2105ZM108.677 100.332V100.886H106.392V100.332H108.677ZM107.165 99.3043H107.888V103.511C107.888 103.655 107.91 103.763 107.954 103.836C107.999 103.908 108.056 103.957 108.126 103.98C108.197 104.003 108.272 104.015 108.353 104.015C108.413 104.015 108.475 104.01 108.54 104C108.608 103.987 108.659 103.976 108.693 103.968L108.697 104.558C108.639 104.576 108.564 104.593 108.47 104.609C108.379 104.627 108.268 104.636 108.138 104.636C107.961 104.636 107.798 104.601 107.65 104.531C107.501 104.461 107.383 104.343 107.294 104.179C107.208 104.013 107.165 103.789 107.165 103.507V99.3043ZM110.31 100.332V104.558H109.583V100.332H110.31ZM109.529 99.2105C109.529 99.0933 109.564 98.9944 109.634 98.9136C109.707 98.8329 109.814 98.7925 109.954 98.7925C110.092 98.7925 110.198 98.8329 110.271 98.9136C110.346 98.9944 110.384 99.0933 110.384 99.2105C110.384 99.3225 110.346 99.4188 110.271 99.4996C110.198 99.5777 110.092 99.6168 109.954 99.6168C109.814 99.6168 109.707 99.5777 109.634 99.4996C109.564 99.4188 109.529 99.3225 109.529 99.2105ZM111.279 102.492V102.402C111.279 102.097 111.323 101.815 111.411 101.554C111.5 101.291 111.628 101.063 111.794 100.871C111.961 100.675 112.163 100.524 112.4 100.418C112.637 100.308 112.902 100.253 113.197 100.253C113.493 100.253 113.76 100.308 113.997 100.418C114.237 100.524 114.44 100.675 114.607 100.871C114.776 101.063 114.905 101.291 114.993 101.554C115.082 101.815 115.126 102.097 115.126 102.402V102.492C115.126 102.796 115.082 103.079 114.993 103.339C114.905 103.6 114.776 103.828 114.607 104.023C114.44 104.216 114.238 104.367 114.001 104.476C113.767 104.583 113.501 104.636 113.204 104.636C112.908 104.636 112.641 104.583 112.404 104.476C112.167 104.367 111.964 104.216 111.794 104.023C111.628 103.828 111.5 103.6 111.411 103.339C111.323 103.079 111.279 102.796 111.279 102.492ZM112.001 102.402V102.492C112.001 102.703 112.026 102.902 112.076 103.089C112.125 103.274 112.199 103.438 112.298 103.582C112.4 103.725 112.526 103.838 112.677 103.921C112.828 104.002 113.004 104.043 113.204 104.043C113.402 104.043 113.576 104.002 113.724 103.921C113.875 103.838 114 103.725 114.099 103.582C114.198 103.438 114.272 103.274 114.322 103.089C114.374 102.902 114.4 102.703 114.4 102.492V102.402C114.4 102.194 114.374 101.997 114.322 101.812C114.272 101.625 114.197 101.459 114.095 101.316C113.996 101.17 113.871 101.056 113.72 100.972C113.572 100.889 113.397 100.847 113.197 100.847C112.999 100.847 112.824 100.889 112.673 100.972C112.525 101.056 112.4 101.17 112.298 101.316C112.199 101.459 112.125 101.625 112.076 101.812C112.026 101.997 112.001 102.194 112.001 102.402ZM116.755 101.234V104.558H116.033V100.332H116.716L116.755 101.234ZM116.583 102.285L116.283 102.273C116.285 101.984 116.328 101.717 116.411 101.472C116.495 101.225 116.612 101.01 116.763 100.828C116.914 100.645 117.094 100.505 117.302 100.406C117.513 100.304 117.746 100.253 118.001 100.253C118.21 100.253 118.397 100.282 118.564 100.339C118.73 100.394 118.872 100.483 118.99 100.605C119.109 100.727 119.201 100.886 119.263 101.082C119.326 101.274 119.357 101.51 119.357 101.789V104.558H118.63V101.781C118.63 101.559 118.598 101.382 118.533 101.25C118.467 101.114 118.372 101.016 118.247 100.957C118.122 100.894 117.969 100.863 117.786 100.863C117.607 100.863 117.443 100.901 117.294 100.976C117.148 101.052 117.022 101.156 116.915 101.289C116.811 101.421 116.729 101.574 116.669 101.746C116.612 101.915 116.583 102.095 116.583 102.285ZM122.208 104.636C121.914 104.636 121.647 104.587 121.408 104.488C121.171 104.386 120.966 104.244 120.794 104.062C120.625 103.88 120.495 103.664 120.404 103.414C120.312 103.164 120.267 102.89 120.267 102.593V102.429C120.267 102.086 120.318 101.78 120.419 101.511C120.521 101.24 120.659 101.011 120.833 100.824C121.008 100.636 121.206 100.494 121.427 100.398C121.648 100.302 121.878 100.253 122.115 100.253C122.417 100.253 122.677 100.306 122.896 100.41C123.117 100.514 123.298 100.66 123.439 100.847C123.579 101.032 123.684 101.251 123.751 101.503C123.819 101.753 123.853 102.027 123.853 102.324V102.648H120.697V102.058H123.13V102.003C123.12 101.816 123.081 101.634 123.013 101.457C122.948 101.28 122.844 101.134 122.701 101.019C122.557 100.905 122.362 100.847 122.115 100.847C121.951 100.847 121.799 100.882 121.661 100.953C121.523 101.02 121.405 101.122 121.306 101.257C121.207 101.393 121.13 101.558 121.076 101.753C121.021 101.949 120.993 102.174 120.993 102.429V102.593C120.993 102.794 121.021 102.983 121.076 103.16C121.133 103.334 121.215 103.488 121.322 103.621C121.431 103.753 121.562 103.858 121.716 103.933C121.872 104.009 122.049 104.046 122.247 104.046C122.503 104.046 122.719 103.994 122.896 103.89C123.073 103.786 123.228 103.647 123.361 103.472L123.798 103.82C123.707 103.958 123.591 104.089 123.451 104.214C123.31 104.339 123.137 104.441 122.931 104.519C122.728 104.597 122.487 104.636 122.208 104.636ZM127.361 103.738V98.5582H128.087V104.558H127.423L127.361 103.738ZM124.517 102.492V102.41C124.517 102.087 124.556 101.794 124.634 101.531C124.715 101.265 124.828 101.037 124.974 100.847C125.122 100.657 125.298 100.511 125.501 100.41C125.707 100.306 125.936 100.253 126.189 100.253C126.454 100.253 126.686 100.3 126.884 100.394C127.085 100.485 127.254 100.619 127.392 100.796C127.533 100.971 127.643 101.182 127.724 101.429C127.805 101.677 127.861 101.957 127.892 102.269V102.628C127.863 102.938 127.807 103.217 127.724 103.464C127.643 103.712 127.533 103.923 127.392 104.097C127.254 104.272 127.085 104.406 126.884 104.5C126.684 104.591 126.449 104.636 126.181 104.636C125.934 104.636 125.707 104.583 125.501 104.476C125.298 104.369 125.122 104.22 124.974 104.027C124.828 103.834 124.715 103.608 124.634 103.347C124.556 103.084 124.517 102.799 124.517 102.492ZM125.243 102.41V102.492C125.243 102.703 125.264 102.901 125.306 103.086C125.35 103.27 125.418 103.433 125.509 103.574C125.6 103.714 125.716 103.825 125.857 103.906C125.997 103.984 126.165 104.023 126.361 104.023C126.6 104.023 126.797 103.972 126.951 103.871C127.107 103.769 127.232 103.635 127.326 103.468C127.419 103.302 127.492 103.121 127.544 102.925V101.984C127.513 101.841 127.467 101.703 127.408 101.57C127.35 101.434 127.275 101.315 127.181 101.211C127.09 101.104 126.977 101.019 126.841 100.957C126.708 100.894 126.551 100.863 126.368 100.863C126.171 100.863 126 100.905 125.857 100.988C125.716 101.069 125.6 101.181 125.509 101.324C125.418 101.464 125.35 101.628 125.306 101.816C125.264 102.001 125.243 102.199 125.243 102.41ZM97.8841 113.636C97.5898 113.636 97.3229 113.587 97.0833 113.488C96.8463 113.386 96.6419 113.244 96.47 113.062C96.3008 112.88 96.1706 112.664 96.0794 112.414C95.9883 112.164 95.9427 111.89 95.9427 111.593V111.429C95.9427 111.086 95.9935 110.78 96.095 110.511C96.1966 110.24 96.3346 110.011 96.5091 109.824C96.6836 109.636 96.8815 109.494 97.1028 109.398C97.3242 109.302 97.5534 109.253 97.7903 109.253C98.0924 109.253 98.3528 109.306 98.5716 109.41C98.7929 109.514 98.9739 109.66 99.1146 109.847C99.2552 110.032 99.3594 110.251 99.4271 110.503C99.4948 110.753 99.5286 111.027 99.5286 111.324V111.648H96.3724V111.058H98.806V111.003C98.7956 110.816 98.7565 110.634 98.6888 110.457C98.6237 110.28 98.5195 110.134 98.3763 110.019C98.2331 109.905 98.0377 109.847 97.7903 109.847C97.6263 109.847 97.4752 109.882 97.3372 109.953C97.1992 110.02 97.0807 110.122 96.9818 110.257C96.8828 110.393 96.806 110.558 96.7513 110.753C96.6966 110.949 96.6693 111.174 96.6693 111.429V111.593C96.6693 111.794 96.6966 111.983 96.7513 112.16C96.8086 112.334 96.8906 112.488 96.9974 112.621C97.1068 112.753 97.2383 112.858 97.3919 112.933C97.5482 113.009 97.7252 113.046 97.9232 113.046C98.1784 113.046 98.3945 112.994 98.5716 112.89C98.7487 112.786 98.9036 112.647 99.0364 112.472L99.4739 112.82C99.3828 112.958 99.2669 113.089 99.1263 113.214C98.9857 113.339 98.8125 113.441 98.6068 113.519C98.4036 113.597 98.1627 113.636 97.8841 113.636ZM101.158 107.558V113.558H100.431V107.558H101.158ZM104.072 113.636C103.777 113.636 103.51 113.587 103.271 113.488C103.034 113.386 102.829 113.244 102.658 113.062C102.488 112.88 102.358 112.664 102.267 112.414C102.176 112.164 102.13 111.89 102.13 111.593V111.429C102.13 111.086 102.181 110.78 102.283 110.511C102.384 110.24 102.522 110.011 102.697 109.824C102.871 109.636 103.069 109.494 103.29 109.398C103.512 109.302 103.741 109.253 103.978 109.253C104.28 109.253 104.54 109.306 104.759 109.41C104.98 109.514 105.161 109.66 105.302 109.847C105.443 110.032 105.547 110.251 105.615 110.503C105.682 110.753 105.716 111.027 105.716 111.324V111.648H102.56V111.058H104.993V111.003C104.983 110.816 104.944 110.634 104.876 110.457C104.811 110.28 104.707 110.134 104.564 110.019C104.421 109.905 104.225 109.847 103.978 109.847C103.814 109.847 103.663 109.882 103.525 109.953C103.387 110.02 103.268 110.122 103.169 110.257C103.07 110.393 102.993 110.558 102.939 110.753C102.884 110.949 102.857 111.174 102.857 111.429V111.593C102.857 111.794 102.884 111.983 102.939 112.16C102.996 112.334 103.078 112.488 103.185 112.621C103.294 112.753 103.426 112.858 103.579 112.933C103.736 113.009 103.913 113.046 104.111 113.046C104.366 113.046 104.582 112.994 104.759 112.89C104.936 112.786 105.091 112.647 105.224 112.472L105.661 112.82C105.57 112.958 105.454 113.089 105.314 113.214C105.173 113.339 105 113.441 104.794 113.519C104.591 113.597 104.35 113.636 104.072 113.636ZM107.279 110.171V113.558H106.552V109.332H107.24L107.279 110.171ZM107.13 111.285L106.794 111.273C106.797 110.984 106.835 110.717 106.908 110.472C106.98 110.225 107.089 110.01 107.232 109.828C107.375 109.645 107.553 109.505 107.767 109.406C107.98 109.304 108.228 109.253 108.509 109.253C108.707 109.253 108.889 109.282 109.056 109.339C109.223 109.394 109.367 109.481 109.49 109.601C109.612 109.721 109.707 109.875 109.775 110.062C109.842 110.25 109.876 110.476 109.876 110.742V113.558H109.154V110.777C109.154 110.556 109.116 110.378 109.04 110.246C108.967 110.113 108.863 110.016 108.728 109.957C108.592 109.894 108.434 109.863 108.251 109.863C108.038 109.863 107.859 109.901 107.716 109.976C107.573 110.052 107.458 110.156 107.372 110.289C107.286 110.421 107.224 110.574 107.185 110.746C107.148 110.915 107.13 111.095 107.13 111.285ZM109.868 110.886L109.384 111.035C109.387 110.803 109.424 110.58 109.497 110.367C109.573 110.153 109.681 109.963 109.822 109.796C109.965 109.63 110.141 109.498 110.349 109.402C110.557 109.303 110.796 109.253 111.064 109.253C111.29 109.253 111.491 109.283 111.665 109.343C111.842 109.403 111.991 109.496 112.111 109.621C112.233 109.743 112.326 109.901 112.388 110.093C112.451 110.286 112.482 110.515 112.482 110.781V113.558H111.755V110.773C111.755 110.536 111.717 110.352 111.642 110.222C111.569 110.089 111.465 109.997 111.329 109.945C111.197 109.89 111.038 109.863 110.853 109.863C110.694 109.863 110.553 109.89 110.431 109.945C110.309 110 110.206 110.075 110.122 110.171C110.039 110.265 109.975 110.373 109.931 110.496C109.889 110.618 109.868 110.748 109.868 110.886ZM115.329 113.636C115.035 113.636 114.768 113.587 114.529 113.488C114.292 113.386 114.087 113.244 113.915 113.062C113.746 112.88 113.616 112.664 113.525 112.414C113.434 112.164 113.388 111.89 113.388 111.593V111.429C113.388 111.086 113.439 110.78 113.54 110.511C113.642 110.24 113.78 110.011 113.954 109.824C114.129 109.636 114.327 109.494 114.548 109.398C114.77 109.302 114.999 109.253 115.236 109.253C115.538 109.253 115.798 109.306 116.017 109.41C116.238 109.514 116.419 109.66 116.56 109.847C116.701 110.032 116.805 110.251 116.872 110.503C116.94 110.753 116.974 111.027 116.974 111.324V111.648H113.818V111.058H116.251V111.003C116.241 110.816 116.202 110.634 116.134 110.457C116.069 110.28 115.965 110.134 115.822 110.019C115.678 109.905 115.483 109.847 115.236 109.847C115.072 109.847 114.921 109.882 114.783 109.953C114.645 110.02 114.526 110.122 114.427 110.257C114.328 110.393 114.251 110.558 114.197 110.753C114.142 110.949 114.115 111.174 114.115 111.429V111.593C114.115 111.794 114.142 111.983 114.197 112.16C114.254 112.334 114.336 112.488 114.443 112.621C114.552 112.753 114.684 112.858 114.837 112.933C114.993 113.009 115.171 113.046 115.368 113.046C115.624 113.046 115.84 112.994 116.017 112.89C116.194 112.786 116.349 112.647 116.482 112.472L116.919 112.82C116.828 112.958 116.712 113.089 116.572 113.214C116.431 113.339 116.258 113.441 116.052 113.519C115.849 113.597 115.608 113.636 115.329 113.636ZM118.54 110.234V113.558H117.818V109.332H118.501L118.54 110.234ZM118.368 111.285L118.068 111.273C118.07 110.984 118.113 110.717 118.197 110.472C118.28 110.225 118.397 110.01 118.548 109.828C118.699 109.645 118.879 109.505 119.087 109.406C119.298 109.304 119.531 109.253 119.786 109.253C119.995 109.253 120.182 109.282 120.349 109.339C120.516 109.394 120.658 109.483 120.775 109.605C120.895 109.727 120.986 109.886 121.048 110.082C121.111 110.274 121.142 110.51 121.142 110.789V113.558H120.415V110.781C120.415 110.559 120.383 110.382 120.318 110.25C120.253 110.114 120.158 110.016 120.033 109.957C119.908 109.894 119.754 109.863 119.572 109.863C119.392 109.863 119.228 109.901 119.079 109.976C118.934 110.052 118.807 110.156 118.701 110.289C118.596 110.421 118.514 110.574 118.454 110.746C118.397 110.915 118.368 111.095 118.368 111.285ZM124.009 109.332V109.886H121.724V109.332H124.009ZM122.497 108.304H123.22V112.511C123.22 112.655 123.242 112.763 123.286 112.836C123.331 112.908 123.388 112.957 123.458 112.98C123.529 113.003 123.604 113.015 123.685 113.015C123.745 113.015 123.807 113.01 123.872 113C123.94 112.987 123.991 112.976 124.025 112.968L124.029 113.558C123.971 113.576 123.896 113.593 123.802 113.609C123.711 113.627 123.6 113.636 123.47 113.636C123.293 113.636 123.13 113.601 122.982 113.531C122.833 113.461 122.715 113.343 122.626 113.179C122.54 113.013 122.497 112.789 122.497 112.507V108.304ZM90.0521 121.808L91.138 118.332H91.6146L91.5208 119.023L90.4153 122.558H89.9505L90.0521 121.808ZM89.3216 118.332L90.2474 121.847L90.3138 122.558H89.8255L88.5989 118.332H89.3216ZM92.6536 121.82L93.5364 118.332H94.2552L93.0286 122.558H92.5443L92.6536 121.82ZM91.72 118.332L92.7825 121.75L92.9036 122.558H92.4427L91.306 119.015L91.2122 118.332H91.72ZM95.7825 118.332V122.558H95.056V118.332H95.7825ZM95.0013 117.211C95.0013 117.093 95.0364 116.994 95.1068 116.914C95.1797 116.833 95.2864 116.793 95.4271 116.793C95.5651 116.793 95.6706 116.833 95.7435 116.914C95.819 116.994 95.8568 117.093 95.8568 117.211C95.8568 117.322 95.819 117.419 95.7435 117.5C95.6706 117.578 95.5651 117.617 95.4271 117.617C95.2864 117.617 95.1797 117.578 95.1068 117.5C95.0364 117.419 95.0013 117.322 95.0013 117.211ZM98.7122 118.332V118.886H96.4271V118.332H98.7122ZM97.2005 117.304H97.9232V121.511C97.9232 121.655 97.9453 121.763 97.9896 121.836C98.0338 121.908 98.0911 121.957 98.1614 121.98C98.2318 122.003 98.3073 122.015 98.388 122.015C98.4479 122.015 98.5104 122.01 98.5755 122C98.6432 121.987 98.694 121.976 98.7278 121.968L98.7318 122.558C98.6745 122.576 98.5989 122.593 98.5052 122.609C98.414 122.627 98.3034 122.636 98.1732 122.636C97.9961 122.636 97.8333 122.601 97.6849 122.531C97.5364 122.461 97.4179 122.343 97.3294 122.179C97.2435 122.013 97.2005 121.789 97.2005 121.507V117.304ZM100.283 116.558V122.558H99.5599V116.558H100.283ZM100.111 120.285L99.8099 120.273C99.8125 119.984 99.8554 119.717 99.9388 119.472C100.022 119.225 100.139 119.01 100.29 118.828C100.441 118.645 100.621 118.505 100.829 118.406C101.04 118.304 101.273 118.253 101.529 118.253C101.737 118.253 101.924 118.282 102.091 118.339C102.258 118.394 102.4 118.483 102.517 118.605C102.637 118.727 102.728 118.886 102.79 119.082C102.853 119.274 102.884 119.51 102.884 119.789V122.558H102.158V119.781C102.158 119.559 102.125 119.382 102.06 119.25C101.995 119.114 101.9 119.016 101.775 118.957C101.65 118.894 101.496 118.863 101.314 118.863C101.134 118.863 100.97 118.901 100.822 118.976C100.676 119.052 100.549 119.156 100.443 119.289C100.339 119.421 100.256 119.574 100.197 119.746C100.139 119.915 100.111 120.095 100.111 120.285ZM107.642 122.043C107.814 122.043 107.973 122.007 108.118 121.937C108.264 121.867 108.384 121.77 108.478 121.648C108.572 121.523 108.625 121.381 108.638 121.222H109.326C109.312 121.472 109.228 121.705 109.072 121.921C108.918 122.135 108.716 122.308 108.466 122.441C108.216 122.571 107.941 122.636 107.642 122.636C107.324 122.636 107.047 122.58 106.81 122.468C106.576 122.356 106.38 122.203 106.224 122.007C106.07 121.812 105.954 121.588 105.876 121.336C105.801 121.08 105.763 120.811 105.763 120.527V120.363C105.763 120.079 105.801 119.811 105.876 119.558C105.954 119.303 106.07 119.078 106.224 118.882C106.38 118.687 106.576 118.533 106.81 118.421C107.047 118.309 107.324 118.253 107.642 118.253C107.973 118.253 108.262 118.321 108.509 118.457C108.756 118.589 108.951 118.772 109.091 119.003C109.234 119.233 109.312 119.493 109.326 119.785H108.638C108.625 119.61 108.576 119.453 108.49 119.312C108.406 119.171 108.292 119.059 108.146 118.976C108.003 118.89 107.835 118.847 107.642 118.847C107.421 118.847 107.234 118.891 107.083 118.98C106.935 119.066 106.816 119.183 106.728 119.332C106.642 119.477 106.579 119.64 106.54 119.82C106.504 119.997 106.486 120.178 106.486 120.363V120.527C106.486 120.712 106.504 120.894 106.54 121.074C106.577 121.253 106.638 121.416 106.724 121.562C106.812 121.708 106.931 121.825 107.079 121.914C107.23 122 107.418 122.043 107.642 122.043ZM109.947 120.492V120.402C109.947 120.097 109.991 119.815 110.079 119.554C110.168 119.291 110.296 119.063 110.462 118.871C110.629 118.675 110.831 118.524 111.068 118.418C111.305 118.308 111.57 118.253 111.865 118.253C112.161 118.253 112.428 118.308 112.665 118.418C112.905 118.524 113.108 118.675 113.275 118.871C113.444 119.063 113.573 119.291 113.661 119.554C113.75 119.815 113.794 120.097 113.794 120.402V120.492C113.794 120.796 113.75 121.079 113.661 121.339C113.573 121.6 113.444 121.828 113.275 122.023C113.108 122.216 112.906 122.367 112.669 122.476C112.435 122.583 112.169 122.636 111.872 122.636C111.576 122.636 111.309 122.583 111.072 122.476C110.835 122.367 110.631 122.216 110.462 122.023C110.296 121.828 110.168 121.6 110.079 121.339C109.991 121.079 109.947 120.796 109.947 120.492ZM110.669 120.402V120.492C110.669 120.703 110.694 120.902 110.743 121.089C110.793 121.274 110.867 121.438 110.966 121.582C111.068 121.725 111.194 121.838 111.345 121.921C111.496 122.002 111.672 122.043 111.872 122.043C112.07 122.043 112.243 122.002 112.392 121.921C112.543 121.838 112.668 121.725 112.767 121.582C112.866 121.438 112.94 121.274 112.99 121.089C113.042 120.902 113.068 120.703 113.068 120.492V120.402C113.068 120.194 113.042 119.997 112.99 119.812C112.94 119.625 112.865 119.459 112.763 119.316C112.664 119.17 112.539 119.056 112.388 118.972C112.24 118.889 112.065 118.847 111.865 118.847C111.667 118.847 111.492 118.889 111.341 118.972C111.193 119.056 111.068 119.17 110.966 119.316C110.867 119.459 110.793 119.625 110.743 119.812C110.694 119.997 110.669 120.194 110.669 120.402ZM115.486 116.558V122.558H114.759V116.558H115.486ZM117.431 116.558V122.558H116.704V116.558H117.431ZM119.376 118.332V122.558H118.65V118.332H119.376ZM118.595 117.211C118.595 117.093 118.63 116.994 118.701 116.914C118.773 116.833 118.88 116.793 119.021 116.793C119.159 116.793 119.264 116.833 119.337 116.914C119.413 116.994 119.451 117.093 119.451 117.211C119.451 117.322 119.413 117.419 119.337 117.5C119.264 117.578 119.159 117.617 119.021 117.617C118.88 117.617 118.773 117.578 118.701 117.5C118.63 117.419 118.595 117.322 118.595 117.211ZM123.201 121.738V116.558H123.927V122.558H123.263L123.201 121.738ZM120.357 120.492V120.41C120.357 120.087 120.396 119.794 120.474 119.531C120.555 119.265 120.668 119.037 120.814 118.847C120.962 118.657 121.138 118.511 121.341 118.41C121.547 118.306 121.776 118.253 122.029 118.253C122.294 118.253 122.526 118.3 122.724 118.394C122.924 118.485 123.094 118.619 123.232 118.796C123.372 118.971 123.483 119.182 123.564 119.429C123.645 119.677 123.701 119.957 123.732 120.269V120.628C123.703 120.938 123.647 121.217 123.564 121.464C123.483 121.712 123.372 121.923 123.232 122.097C123.094 122.272 122.924 122.406 122.724 122.5C122.523 122.591 122.289 122.636 122.021 122.636C121.773 122.636 121.547 122.583 121.341 122.476C121.138 122.369 120.962 122.22 120.814 122.027C120.668 121.834 120.555 121.608 120.474 121.347C120.396 121.084 120.357 120.799 120.357 120.492ZM121.083 120.41V120.492C121.083 120.703 121.104 120.901 121.146 121.086C121.19 121.27 121.258 121.433 121.349 121.574C121.44 121.714 121.556 121.825 121.697 121.906C121.837 121.984 122.005 122.023 122.201 122.023C122.44 122.023 122.637 121.972 122.79 121.871C122.947 121.769 123.072 121.635 123.165 121.468C123.259 121.302 123.332 121.121 123.384 120.925V119.984C123.353 119.841 123.307 119.703 123.247 119.57C123.19 119.434 123.115 119.315 123.021 119.211C122.93 119.104 122.816 119.019 122.681 118.957C122.548 118.894 122.391 118.863 122.208 118.863C122.01 118.863 121.84 118.905 121.697 118.988C121.556 119.069 121.44 119.181 121.349 119.324C121.258 119.464 121.19 119.628 121.146 119.816C121.104 120.001 121.083 120.199 121.083 120.41ZM126.806 122.636C126.512 122.636 126.245 122.587 126.005 122.488C125.768 122.386 125.564 122.244 125.392 122.062C125.223 121.88 125.092 121.664 125.001 121.414C124.91 121.164 124.865 120.89 124.865 120.593V120.429C124.865 120.086 124.915 119.78 125.017 119.511C125.118 119.24 125.256 119.011 125.431 118.824C125.605 118.636 125.803 118.494 126.025 118.398C126.246 118.302 126.475 118.253 126.712 118.253C127.014 118.253 127.275 118.306 127.493 118.41C127.715 118.514 127.896 118.66 128.036 118.847C128.177 119.032 128.281 119.251 128.349 119.503C128.417 119.753 128.451 120.027 128.451 120.324V120.648H125.294V120.058H127.728V120.003C127.717 119.816 127.678 119.634 127.611 119.457C127.546 119.28 127.441 119.134 127.298 119.019C127.155 118.905 126.96 118.847 126.712 118.847C126.548 118.847 126.397 118.882 126.259 118.953C126.121 119.02 126.003 119.122 125.904 119.257C125.805 119.393 125.728 119.558 125.673 119.753C125.618 119.949 125.591 120.174 125.591 120.429V120.593C125.591 120.794 125.618 120.983 125.673 121.16C125.73 121.334 125.812 121.488 125.919 121.621C126.029 121.753 126.16 121.858 126.314 121.933C126.47 122.009 126.647 122.046 126.845 122.046C127.1 122.046 127.316 121.994 127.493 121.89C127.671 121.786 127.826 121.647 127.958 121.472L128.396 121.82C128.305 121.958 128.189 122.089 128.048 122.214C127.908 122.339 127.734 122.441 127.529 122.519C127.326 122.597 127.085 122.636 126.806 122.636ZM130.017 118.996V122.558H129.294V118.332H129.997L130.017 118.996ZM131.337 118.308L131.333 118.98C131.273 118.967 131.216 118.959 131.161 118.957C131.109 118.951 131.049 118.949 130.982 118.949C130.815 118.949 130.668 118.975 130.54 119.027C130.413 119.079 130.305 119.152 130.216 119.246C130.128 119.339 130.057 119.451 130.005 119.582C129.956 119.709 129.923 119.85 129.908 120.003L129.704 120.121C129.704 119.865 129.729 119.626 129.779 119.402C129.831 119.178 129.91 118.98 130.017 118.808C130.124 118.634 130.259 118.498 130.423 118.402C130.59 118.303 130.788 118.253 131.017 118.253C131.069 118.253 131.129 118.26 131.197 118.273C131.264 118.283 131.311 118.295 131.337 118.308Z" fill="#CB1E52"/>
</svg>
